<svg width="149" height="148" viewBox="0 0 149 148" fill="none" xmlns="http://www.w3.org/2000/svg">
<path fill-rule="evenodd" clip-rule="evenodd" d="M108.153 13.4616C108.276 13.6082 108.39 13.7601 108.494 13.9174L108.499 13.9254L108.511 13.9453L108.548 14.0053L108.68 14.2172C108.801 14.4037 108.964 14.6676 109.17 15.0087C111.698 19.2322 113.975 23.5928 115.989 28.069C119.663 36.2642 123.542 47.3257 123.542 57.8635C123.542 69.7884 115.244 76.4006 107.947 79.8145C104.309 81.4929 100.468 82.7218 96.515 83.4724C90.4302 88.9582 82.4294 92.0009 74.1252 91.9874C69.1735 91.9912 64.2847 90.9101 59.8233 88.8246C55.3619 86.7391 51.4429 83.7029 48.3585 79.9425L48.1691 79.9265C47.2737 79.8473 46.3821 79.7326 45.4964 79.5827C42.696 79.1181 39.9691 78.3038 37.3839 77.1601C34.3777 75.8009 31.1821 73.7141 28.736 70.512C26.2528 67.2619 24.7085 63.0804 24.7085 57.8635C24.7085 48.0013 29.6584 36.7959 34.2047 28.4728C36.9376 23.4813 39.971 18.6504 43.2892 14.0053L43.4209 13.8254L43.4704 13.7495L43.8327 13.2298C44.1416 12.802 44.5822 12.2304 45.1752 11.5587C46.7825 9.75977 48.6077 8.15576 50.6111 6.78156C55.6022 3.3276 63.3029 0.0455322 74.3475 0.0455322C85.3633 0.0455322 93.7518 3.31161 99.4018 6.61366C102.223 8.26469 104.36 9.91971 105.814 11.187C106.605 11.8838 107.361 12.6176 108.079 13.3857L108.12 13.4336L108.14 13.4536L108.153 13.4616ZM50.3928 18.0829L50.1951 18.3787L50.1869 18.3867L50.154 18.4267L50.0181 18.6186C49.8918 18.7865 49.7106 19.0397 49.4745 19.3781C46.5672 23.5121 43.8974 27.7987 41.4772 32.2186C37.0132 40.3978 32.9446 50.104 32.9446 57.8595C32.9446 61.4534 33.9741 63.9439 35.3496 65.7468C36.7662 67.5937 38.7222 68.9449 40.8636 69.9124C41.8808 70.3721 42.9103 70.7359 43.8904 71.0197C43.1059 67.5891 42.5161 64.1193 42.1238 60.6258C41.6584 56.3324 41.5225 51.5712 42.3544 47.3617C43.1739 43.2361 45.1052 38.8027 49.528 36.4961C55.4127 33.4299 65.3702 29.3283 74.1499 26.5019C78.5274 25.0908 82.7978 23.9355 86.2117 23.4078C87.8877 23.1519 89.6091 23.008 91.1245 23.1559C92.3105 23.2758 94.769 23.7116 96.1279 25.8743C107.164 41.3412 107.329 55.5129 104.533 65.8628C103.726 68.857 102.68 71.5074 101.601 73.7621C102.515 73.4263 103.437 73.0425 104.368 72.6108C110.339 69.8124 115.306 65.359 115.306 57.8595C115.306 48.9767 111.97 39.1265 108.437 31.2591C106.555 27.0793 104.43 23.0071 102.07 19.0623L101.683 18.4267L101.584 18.3268L101.539 18.2788C101.144 17.8828 100.734 17.5001 100.312 17.1315C98.7152 15.7545 96.989 14.5258 95.1561 13.4616C90.5562 10.7712 83.6173 8.04082 74.3517 8.04082C65.1107 8.04082 59.0654 10.7552 55.3839 13.2977C53.9264 14.2948 52.5977 15.4585 51.4264 16.7637C51.0666 17.1759 50.7285 17.6055 50.4134 18.0509L50.3928 18.0829ZM52.4765 71.5794L52.1677 70.3121C51.3409 66.8453 50.7222 63.3348 50.3146 59.7983C49.8863 55.8287 49.8328 51.9629 50.4463 48.8728C51.0723 45.7066 52.2171 44.1755 53.4237 43.5439C58.806 40.7376 68.3146 36.8079 76.7442 34.0935C80.9694 32.7343 84.7415 31.7349 87.5006 31.3111C88.5425 31.1512 89.3084 31.0912 89.8273 31.0952C98.8788 44.1595 98.7841 55.6288 96.5645 63.8399C95.5993 67.3705 94.1403 70.7561 92.2281 73.902C91.5255 75.0597 90.7484 76.1733 89.9014 77.2361L89.8726 77.272L89.7861 77.376L89.7697 77.392L89.7655 77.396C89.2919 77.9333 88.9736 78.5831 88.8431 79.2788C86.0119 81.3185 82.7636 82.7462 79.3167 83.4658C75.8698 84.1855 72.3042 84.1804 68.8594 83.451C65.4147 82.7216 62.1708 81.2848 59.3457 79.2371C56.5206 77.1894 54.1757 74.5783 52.4765 71.5794Z" fill="#7AB99E"/>
<path fill-rule="evenodd" clip-rule="evenodd" d="M49.0625 95.4093C48.1895 93.7223 47.1147 91.6395 45.2986 92.0433C23.0446 96.9604 0 111.16 0 126.251V147.958H148.25V126.251C148.25 114.362 133.952 103.033 117.006 96.3487L116.949 96.2408L116.928 96.2008L116.792 96.2648C112.291 94.5058 107.605 93.0667 102.951 92.0433C100.88 91.5835 98.7386 94.3499 97.8038 96.0809H49.4167L49.0625 95.4093ZM104.611 100.69C106.412 101.173 108.198 101.715 109.969 102.317C110.018 103.684 109.911 105.295 109.68 106.942C109.447 108.648 109.073 110.332 108.56 111.98H102.951C102.187 111.98 101.437 112.187 100.787 112.577C100.137 112.968 99.6116 113.526 99.2698 114.19L95.1518 122.186C94.8654 122.74 94.716 123.352 94.7153 123.972V131.968C94.7153 133.028 95.1491 134.045 95.9214 134.795C96.6937 135.544 97.7411 135.965 98.8333 135.965H107.069V127.97H102.951V124.916L105.496 119.975H116.879L119.424 124.916V127.97H115.306V135.965H123.542C124.634 135.965 125.681 135.544 126.454 134.795C127.226 134.045 127.66 133.028 127.66 131.968V123.972C127.659 123.352 127.51 122.74 127.223 122.186L123.105 114.19C122.763 113.526 122.238 112.968 121.588 112.577C120.938 112.187 120.188 111.98 119.424 111.98H117.093C117.596 109.864 117.938 107.716 118.114 105.551C122.129 107.39 125.86 109.501 129.093 111.788C137.008 117.4 140.014 122.645 140.014 126.251V139.963H8.23611V126.251C8.23611 122.641 11.2423 117.396 19.1572 111.792C23.1352 108.973 27.8834 106.423 32.9733 104.312C33.1154 107.498 33.642 110.656 34.5422 113.722L34.5752 113.834C32.1133 115.346 30.2809 117.654 29.4018 120.35C28.5227 123.047 28.6534 125.958 29.7708 128.569C30.8881 131.181 32.9203 133.326 35.5084 134.624C38.0964 135.922 41.0739 136.291 43.9148 135.665C46.7558 135.039 49.2774 133.458 51.0344 131.203C52.7914 128.947 53.6707 126.161 53.517 123.337C53.3633 120.513 52.1865 117.832 50.1944 115.769C48.2024 113.705 45.5232 112.391 42.6301 112.059L42.4489 111.484C42.0136 109.995 41.6901 108.477 41.4812 106.942C41.2503 105.393 41.1539 103.827 41.1929 102.261C41.2066 101.925 41.2272 101.627 41.2547 101.366C41.7488 101.217 42.243 101.074 42.7372 100.938L44.4462 104.08H102.774L104.611 100.69ZM41.1806 128.03C43.3961 128.03 45.2986 126.271 45.2986 123.972C45.2986 121.678 43.3961 119.915 41.1806 119.915C38.965 119.915 37.0625 121.674 37.0625 123.972C37.0625 126.267 38.965 128.03 41.1806 128.03Z" fill="#7AB99E"/>
</svg>
