<svg width="26" height="25" viewBox="0 0 26 25" fill="none" xmlns="http://www.w3.org/2000/svg">
<path d="M14.533 23.9163L24.7413 13.7079C24.9272 13.5138 25.0729 13.2848 25.1701 13.0342C25.3743 12.5371 25.3743 11.9796 25.1701 11.4825C25.0729 11.2319 24.9272 11.0029 24.7413 10.8088L14.533 0.600437C14.3426 0.410075 14.1167 0.259072 13.8679 0.156049C13.6192 0.053026 13.3526 0 13.0834 0C12.5397 0 12.0183 0.215984 11.6338 0.600437C11.2494 0.984891 11.0334 1.50632 11.0334 2.05002C11.0334 2.59372 11.2494 3.11515 11.6338 3.4996L18.3713 10.2167L2.87509 10.2167C2.33361 10.2167 1.8143 10.4318 1.43141 10.8147C1.04853 11.1976 0.833424 11.7169 0.833424 12.2584C0.833424 12.7998 1.04853 13.3191 1.43141 13.702C1.8143 14.0849 2.33361 14.3 2.87509 14.3L18.3713 14.3L11.6338 21.0171C11.4425 21.2069 11.2906 21.4327 11.1869 21.6815C11.0833 21.9303 11.0299 22.1972 11.0299 22.4667C11.0299 22.7362 11.0833 23.0031 11.1869 23.2519C11.2906 23.5007 11.4425 23.7265 11.6338 23.9163C11.8236 24.1076 12.0494 24.2595 12.2982 24.3632C12.547 24.4668 12.8139 24.5202 13.0834 24.5202C13.3529 24.5202 13.6198 24.4668 13.8686 24.3632C14.1174 24.2595 14.3432 24.1076 14.533 23.9163Z" fill="#444444"/>
</svg>
