<svg width="29" height="30" viewBox="0 0 29 30" fill="none" xmlns="http://www.w3.org/2000/svg">
<path d="M7.95446 9.04751C11.5879 9.71001 13.7533 11.0963 14.5 11.8925C15.2468 11.0963 17.4121 9.71001 21.0467 9.04751C22.887 8.71126 23.8078 8.54376 24.5908 9.18751C25.375 9.83001 25.375 10.875 25.375 12.965V20.4738C25.375 22.385 25.375 23.34 24.8723 23.9363C24.3685 24.5325 23.2616 24.735 21.0467 25.1388C19.0711 25.4988 17.5305 26.0725 16.4152 26.6488C15.3168 27.2163 14.7683 27.5 14.5 27.5M14.5 27.5C14.2318 27.5 13.682 27.2163 12.5848 26.65C11.4695 26.0725 9.92888 25.4988 7.95446 25.1375C5.73838 24.735 4.63154 24.5325 4.12767 23.9363C3.62379 23.34 3.625 22.385 3.625 20.4738V12.965C3.625 10.875 3.625 9.83001 4.40921 9.18751C5.19221 8.54376 6.11296 8.71251 7.95325 9.04751M14.5 27.5V11.25M10.2708 3.82376C11.5233 2.95876 12.9959 2.49815 14.5018 2.50037C16.0078 2.5026 17.4791 2.96756 18.7292 3.83626M16.4599 6.87501C15.8695 6.504 15.1925 6.30675 14.5017 6.30455C13.8109 6.30234 13.1327 6.49527 12.5401 6.86251" stroke="#FF2962" stroke-width="1.5" stroke-linecap="round" stroke-linejoin="round"/>
</svg>
