<svg width="167" height="136" viewBox="0 0 167 136" fill="none" xmlns="http://www.w3.org/2000/svg">
<path d="M34.0167 0C24.9979 0.00981599 16.3513 3.59445 9.9741 9.9674C3.59686 16.3403 0.00982259 24.9811 0 33.9938V101.981C0 120.721 15.258 135.975 34.0167 135.975C52.7753 135.975 68.0333 120.721 68.0333 101.981V70.4846L105.483 121.982C108.642 126.329 112.787 129.866 117.579 132.303C122.371 134.74 127.672 136.007 133.048 136C140.218 136.002 147.204 133.732 153.001 129.516V129.504C160.289 124.197 165.173 116.218 166.582 107.317C167.991 98.4157 165.809 89.3197 160.515 82.024L120.53 27.0158C115.222 19.7316 107.238 14.8499 98.3317 13.442C89.4252 12.0341 80.3235 14.2151 73.0245 19.5063C70.7384 21.1831 68.671 23.139 66.8706 25.3285C63.0236 10.7791 49.7818 0 34.0167 0ZM34.0167 12.3614C45.9534 12.3614 55.6636 22.0651 55.6636 33.9938V61.8069H12.3697V33.9938C12.3697 22.0651 22.0799 12.3614 34.0167 12.3614ZM92.9892 25.3717C96.4096 25.3669 99.7824 26.172 102.831 27.7212C105.88 29.2704 108.518 31.5196 110.529 34.2843L126.888 56.7759L91.8697 82.2218L75.4984 59.724C72.1285 55.0792 70.7405 49.2879 71.6392 43.6214C72.5378 37.9549 75.6497 32.8763 80.2917 29.5005C84.1263 26.7191 88.5794 25.3717 92.9892 25.3717ZM134.156 66.77L150.527 89.2801C153.891 93.9273 155.275 99.7178 154.376 105.383C153.476 111.048 150.366 116.126 145.727 119.504C141.082 122.87 135.289 124.257 129.622 123.36C123.954 122.463 118.874 119.356 115.496 114.72L99.1369 92.216L134.156 66.77ZM12.3697 74.1683H55.6636V101.981C55.6636 113.91 45.9534 123.614 34.0167 123.614C22.0799 123.614 12.3697 113.91 12.3697 101.981V74.1683Z" fill="#5B88C5"/>
</svg>
