<svg width="247" height="230" viewBox="0 0 247 230" fill="none" xmlns="http://www.w3.org/2000/svg">
<g clip-path="url(#clip0_243_3314)">
<path d="M270.833 192.311H-22.75V192.458H270.833V192.311Z" fill="#EBEBEB"/>
<path d="M241.417 201.772H221.97V201.919H241.417V201.772Z" fill="#EBEBEB"/>
<path d="M171.731 203.372H166.629V203.519H171.731V203.372Z" fill="#EBEBEB"/>
<path d="M221.382 196.316H193.392V196.463H221.382V196.316Z" fill="#EBEBEB"/>
<path d="M21.9568 197.304H8.05273V197.451H21.9568V197.304Z" fill="#EBEBEB"/>
<path d="M42.3609 197.304H27.1826V197.451H42.3609V197.304Z" fill="#EBEBEB"/>
<path d="M92.3988 199.785H54.4443V199.932H92.3988V199.785Z" fill="#EBEBEB"/>
<path d="M116.408 166.086H3.0324C2.14422 166.084 1.29295 165.73 0.66546 165.1C0.0379722 164.471 -0.314454 163.618 -0.314453 162.728V3.12213C-0.306721 2.23777 0.0491168 1.39217 0.67577 0.769009C1.30242 0.14585 2.14928 -0.20454 3.0324 -0.206055H116.408C117.298 -0.206055 118.15 0.14769 118.779 0.77736C119.408 1.40703 119.761 2.26104 119.761 3.15153V162.728C119.761 163.619 119.408 164.473 118.779 165.102C118.15 165.732 117.298 166.086 116.408 166.086ZM3.0324 -0.0884505C2.18315 -0.0868928 1.36922 0.25205 0.769258 0.853983C0.169298 1.45592 -0.167663 2.27165 -0.167661 3.12213V162.728C-0.167663 163.579 0.169298 164.394 0.769258 164.996C1.36922 165.598 2.18315 165.937 3.0324 165.939H116.408C117.258 165.937 118.073 165.598 118.674 164.997C119.275 164.395 119.613 163.579 119.614 162.728V3.12213C119.613 2.27111 119.275 1.45539 118.674 0.853624C118.073 0.251859 117.258 -0.0868961 116.408 -0.0884505H3.0324Z" fill="#EBEBEB"/>
<path d="M243.419 166.086H130.037C129.149 166.084 128.297 165.73 127.668 165.101C127.04 164.471 126.686 163.618 126.685 162.728V3.12213C126.694 2.23723 127.051 1.39164 127.679 0.768641C128.306 0.145644 129.154 -0.204556 130.037 -0.206055H243.419C244.301 -0.202994 245.147 0.148079 245.772 0.771073C246.397 1.39407 246.752 2.23878 246.76 3.12213V162.728C246.76 163.617 246.409 164.469 245.782 165.098C245.156 165.727 244.306 166.083 243.419 166.086ZM130.037 -0.0884505C129.187 -0.0868961 128.373 0.251859 127.772 0.853624C127.171 1.45539 126.833 2.27111 126.831 3.12213V162.728C126.833 163.579 127.171 164.395 127.772 164.997C128.373 165.598 129.187 165.937 130.037 165.939H243.419C244.269 165.937 245.084 165.598 245.684 164.997C246.285 164.395 246.624 163.579 246.625 162.728V3.12213C246.624 2.27111 246.285 1.45539 245.684 0.853624C245.084 0.251859 244.269 -0.0868961 243.419 -0.0884505H130.037Z" fill="#EBEBEB"/>
<path d="M236.431 15.0825H143.676V192.311H236.431V15.0825Z" fill="#EBEBEB"/>
<path d="M229.532 20.8625H150.576V192.311H229.532V20.8625Z" fill="#F5F5F5"/>
<path d="M201.16 35.0811H178.959V41.2259H201.16V35.0811Z" fill="white"/>
<path d="M211.16 96.1233H223.203C223.701 96.1233 224.179 96.3215 224.532 96.6744C224.884 97.0273 225.082 97.5059 225.082 98.0049C225.082 98.504 224.884 98.9826 224.532 99.3355C224.179 99.6884 223.701 99.8866 223.203 99.8866H211.16C210.662 99.8866 210.184 99.6884 209.832 99.3355C209.479 98.9826 209.281 98.504 209.281 98.0049C209.281 97.5059 209.479 97.0273 209.832 96.6744C210.184 96.3215 210.662 96.1233 211.16 96.1233Z" fill="white"/>
<path d="M80.2619 33.9402H18.5742V83.7277H80.2619V33.9402Z" fill="#EBEBEB"/>
<path d="M76.9453 80.4113V37.2566H21.8808V80.4113H76.9453Z" fill="#FAFAFA"/>
<path d="M70.5273 59.4014V57.3374H28.3042V59.4014H70.5273Z" fill="#E0E0E0"/>
<path d="M70.5273 64.0996V62.0356H28.3042V64.0996H70.5273Z" fill="#E0E0E0"/>
<path d="M70.5273 68.792V66.728H28.3042V68.792H70.5273Z" fill="#E0E0E0"/>
<path d="M59.9404 73.4905V71.4265H38.8905V73.4905H59.9404Z" fill="#E0E0E0"/>
<path d="M28.333 37.2566C28.333 38.1041 28.1656 38.9432 27.8405 39.7257C27.5154 40.5081 27.039 41.2185 26.4387 41.8158C25.8384 42.4132 25.1261 42.8857 24.3427 43.2063C23.5593 43.5269 22.7204 43.6891 21.8741 43.6837C20.7065 43.6865 19.5607 43.3671 18.5625 42.7605V33.9402H27.37C27.9871 34.937 28.3201 36.0839 28.333 37.2566Z" fill="#EBEBEB"/>
<path d="M80.2629 33.9402V42.7605C79.0354 43.4999 77.5961 43.8068 76.1742 43.6323C74.7524 43.4578 73.4297 42.812 72.4168 41.7976C71.4039 40.7832 70.759 39.4586 70.5848 38.0347C70.4105 36.6108 70.717 35.1695 71.4554 33.9402H80.2629Z" fill="#EBEBEB"/>
<path d="M28.3338 80.4171C28.3359 81.5837 28.0191 82.7285 27.4179 83.7277H18.6104V74.9074C19.5845 74.3232 20.6959 74.0081 21.8312 73.9941C22.9666 73.9802 24.0854 74.2678 25.0736 74.8278C26.0618 75.3877 26.8841 76.2 27.4568 77.1818C28.0296 78.1637 28.3322 79.28 28.3338 80.4171Z" fill="#EBEBEB"/>
<path d="M80.2626 74.9016V83.7219H71.4551C70.8492 82.7245 70.5302 81.5789 70.5332 80.4114C70.5344 79.2728 70.8372 78.1548 71.4105 77.1715C71.9838 76.1883 72.8072 75.3748 73.7968 74.8142C74.7864 74.2535 75.9067 73.9657 77.0436 73.98C78.1805 73.9943 79.2933 74.3103 80.2684 74.8958L80.2626 74.9016Z" fill="#EBEBEB"/>
<path d="M54.8142 48.6484C55.2979 45.664 53.2742 42.852 50.2941 42.3675C47.3141 41.8831 44.5061 43.9097 44.0224 46.8941C43.5386 49.8785 45.5623 52.6906 48.5424 53.175C51.5225 53.6594 54.3304 51.6328 54.8142 48.6484Z" fill="#E0E0E0"/>
<path d="M130.113 121.602H8.05273V126H130.113V121.602Z" fill="#EBEBEB"/>
<path d="M129.057 126H89.3994V192.311H129.057V126Z" fill="#F5F5F5"/>
<path d="M49.2188 126H9.56152V192.311H49.2188V126Z" fill="#F5F5F5"/>
<path d="M10.9179 126H9.56152V192.311H10.9179V126Z" fill="#EBEBEB"/>
<path d="M90.7558 126H89.3994V192.311H90.7558V126Z" fill="#EBEBEB"/>
<path d="M30.3883 111H23.0957L23.6829 121.602H29.8011L30.3883 111Z" fill="#F0F0F0"/>
<path d="M93.7028 117.004H55.6016V121.602H93.7028V117.004Z" fill="#F0F0F0"/>
<path d="M93.7087 117.545H76.1406V121.067H93.7087V117.545Z" fill="#FAFAFA"/>
<path d="M124.041 218.866C186.916 218.866 237.887 215.886 237.887 212.21C237.887 208.533 186.916 205.553 124.041 205.553C61.1658 205.553 10.1953 208.533 10.1953 212.21C10.1953 215.886 61.1658 218.866 124.041 218.866Z" fill="#F5F5F5"/>
<path d="M177.304 171.036C187.577 171.036 195.905 162.696 195.905 152.408C195.905 142.12 187.577 133.78 177.304 133.78C167.03 133.78 158.702 142.12 158.702 152.408C158.702 162.696 167.03 171.036 177.304 171.036Z" fill="white"/>
<path d="M177.303 171.266C173.579 171.267 169.937 170.162 166.84 168.091C163.742 166.019 161.328 163.074 159.902 159.629C158.476 156.183 158.102 152.391 158.828 148.733C159.554 145.074 161.347 141.714 163.98 139.076C166.613 136.438 169.969 134.641 173.621 133.913C177.274 133.185 181.061 133.558 184.502 134.985C187.943 136.412 190.884 138.829 192.954 141.931C195.023 145.032 196.128 148.678 196.128 152.408C196.123 157.407 194.138 162.2 190.609 165.735C187.08 169.271 182.295 171.26 177.303 171.266ZM177.303 134.015C173.669 134.015 170.117 135.094 167.095 137.116C164.074 139.138 161.719 142.012 160.329 145.374C158.938 148.737 158.575 152.436 159.284 156.006C159.994 159.575 161.744 162.853 164.314 165.426C166.884 167.999 170.158 169.751 173.722 170.46C177.287 171.17 180.981 170.804 184.338 169.411C187.695 168.017 190.564 165.658 192.582 162.632C194.6 159.605 195.677 156.047 195.676 152.408C195.671 147.53 193.734 142.854 190.289 139.405C186.844 135.957 182.174 134.018 177.303 134.015Z" fill="#AB8DCC"/>
<path d="M180.298 141.847H174.309V162.969H180.298V141.847Z" fill="#AB8DCC"/>
<path d="M187.849 155.413V149.415H166.758V155.413H187.849Z" fill="#AB8DCC"/>
<path d="M51.2977 11.5955L50.8984 11.1663C53.6165 8.59312 57.0654 6.92882 60.7687 6.40332L60.8509 6.99134C57.267 7.49751 53.9287 9.10642 51.2977 11.5955Z" fill="#AB8DCC"/>
<path d="M46.9523 18.0227L46.4062 17.811C46.999 16.313 47.7888 14.9011 48.7549 13.6125L49.2247 13.9654C48.2931 15.2123 47.5291 16.5764 46.9523 18.0227Z" fill="#AB8DCC"/>
<path d="M63.3335 40.5495C72.2319 40.5495 79.4454 33.3255 79.4454 24.4143C79.4454 15.503 72.2319 8.27905 63.3335 8.27905C54.4352 8.27905 47.2217 15.503 47.2217 24.4143C47.2217 33.3255 54.4352 40.5495 63.3335 40.5495Z" fill="#AB8DCC"/>
<path d="M72.958 17.1464C72.3374 16.5013 71.5947 15.9865 70.7732 15.6323C69.9516 15.278 69.0678 15.0913 68.1734 15.083C67.279 15.0748 66.3919 15.2453 65.5641 15.5844C64.7362 15.9236 63.9842 16.4246 63.3519 17.0582C62.7202 16.4248 61.9686 15.9239 61.1412 15.5848C60.3139 15.2457 59.4273 15.0753 58.5333 15.0835C57.6394 15.0917 56.7561 15.2784 55.935 15.6326C55.114 15.9868 54.3718 16.5015 53.7517 17.1464C52.5366 18.4627 51.882 20.2016 51.927 21.9936C51.9719 23.7856 52.7129 25.4894 53.9925 26.7429L61.6256 34.3871C61.8546 34.6165 62.1265 34.7984 62.4257 34.9226C62.725 35.0467 63.0456 35.1106 63.3695 35.1106C63.6934 35.1106 64.0141 35.0467 64.3133 34.9226C64.6125 34.7984 64.8844 34.6165 65.1134 34.3871L72.7466 26.7429C74.0221 25.4855 74.7577 23.7796 74.7972 21.9876C74.8367 20.1957 74.1769 18.4589 72.958 17.1464Z" fill="white"/>
<path d="M63.3341 31.4646C63.2158 31.4605 63.1014 31.4207 63.0061 31.3504C62.9107 31.2801 62.8388 31.1826 62.7998 31.0706L59.4001 21.1155L57.9792 25.2786C57.9388 25.3943 57.8633 25.4945 57.7633 25.5651C57.6633 25.6358 57.5437 25.6733 57.4213 25.6726H51.7317C51.576 25.6726 51.4266 25.6107 51.3165 25.5004C51.2064 25.3901 51.1445 25.2405 51.1445 25.0846C51.1445 24.9286 51.2064 24.7791 51.3165 24.6688C51.4266 24.5585 51.576 24.4966 51.7317 24.4966H57.0162L58.8599 19.1044C58.8998 18.9889 58.9747 18.8887 59.0742 18.8178C59.1736 18.7469 59.2927 18.7087 59.4148 18.7087C59.5369 18.7087 59.6559 18.7469 59.7554 18.8178C59.8548 18.8887 59.9297 18.9889 59.9697 19.1044L63.4281 29.236L66.7867 21.3154C66.8291 21.2144 66.8989 21.1274 66.9881 21.064C67.0773 21.0006 67.1824 20.9634 67.2916 20.9567C67.4016 20.9504 67.5111 20.9751 67.6076 21.0282C67.7042 21.0812 67.7839 21.1603 67.8377 21.2566L69.6109 24.4907H74.96C75.1157 24.4907 75.2651 24.5526 75.3752 24.6629C75.4853 24.7732 75.5472 24.9228 75.5472 25.0787C75.5472 25.2347 75.4853 25.3842 75.3752 25.4945C75.2651 25.6048 75.1157 25.6667 74.96 25.6667H69.2704C69.1653 25.6676 69.062 25.6402 68.9711 25.5875C68.8802 25.5347 68.8051 25.4585 68.7537 25.3668L67.3621 22.8736L63.8743 31.1059C63.8294 31.2122 63.7542 31.3029 63.6581 31.3667C63.562 31.4304 63.4494 31.4645 63.3341 31.4646Z" fill="#AB8DCC"/>
<path d="M152.73 191.606H91.4476C90.449 191.617 89.459 191.42 88.5406 191.027C87.6223 190.634 86.7955 190.054 86.1129 189.324C85.4304 188.594 84.9069 187.73 84.5759 186.787C84.2449 185.843 84.1135 184.841 84.1902 183.844L94.0957 36.8391C94.2687 34.7397 95.2149 32.7796 96.7503 31.3397C98.2858 29.8999 100.301 29.083 102.404 29.0478H163.698C164.7 29.0364 165.692 29.2342 166.613 29.6287C167.533 30.0232 168.362 30.6057 169.045 31.339C169.728 32.0722 170.25 32.9401 170.579 33.8872C170.909 34.8342 171.037 35.8396 170.956 36.8391L161.033 183.844C160.854 185.937 159.906 187.89 158.372 189.324C156.839 190.758 154.828 191.571 152.73 191.606Z" fill="#263238"/>
<path d="M166.317 88.9141H164.773C164.493 88.9175 164.216 88.8624 163.959 88.7523C163.702 88.6422 163.47 88.4795 163.28 88.2747C163.089 88.0699 162.943 87.8274 162.851 87.5629C162.76 87.2983 162.724 87.0175 162.747 86.7384L164.644 58.637C164.688 58.0493 164.95 57.4996 165.38 57.0967C165.809 56.6938 166.374 56.467 166.963 56.4613H168.507C168.787 56.4579 169.064 56.5131 169.321 56.6232C169.578 56.7333 169.809 56.8959 170 57.1008C170.191 57.3056 170.337 57.548 170.428 57.8126C170.52 58.0771 170.556 58.3579 170.533 58.637L168.636 86.7384C168.592 87.3261 168.329 87.8758 167.9 88.2787C167.47 88.6816 166.905 88.9084 166.317 88.9141Z" fill="#263238"/>
<path d="M93.2033 70.1678H91.6649C91.4373 70.1708 91.2115 70.1265 91.0019 70.0376C90.7923 69.9487 90.6034 69.8171 90.4472 69.6513C90.291 69.4855 90.1708 69.289 90.0944 69.0742C90.018 68.8595 89.987 68.6312 90.0032 68.4038L90.6902 58.2546C90.7336 57.7781 90.9512 57.3345 91.3012 57.0089C91.6513 56.6833 92.1091 56.4987 92.5868 56.4905H94.131C94.3579 56.4892 94.5826 56.5347 94.7911 56.6243C94.9996 56.7139 95.1875 56.8456 95.3429 57.0111C95.4982 57.1767 95.6179 57.3725 95.6943 57.5865C95.7707 57.8004 95.8022 58.0279 95.7868 58.2546L95.0998 68.4038C95.0578 68.8807 94.8405 69.3251 94.4902 69.6509C94.1399 69.9768 93.6814 70.1609 93.2033 70.1678Z" fill="#AB8DCC"/>
<path d="M91.9816 88.2909H90.4374C90.2102 88.2931 89.9851 88.2481 89.7762 88.1588C89.5673 88.0696 89.3791 87.9379 89.2235 87.7722C89.0679 87.6064 88.9483 87.4102 88.8723 87.1959C88.7962 86.9815 88.7653 86.7537 88.7815 86.5268L89.4685 76.3776C89.5119 75.9011 89.7295 75.4575 90.0795 75.1319C90.4296 74.8063 90.8874 74.6217 91.3651 74.6136H92.9211C93.148 74.6122 93.3727 74.6578 93.5812 74.7473C93.7897 74.8369 93.9775 74.9686 94.1329 75.1342C94.2883 75.2997 94.4079 75.4956 94.4843 75.7095C94.5607 75.9235 94.5922 76.1509 94.5769 76.3776L93.8899 86.5268C93.8476 87.0058 93.6287 87.4518 93.2759 87.7779C92.9231 88.104 92.4617 88.2869 91.9816 88.2909Z" fill="#AB8DCC"/>
<path d="M151.432 191.606H90.1497C89.1511 191.617 88.1612 191.42 87.2428 191.027C86.3244 190.634 85.4976 190.055 84.8151 189.325C84.1325 188.595 83.6091 187.73 83.2781 186.787C82.9471 185.843 82.8157 184.841 82.8923 183.844L92.8037 36.8392C92.9828 34.739 93.9355 32.7806 95.4766 31.3449C97.0177 29.9092 99.0369 29.0989 101.141 29.0715H162.401C163.4 29.0603 164.39 29.2576 165.309 29.6506C166.228 30.0437 167.055 30.6241 167.737 31.3547C168.42 32.0854 168.943 32.9503 169.274 33.8946C169.605 34.8388 169.735 35.8416 169.658 36.8392L159.741 183.844C159.562 185.939 158.613 187.892 157.078 189.326C155.543 190.76 153.531 191.573 151.432 191.606Z" fill="#AB8DCC"/>
<path opacity="0.3" d="M83.5381 182.197L93.2146 38.7444H168.994L159.318 182.197H83.5381Z" fill="white"/>
<path opacity="0.1" d="M113.455 182.197L140.5 38.7444H157.475L130.43 182.197H113.455Z" fill="white"/>
<path opacity="0.1" d="M100.631 182.197L127.676 38.7444H136.278L109.233 182.197H100.631Z" fill="white"/>
<path d="M124.123 32.6759H138.902C139.025 32.6738 139.147 32.6977 139.261 32.746C139.375 32.7943 139.477 32.8659 139.561 32.9563C139.645 33.0466 139.709 33.1537 139.749 33.2705C139.79 33.3873 139.805 33.5113 139.794 33.6344C139.774 33.8935 139.658 34.1357 139.469 34.3139C139.28 34.4922 139.032 34.5937 138.772 34.5987H123.993C123.87 34.6 123.747 34.5754 123.634 34.5264C123.52 34.4775 123.418 34.4053 123.334 34.3144C123.25 34.2236 123.186 34.1162 123.146 33.9991C123.106 33.882 123.09 33.7577 123.101 33.6344C123.121 33.3759 123.237 33.1343 123.426 32.957C123.615 32.7797 123.864 32.6795 124.123 32.6759Z" fill="white"/>
<path d="M121.047 205.747L115.868 206.241L114.001 194.275L119.18 193.775L121.047 205.747Z" fill="#FFB573"/>
<path d="M115.275 203.707L120.701 202.02C120.794 201.987 120.897 201.992 120.986 202.034C121.076 202.075 121.146 202.15 121.182 202.243L122.944 206.553C122.987 206.669 123.007 206.792 123 206.915C122.994 207.039 122.963 207.16 122.907 207.27C122.852 207.381 122.775 207.478 122.68 207.557C122.585 207.636 122.475 207.695 122.356 207.729C120.395 208.317 118.528 208.452 116.162 209.493C113.396 210.669 112.239 212.245 109.263 212.245C107.131 212.245 106.65 210.287 107.554 210.017C111.664 208.77 111.124 207.747 114.107 204.53C114.417 204.158 114.82 203.874 115.275 203.707Z" fill="#263238"/>
<path opacity="0.2" d="M114.001 194.275L114.964 200.449L120.149 199.95L119.186 193.775L114.001 194.275Z" fill="black"/>
<path d="M117.747 43.0723C110.953 42.2726 104.195 42.8077 97.4131 44.1249C96.283 44.3446 95.2521 44.9189 94.4698 45.7647C93.6876 46.6105 93.1945 47.6838 93.0622 48.829C92.3283 55.3325 91.4886 69.9095 94.765 91.6544L122.526 89.3024C122.579 85.3568 119.778 67.381 122.092 48.7291C122.186 48.0706 122.148 47.3999 121.98 46.7564C121.812 46.1129 121.516 45.5097 121.111 44.9825C120.706 44.4552 120.2 44.0145 119.622 43.6864C119.044 43.3584 118.406 43.1496 117.747 43.0723Z" fill="white"/>
<path d="M101.582 48.6465L102.574 50.634C102.621 50.7343 102.694 50.8194 102.787 50.8797C102.879 50.9401 102.987 50.9731 103.097 50.975L104.171 51.0338C104.363 51.0422 104.552 50.984 104.706 50.8692L106.555 49.4873L104.271 47.8232L101.582 48.6465Z" fill="#263238"/>
<path d="M104.207 50.4635C103.815 50.2818 103.372 50.2463 102.956 50.3635C102.081 53.4506 101.124 62.3121 101.024 66.24C103.678 73.9842 104.547 74.7663 104.547 74.7663L105.892 65.4462C105.892 65.4462 104.383 55.9144 104.207 50.4635Z" fill="#263238"/>
<path d="M111.869 29.6653C111.235 33.4992 110.695 40.5025 113.443 42.978C111.429 45.0949 108.792 47.5469 104.271 47.8233C99.75 48.0997 100.449 44.9655 101.594 43.2897C105.815 42.1607 105.61 39.0089 104.782 36.0629L111.869 29.6653Z" fill="#FFB573"/>
<path d="M114.594 42.6429C114.274 42.5046 113.942 42.3963 113.602 42.3195C113.518 42.2975 113.43 42.3033 113.351 42.3363C113.271 42.3692 113.205 42.4273 113.161 42.5018C112.727 43.2427 111.4 46.5532 104.271 47.8234C105.446 48.5172 107.002 50.6694 107.671 51.7043C109.808 50.5929 115.369 47.2706 114.84 42.9722C114.83 42.9012 114.802 42.834 114.759 42.7765C114.715 42.719 114.659 42.6732 114.594 42.6429Z" fill="#F5F5F5"/>
<path d="M101.635 43.466C101.65 43.3991 101.648 43.3295 101.63 43.2635C101.611 43.1975 101.576 43.1373 101.528 43.0882C101.48 43.0391 101.421 43.0028 101.356 42.9825C101.29 42.9622 101.221 42.9586 101.154 42.9721C100.907 43.0201 100.664 43.0849 100.426 43.1661C100.371 43.1877 100.319 43.2174 100.273 43.2543C99.7268 43.76 96.7499 48.0643 99.539 51.5454C100.126 50.5987 102.152 48.4524 104.272 47.8232C102.263 46.9177 101.277 45.2301 101.635 43.466Z" fill="#F5F5F5"/>
<path opacity="0.2" d="M108.98 32.2761L104.788 36.063C104.99 36.7469 105.132 37.4474 105.211 38.1563C106.831 37.8799 109.01 36.0394 109.127 34.3342C109.207 33.645 109.157 32.947 108.98 32.2761Z" fill="black"/>
<path d="M103.378 18.0754C99.7613 19.4925 99.5264 22.4679 99.8552 25.7196C100.184 28.9714 103.719 26.8192 104.506 24.7847C105.292 22.7501 108.387 16.1114 103.378 18.0754Z" fill="#263238"/>
<path d="M114.917 24.5612C113.913 29.6829 113.578 32.7229 110.654 35.0809C106.245 38.609 100.273 35.5631 99.7446 30.2827C99.269 25.5256 100.989 17.9343 106.256 16.4525C107.405 16.1138 108.622 16.0811 109.787 16.3577C110.952 16.6342 112.025 17.2104 112.9 18.0293C113.774 18.8482 114.42 19.8815 114.774 21.0271C115.128 22.1726 115.177 23.3908 114.917 24.5612Z" fill="#FFB573"/>
<path d="M114.706 28.8009C110.402 29.0302 111.312 26.5841 112.093 25.1787C112.874 23.7734 111.283 21.4507 112.322 20.2452C110.466 20.9861 108.511 20.3746 106.027 18.6458C104.102 17.2993 101.688 22.6796 99.3396 19.9806C97.1201 17.4345 99.1811 13.5947 104.513 12.9773C109.844 12.3599 110.813 16.135 114.312 15.7998C117.812 15.4646 116.596 18.3518 115.909 18.9398C118.845 19.1339 120.448 21.9446 114.706 28.8009Z" fill="#263238"/>
<path d="M115.233 19.2987C115.907 18.9288 116.469 18.3855 116.863 17.7249C117.256 17.0642 117.466 16.3104 117.471 15.5413C118.633 17.5817 118.51 19.8985 115.233 19.2987Z" fill="#263238"/>
<path d="M104.078 30.0299C104.545 30.111 105.025 30.0966 105.487 29.9874C105.949 29.8783 106.384 29.6767 106.767 29.3949C106.778 29.3839 106.788 29.3707 106.794 29.356C106.8 29.3413 106.803 29.3256 106.803 29.3096C106.803 29.2937 106.8 29.2779 106.794 29.2632C106.788 29.2486 106.778 29.2353 106.767 29.2243C106.744 29.2024 106.713 29.1902 106.682 29.1902C106.65 29.1902 106.619 29.2024 106.597 29.2243C106.168 29.5283 105.676 29.7285 105.157 29.8091C104.638 29.8897 104.108 29.8486 103.608 29.6889C103.576 29.6809 103.542 29.6849 103.513 29.7001C103.484 29.7152 103.461 29.7405 103.449 29.7712C103.44 29.8024 103.444 29.8359 103.459 29.8646C103.474 29.8932 103.501 29.9146 103.532 29.9241C103.71 29.9757 103.893 30.0111 104.078 30.0299Z" fill="#263238"/>
<path d="M115.955 30.3711C115.151 31.4087 113.973 32.0886 112.673 32.2645C110.964 32.4879 110.395 30.8944 111.111 29.4067C111.763 28.066 113.46 26.3373 115.033 26.8018C116.607 27.2663 116.942 29.0774 115.955 30.3711Z" fill="#FFB573"/>
<path d="M114.259 141.724C114.464 126.371 116.425 89.802 116.425 89.802L94.7822 91.6307C94.7822 91.6307 99.0862 129.317 101.681 144.982C104.382 161.264 112.667 199.409 112.667 199.409L121.475 198.656C121.475 198.656 118.257 153.596 114.259 141.724Z" fill="#263238"/>
<path d="M112.139 199.65L122.585 198.762L122.174 195.386L111.288 196.116L112.139 199.65Z" fill="#AB8DCC"/>
<path d="M107.202 24.8671C107.149 25.2846 106.879 25.6021 106.614 25.5727C106.35 25.5433 106.168 25.1788 106.227 24.7554C106.286 24.332 106.55 24.0204 106.814 24.0498C107.078 24.0792 107.26 24.4496 107.202 24.8671Z" fill="#263238"/>
<path d="M102.41 24.4908C102.357 24.9142 102.087 25.2259 101.822 25.1965C101.558 25.1671 101.376 24.8025 101.435 24.385C101.494 23.9675 101.758 23.65 102.022 23.6794C102.286 23.7088 102.468 24.0498 102.41 24.4908Z" fill="#263238"/>
<path d="M103.76 24.9846C103.053 26.0728 102.204 27.0615 101.235 27.9247C101.858 28.5774 103.144 28.401 103.144 28.401L103.76 24.9846Z" fill="#ED893E"/>
<path opacity="0.4" d="M99.3808 24.5967C99.2927 25.267 99.9679 25.8256 100.902 25.9432C101.835 26.0608 102.698 25.5493 102.78 24.8789" fill="#AB8DCC"/>
<path opacity="0.4" d="M104.929 25.2197C104.8 25.8842 105.452 26.484 106.368 26.6604C107.284 26.8368 108.182 26.3664 108.306 25.7078" fill="#AB8DCC"/>
<path d="M106.731 26.8429C106.626 26.8488 106.52 26.8488 106.414 26.8429C105.963 26.7889 105.539 26.5981 105.199 26.2961C105.05 26.169 104.934 26.0083 104.861 25.8272C104.787 25.6461 104.758 25.45 104.776 25.2553C104.478 25.1253 104.16 25.0458 103.836 25.0201C103.511 24.9386 103.17 24.9386 102.844 25.0201C102.762 25.7374 101.869 26.2314 100.871 26.1079C100.42 26.0585 99.995 25.8694 99.6558 25.5669C99.5082 25.4393 99.3929 25.2784 99.3194 25.0975C99.2459 24.9165 99.2163 24.7207 99.2331 24.5261L99.5149 24.5614C99.5031 24.7118 99.5272 24.8628 99.5855 25.0019C99.6437 25.141 99.7342 25.2642 99.8496 25.3611C100.145 25.6218 100.515 25.7841 100.907 25.8256C101.752 25.9374 102.504 25.5434 102.58 24.9554C102.621 24.6261 103.302 24.6496 103.866 24.7202C104.429 24.7907 105.099 24.9495 105.04 25.2729C105.028 25.4233 105.052 25.5745 105.11 25.7137C105.168 25.8529 105.259 25.976 105.375 26.0726C105.674 26.3299 106.042 26.4937 106.434 26.5438C106.825 26.594 107.222 26.5283 107.577 26.3549C107.713 26.2911 107.833 26.1953 107.925 26.0755C108.017 25.9558 108.079 25.8156 108.105 25.6669V25.5258L115.351 26.4607L115.316 26.743L108.34 25.8433C108.289 26.007 108.206 26.1586 108.095 26.289C107.984 26.4194 107.848 26.5258 107.694 26.6018C107.397 26.7591 107.067 26.8418 106.731 26.8429Z" fill="#263238"/>
<path d="M109.045 23.0207C109.087 23.0208 109.128 23.0085 109.163 22.9854C109.22 22.9521 109.262 22.8978 109.279 22.834C109.297 22.7703 109.289 22.7022 109.257 22.6443C109.075 22.3023 108.811 22.0106 108.49 21.7952C108.168 21.5798 107.798 21.4473 107.413 21.4095C107.347 21.4062 107.282 21.4291 107.233 21.473C107.183 21.517 107.153 21.5787 107.149 21.6447C107.146 21.7092 107.168 21.7725 107.211 21.8209C107.253 21.8692 107.313 21.8989 107.378 21.9034C107.682 21.9392 107.974 22.049 108.227 22.2232C108.479 22.3974 108.686 22.6308 108.828 22.9031C108.85 22.9405 108.882 22.9712 108.92 22.9919C108.959 23.0126 109.002 23.0225 109.045 23.0207Z" fill="#263238"/>
<path d="M100.86 22.3563C100.9 22.3603 100.941 22.3543 100.979 22.339C101.017 22.3236 101.051 22.2993 101.077 22.2681C101.267 22.0191 101.512 21.8181 101.794 21.6813C102.075 21.5445 102.385 21.4756 102.698 21.4802C102.73 21.4834 102.763 21.4802 102.794 21.4707C102.825 21.4612 102.854 21.4456 102.879 21.4248C102.904 21.404 102.925 21.3785 102.94 21.3496C102.955 21.3208 102.965 21.2892 102.968 21.2567C102.972 21.225 102.97 21.1928 102.961 21.162C102.953 21.1312 102.938 21.1023 102.918 21.0772C102.899 21.052 102.874 21.031 102.846 21.0154C102.819 20.9998 102.788 20.9898 102.756 20.9862C102.362 20.9759 101.97 21.0583 101.614 21.2268C101.257 21.3952 100.944 21.6452 100.701 21.9564C100.659 22.0064 100.639 22.071 100.644 22.136C100.65 22.201 100.681 22.2612 100.731 22.3034C100.769 22.331 100.813 22.3491 100.86 22.3563Z" fill="#263238"/>
<path d="M132.291 139.248C127.799 116.128 126.789 98.046 122.526 89.2668L101.559 91.6189C101.559 91.6189 114.048 126.071 120.148 140.777C126.484 156.066 138.99 182.186 138.99 182.186H149.466C149.466 182.186 139.689 149.78 132.291 139.248Z" fill="#263238"/>
<path d="M65.8296 51.7218L63.5632 50.2871C63.1953 50.0497 62.7565 49.9475 62.3218 49.9979C61.8871 50.0483 61.4833 50.2482 61.1793 50.5634L59.6409 52.1864C59.4752 52.3615 59.3472 52.5688 59.2647 52.7955C59.1822 53.0222 59.147 53.2635 59.1613 53.5043C59.1756 53.7451 59.2391 53.9805 59.3479 54.1958C59.4566 54.4111 59.6083 54.6018 59.7936 54.756L60.8916 55.6968C61.8466 56.5073 62.9608 57.1083 64.1621 57.4609L67.4796 58.4429L69.658 56.0908C70.3215 53.6388 65.8296 51.7218 65.8296 51.7218Z" fill="#FFB573"/>
<path d="M99.38 50.6223C98.558 52.6333 97.7536 54.5032 96.8787 56.4142C96.0038 58.3253 95.1172 60.2129 94.1366 62.0886C93.156 63.9644 92.1109 65.8284 90.9248 67.6983C90.3376 68.6274 89.6859 69.5565 88.946 70.4914C88.1507 71.5223 87.245 72.4629 86.2451 73.2963C85.5849 73.8366 84.8564 74.2874 84.0784 74.637C83.8318 74.731 83.6028 74.8251 83.3327 74.9074L82.9217 75.0192C82.7149 75.07 82.5051 75.1073 82.2934 75.1309C81.5777 75.2116 80.8532 75.1598 80.1562 74.978C79.2847 74.7337 78.4566 74.3548 77.7018 73.8549C77.1365 73.5016 76.5969 73.1086 76.0871 72.6789C74.3925 71.1972 72.8306 69.5701 71.4191 67.8159C70.051 66.1695 68.7593 64.5171 67.5203 62.8295C66.2814 61.1419 65.0895 59.4837 63.8682 57.7138L70.3622 53.5153C72.4116 56.8283 74.6792 60.0008 77.1499 63.0118C78.2856 64.4065 79.5368 65.7028 80.8901 66.8869C81.1523 67.1017 81.4289 67.2982 81.718 67.4749C81.9353 67.6219 82.1525 67.6807 81.9999 67.6278C81.7934 67.5709 81.5772 67.5589 81.3657 67.5925C81.2803 67.6004 81.1958 67.6161 81.1132 67.6395H81.0663C81.0369 67.6395 81.0369 67.6395 81.031 67.6395C81.1646 67.5522 81.2921 67.4559 81.4127 67.3514C81.9487 66.8642 82.4345 66.3245 82.863 65.7402C83.3621 65.0699 83.8612 64.3172 84.3368 63.5352C85.3089 61.9091 86.1948 60.2329 86.9908 58.5135C87.8128 56.7494 88.6055 54.9854 89.3394 53.1508C90.0734 51.3161 90.7721 49.4521 91.3652 47.6704L99.38 50.6223Z" fill="#AB8DCC"/>
<g opacity="0.6">
<path d="M99.38 50.6223C98.558 52.6333 97.7536 54.5032 96.8787 56.4142C96.0038 58.3253 95.1172 60.2129 94.1366 62.0886C93.156 63.9644 92.1109 65.8284 90.9248 67.6983C90.3376 68.6274 89.6859 69.5565 88.946 70.4914C88.1507 71.5223 87.245 72.4629 86.2451 73.2963C85.5849 73.8366 84.8564 74.2874 84.0784 74.637C83.8318 74.731 83.6028 74.8251 83.3327 74.9074L82.9217 75.0192C82.7149 75.07 82.5051 75.1073 82.2934 75.1309C81.5777 75.2116 80.8532 75.1598 80.1562 74.978C79.2847 74.7337 78.4566 74.3548 77.7018 73.8549C77.1365 73.5016 76.5969 73.1086 76.0871 72.6789C74.3925 71.1972 72.8306 69.5701 71.4191 67.8159C70.051 66.1695 68.7593 64.5171 67.5203 62.8295C66.2814 61.1419 65.0895 59.4837 63.8682 57.7138L70.3622 53.5153C72.4116 56.8283 74.6792 60.0008 77.1499 63.0118C78.2856 64.4065 79.5368 65.7028 80.8901 66.8869C81.1523 67.1017 81.4289 67.2982 81.718 67.4749C81.9353 67.6219 82.1525 67.6807 81.9999 67.6278C81.7934 67.5709 81.5772 67.5589 81.3657 67.5925C81.2803 67.6004 81.1958 67.6161 81.1132 67.6395H81.0663C81.0369 67.6395 81.0369 67.6395 81.031 67.6395C81.1646 67.5522 81.2921 67.4559 81.4127 67.3514C81.9487 66.8642 82.4345 66.3245 82.863 65.7402C83.3621 65.0699 83.8612 64.3172 84.3368 63.5352C85.3089 61.9091 86.1948 60.2329 86.9908 58.5135C87.8128 56.7494 88.6055 54.9854 89.3394 53.1508C90.0734 51.3161 90.7721 49.4521 91.3652 47.6704L99.38 50.6223Z" fill="white"/>
</g>
<path d="M114.752 41.5962C112.551 45.7123 104.712 61.3948 103.761 71.0736C100.291 62.2533 101.048 42.7428 101.048 42.7428C98.5748 42.9843 96.1488 43.5783 93.8434 44.5069C93.1005 44.8126 92.4565 45.3183 91.9829 45.9681C91.5093 46.6178 91.2245 47.3861 91.1601 48.1879C90.4843 58.2832 90.8029 68.4205 92.1113 78.4532C94.548 97.4463 96.8086 126.982 96.8086 126.982C96.8086 126.982 116.214 126.171 131.187 123.007C129.361 108.489 123.114 84.157 123.055 77.6418C122.985 69.2566 123.178 52.8627 123.443 46.0181C123.487 45.0518 123.184 44.1014 122.59 43.339C121.996 42.5765 121.148 42.0522 120.201 41.8608C118.405 41.5275 116.572 41.4385 114.752 41.5962Z" fill="#AB8DCC"/>
<path opacity="0.7" d="M114.752 41.5961C112.551 45.7122 104.712 61.3947 103.761 71.0735C100.291 62.2532 101.048 42.7427 101.048 42.7427C98.5748 42.9841 96.1488 43.5781 93.8434 44.5068C93.1005 44.8125 92.4565 45.3182 91.9829 45.9679C91.5093 46.6176 91.2245 47.386 91.1601 48.1878C90.4843 58.283 90.8029 68.4204 92.1113 78.4531C94.548 97.4461 96.8086 126.982 96.8086 126.982C96.8086 126.982 116.214 126.171 131.187 123.007C129.361 108.489 123.114 84.1569 123.055 77.6416C122.985 69.2565 123.178 52.8567 123.443 46.0121C123.498 45.0752 123.222 44.1486 122.662 43.3957C122.102 42.6428 121.296 42.1117 120.383 41.896C118.53 41.5321 116.634 41.4312 114.752 41.5961Z" fill="white"/>
<path d="M110.178 123.831C106.808 105.208 104.136 77.8827 103.919 74.5957H104.218C104.436 77.8827 107.113 105.173 110.478 123.795L110.178 123.831Z" fill="white"/>
<path d="M108.499 90.7017H90.6018C90.2404 90.6853 89.894 90.5522 89.6146 90.3221C89.3351 90.0921 89.1376 89.7776 89.0517 89.4257L83.0684 61.5712C83.0246 61.4191 83.0175 61.2588 83.0476 61.1035C83.0777 60.9481 83.1443 60.8022 83.2417 60.6776C83.3392 60.553 83.4648 60.4534 83.6082 60.3869C83.7516 60.3204 83.9087 60.289 84.0666 60.2952H101.958C102.32 60.3103 102.668 60.4429 102.948 60.673C103.229 60.9031 103.427 61.2184 103.514 61.5712L109.497 89.4257C109.541 89.5777 109.548 89.738 109.518 89.8934C109.487 90.0487 109.421 90.1947 109.324 90.3193C109.226 90.4438 109.1 90.5435 108.957 90.61C108.814 90.6764 108.657 90.7079 108.499 90.7017Z" fill="white"/>
<path d="M107.941 90.9368H89.7388C89.3708 90.9197 89.0182 90.7839 88.7336 90.5497C88.449 90.3155 88.2475 89.9955 88.1593 89.6373L82.0704 61.3124C82.0268 61.1572 82.0204 60.9939 82.0519 60.8357C82.0833 60.6776 82.1516 60.5291 82.2512 60.4024C82.3508 60.2757 82.4789 60.1744 82.625 60.1067C82.7711 60.039 82.9312 60.0069 83.0921 60.0129H101.294C101.662 60.0301 102.015 60.1659 102.299 60.4C102.584 60.6342 102.786 60.9543 102.874 61.3124L108.957 89.6373C109.002 89.7921 109.009 89.9553 108.978 90.1136C108.948 90.2718 108.88 90.4205 108.781 90.5474C108.682 90.6743 108.554 90.7758 108.408 90.8435C108.262 90.9112 108.102 90.9432 107.941 90.9368Z" fill="#AB8DCC"/>
<path d="M110.025 74.9546L105.498 74.784C104.954 74.7653 104.412 74.8614 103.907 75.0663L101.558 76.0071C101.338 76.0945 101.137 76.2256 100.969 76.3924C100.8 76.5592 100.667 76.7584 100.577 76.978C100.487 77.1976 100.442 77.4331 100.445 77.6705C100.449 77.9078 100.5 78.142 100.595 78.3592L101.535 80.3937C101.724 80.7883 102.044 81.1055 102.439 81.2918C102.835 81.4782 103.283 81.5224 103.707 81.4169L106.297 80.7701C106.297 80.7701 111.158 80.382 111.334 77.83L110.025 74.9546Z" fill="#FFB573"/>
<path d="M122.527 44.1189C123.648 45.883 124.676 47.4941 125.686 49.2229C126.695 50.9517 127.688 52.6628 128.621 54.4504C129.555 56.238 130.442 58.0843 131.246 60.0601C131.664 61.0948 132.021 62.153 132.315 63.2295C132.693 64.5415 132.867 65.904 132.831 67.2692V67.4985C132.833 67.5377 132.833 67.577 132.831 67.6161C132.831 67.8278 132.773 68.0395 132.731 68.2512C132.69 68.4629 132.638 68.6275 132.579 68.8392C132.52 69.0509 132.456 69.1626 132.391 69.3273C132.167 69.836 131.878 70.3142 131.534 70.7503C131.054 71.3506 130.508 71.895 129.907 72.3732C128.984 73.1017 128.002 73.7527 126.971 74.3195C125.159 75.3121 123.293 76.2033 121.382 76.9891C119.532 77.7771 117.688 78.4945 115.833 79.1707C113.977 79.8469 112.151 80.4996 110.22 81.1464L107.982 73.7374C109.744 73.2552 111.541 72.6613 113.296 72.0615C115.052 71.4618 116.819 70.7914 118.487 70.0917C120.123 69.4147 121.719 68.643 123.266 67.7808C123.919 67.4183 124.542 67.0034 125.128 66.5401C125.282 66.4231 125.42 66.2868 125.539 66.1343C125.488 66.1913 125.448 66.2571 125.421 66.3284C125.421 66.3813 125.392 66.4166 125.363 66.4813C125.339 66.5503 125.322 66.6211 125.31 66.6929C125.285 66.7833 125.269 66.8759 125.263 66.9693C125.263 67.0046 125.263 67.0105 125.263 66.9987V66.9575C125.222 66.3996 125.113 65.8487 124.94 65.317C124.705 64.5471 124.427 63.7913 124.106 63.0531C123.388 61.4255 122.577 59.8411 121.675 58.3078C120.759 56.7319 119.784 55.156 118.739 53.6036C117.694 52.0513 116.626 50.5048 115.551 49.0935L122.527 44.1189Z" fill="#AB8DCC"/>
<g opacity="0.7">
<path d="M122.527 44.1189C123.648 45.883 124.676 47.4941 125.686 49.2229C126.695 50.9517 127.688 52.6628 128.621 54.4504C129.555 56.238 130.442 58.0843 131.246 60.0601C131.664 61.0948 132.021 62.153 132.315 63.2295C132.693 64.5415 132.867 65.904 132.831 67.2692V67.4985C132.833 67.5377 132.833 67.577 132.831 67.6161C132.831 67.8278 132.773 68.0395 132.731 68.2512C132.69 68.4629 132.638 68.6275 132.579 68.8392C132.52 69.0509 132.456 69.1626 132.391 69.3273C132.167 69.836 131.878 70.3142 131.534 70.7503C131.054 71.3506 130.508 71.895 129.907 72.3732C128.984 73.1017 128.002 73.7527 126.971 74.3195C125.159 75.3121 123.293 76.2033 121.382 76.9891C119.532 77.7771 117.688 78.4945 115.833 79.1707C113.977 79.8469 112.151 80.4996 110.22 81.1464L107.982 73.7374C109.744 73.2552 111.541 72.6613 113.296 72.0615C115.052 71.4618 116.819 70.7914 118.487 70.0917C120.123 69.4147 121.719 68.643 123.266 67.7808C123.919 67.4183 124.542 67.0034 125.128 66.5401C125.282 66.4231 125.42 66.2868 125.539 66.1343C125.488 66.1913 125.448 66.2571 125.421 66.3284C125.421 66.3813 125.392 66.4166 125.363 66.4813C125.339 66.5503 125.322 66.6211 125.31 66.6929C125.285 66.7833 125.269 66.8759 125.263 66.9693C125.263 67.0046 125.263 67.0105 125.263 66.9987V66.9575C125.222 66.3996 125.113 65.8487 124.94 65.317C124.705 64.5471 124.427 63.7913 124.106 63.0531C123.388 61.4255 122.577 59.8411 121.675 58.3078C120.759 56.7319 119.784 55.156 118.739 53.6036C117.694 52.0513 116.626 50.5048 115.551 49.0935L122.527 44.1189Z" fill="white"/>
</g>
<path d="M116.584 64.523C116.545 64.5225 116.507 64.512 116.473 64.4924C116.439 64.4728 116.411 64.4449 116.391 64.4113C116.373 64.3856 116.361 64.3567 116.356 64.3263C116.35 64.2959 116.35 64.2647 116.357 64.2345C116.363 64.2043 116.376 64.1757 116.394 64.1505C116.412 64.1253 116.435 64.104 116.461 64.0878L117.377 63.4998C118.232 62.9598 118.903 62.1726 119.301 61.2423C119.7 60.312 119.807 59.2825 119.608 58.29L117.764 48.9405C117.63 48.2414 117.263 47.6084 116.724 47.1437C116.186 46.6791 115.506 46.4101 114.796 46.3802C114.085 46.3502 113.386 46.5612 112.81 46.9788C112.234 47.3965 111.816 47.9965 111.623 48.6817L109.01 57.849C108.724 58.818 108.74 59.851 109.055 60.8109C109.369 61.7709 109.968 62.6123 110.771 63.2235L111.64 63.882C111.689 63.9203 111.721 63.9765 111.729 64.0382C111.736 64.0999 111.719 64.1621 111.681 64.2113C111.663 64.2354 111.64 64.2556 111.614 64.2707C111.588 64.2858 111.559 64.2956 111.529 64.2994C111.499 64.3032 111.468 64.301 111.439 64.293C111.41 64.2849 111.382 64.2712 111.358 64.2525L110.536 63.5998C109.653 62.9339 108.994 62.0149 108.644 60.9647C108.295 59.9144 108.273 58.7827 108.581 57.7196L111.2 48.5524C111.425 47.7696 111.906 47.0851 112.565 46.6089C113.225 46.1326 114.026 45.8921 114.838 45.926C115.651 45.9599 116.429 46.2663 117.047 46.7958C117.665 47.3254 118.087 48.0476 118.246 48.8464L120.09 58.2018C120.307 59.2861 120.191 60.411 119.756 61.4275C119.321 62.444 118.587 63.3041 117.653 63.8938L116.731 64.4818C116.711 64.4983 116.687 64.5104 116.662 64.5175C116.637 64.5245 116.61 64.5264 116.584 64.523Z" fill="#263238"/>
<path d="M117.993 49.1347L111.399 48.8584C111.368 48.8569 111.338 48.8493 111.31 48.836C111.282 48.8228 111.257 48.8042 111.236 48.7812C111.216 48.7583 111.2 48.7315 111.189 48.7023C111.179 48.6732 111.175 48.6423 111.176 48.6114C111.182 48.5501 111.21 48.4931 111.256 48.4518C111.302 48.4104 111.361 48.3877 111.423 48.3879L118.011 48.6643C118.042 48.6658 118.072 48.6734 118.1 48.6866C118.128 48.6999 118.153 48.7185 118.173 48.7414C118.194 48.7644 118.21 48.7912 118.221 48.8203C118.231 48.8495 118.235 48.8804 118.234 48.9113C118.233 48.9419 118.226 48.9721 118.214 49C118.201 49.0279 118.183 49.0531 118.161 49.0739C118.138 49.0947 118.112 49.1108 118.083 49.1213C118.054 49.1317 118.024 49.1363 117.993 49.1347Z" fill="#263238"/>
<path d="M114.788 46.3943C114.727 46.3929 114.669 46.3685 114.625 46.3259C114.582 46.2834 114.556 46.2259 114.553 46.165C114.553 44.989 114.189 42.9485 113.091 42.5016C113.06 42.4914 113.032 42.4751 113.009 42.4536C112.985 42.4322 112.966 42.4061 112.952 42.3769C112.939 42.3477 112.931 42.3161 112.931 42.284C112.93 42.252 112.936 42.22 112.948 42.1903C112.96 42.1605 112.978 42.1336 113.001 42.1111C113.024 42.0885 113.051 42.0709 113.081 42.0593C113.111 42.0477 113.143 42.0424 113.175 42.0436C113.207 42.0449 113.238 42.0527 113.267 42.0665C114.893 42.7369 115.028 45.8063 115.028 46.1826C115.029 46.2446 115.005 46.3042 114.962 46.3491C114.919 46.394 114.861 46.4207 114.799 46.4237L114.788 46.3943Z" fill="#263238"/>
<path d="M94.6183 54.3855H94.5714C94.5108 54.3728 94.4577 54.3366 94.4236 54.2848C94.3895 54.2331 94.3772 54.1699 94.3893 54.1092C95.1644 50.2459 98.3703 44.1481 101.195 42.3488C101.22 42.3327 101.249 42.322 101.279 42.3171C101.309 42.3123 101.34 42.3135 101.369 42.3206C101.399 42.3277 101.426 42.3406 101.451 42.3586C101.475 42.3765 101.496 42.3992 101.512 42.4252C101.529 42.4504 101.541 42.4789 101.546 42.5088C101.552 42.5387 101.551 42.5695 101.545 42.5992C101.538 42.629 101.526 42.657 101.508 42.6817C101.49 42.7064 101.467 42.7272 101.441 42.7427C98.7109 44.4715 95.5989 50.387 94.8473 54.1915C94.8377 54.2455 94.8096 54.2944 94.7678 54.3299C94.726 54.3653 94.6731 54.385 94.6183 54.3855Z" fill="#263238"/>
<path d="M96.545 54.9912C96.1809 55.9261 95.3706 56.4906 94.7835 56.2495C94.1963 56.0084 93.9673 55.0735 94.3314 54.115C94.6954 53.1566 95.5057 52.6156 96.0929 52.8625C96.68 53.1095 96.9149 54.0562 96.545 54.9912Z" fill="white"/>
<path d="M112.045 64.0997C112.045 64.5349 111.775 64.8818 111.487 64.87C111.2 64.8583 110.977 64.4937 110.994 64.0527C111.012 63.6117 111.264 63.2647 111.552 63.2824C111.84 63.3 112.063 63.6587 112.045 64.0997Z" fill="white"/>
<path d="M117.107 64.3113C117.107 64.7464 116.843 65.0934 116.549 65.0816C116.255 65.0698 116.044 64.7053 116.062 64.2643C116.079 63.8232 116.326 63.4822 116.649 63.4939C116.972 63.5057 117.124 63.8879 117.107 64.3113Z" fill="white"/>
<path d="M216.678 56.1555L216.091 56.1203C216.189 54.8683 216.026 53.6098 215.612 52.4244C215.198 51.239 214.543 50.1526 213.688 49.2343C212.833 48.3159 211.796 47.5856 210.644 47.0897C209.492 46.5937 208.25 46.3429 206.996 46.3533V45.7652C208.33 45.7539 209.652 46.0204 210.878 46.5478C212.104 47.0752 213.208 47.852 214.118 48.8289C215.028 49.8058 215.726 50.9616 216.167 52.2228C216.608 53.4841 216.782 54.8233 216.678 56.1555Z" fill="#AB8DCC"/>
<path d="M216.989 58.621L216.648 63.4897L217.236 63.5309L217.576 58.6621L216.989 58.621Z" fill="#AB8DCC"/>
<path d="M206.996 47.8234H166.482C164.269 47.8598 162.149 48.7191 160.534 50.2342C158.92 51.7493 157.925 53.8117 157.745 56.0204L157.375 61.4831C157.291 62.5342 157.426 63.5913 157.773 64.5871C158.119 65.5828 158.669 66.4954 159.387 67.2666C160.105 68.0377 160.976 68.6506 161.944 69.0662C162.911 69.4817 163.955 69.6908 165.008 69.6801H205.522L213.379 74.5312L214.624 56.0204C214.708 54.9696 214.574 53.9126 214.228 52.9168C213.882 51.9211 213.333 51.0084 212.615 50.2372C211.898 49.4659 211.027 48.8529 210.06 48.4373C209.092 48.0217 208.049 47.8126 206.996 47.8234Z" fill="#AB8DCC"/>
<path d="M204.941 55.6499H167.415V57.0141H204.941V55.6499Z" fill="white"/>
<path d="M204.613 60.4893H176.752V61.8535H204.613V60.4893Z" fill="white"/>
<path d="M146.049 77.0478H187.456C188.532 77.0362 189.599 77.2494 190.589 77.6739C191.579 78.0984 192.469 78.7249 193.203 79.5134C193.938 80.3019 194.5 81.235 194.854 82.2532C195.208 83.2715 195.346 84.3524 195.259 85.4271L194.883 91.0133C194.697 93.2704 193.68 95.3777 192.03 96.9261C190.38 98.4745 188.214 99.3535 185.953 99.3925H144.54L135.838 104.361L137.118 85.4271C137.303 83.1695 138.319 81.0614 139.97 79.5128C141.62 77.9641 143.787 77.0855 146.049 77.0478Z" fill="white"/>
<path opacity="0.15" d="M146.049 77.0478H187.456C188.532 77.0362 189.599 77.2494 190.589 77.6739C191.579 78.0984 192.469 78.7249 193.203 79.5134C193.938 80.3019 194.5 81.235 194.854 82.2532C195.208 83.2715 195.346 84.3524 195.259 85.4271L194.883 91.0133C194.697 93.2704 193.68 95.3777 192.03 96.9261C190.38 98.4745 188.214 99.3535 185.953 99.3925H144.54L135.838 104.361L137.118 85.4271C137.303 83.1695 138.319 81.0614 139.97 79.5128C141.62 77.9641 143.787 77.0855 146.049 77.0478Z" fill="#AB8DCC"/>
<path opacity="0.5" d="M185.354 85.0508H146.977V86.4503H185.354V85.0508Z" fill="#AB8DCC"/>
<path opacity="0.5" d="M161.808 89.9961H146.642V91.3956H161.808V89.9961Z" fill="#AB8DCC"/>
<path opacity="0.5" d="M175.214 89.9961H165.525V91.3956H175.214V89.9961Z" fill="#AB8DCC"/>
</g>
<defs>
<clipPath id="clip0_243_3314">
<rect width="247" height="230" fill="white"/>
</clipPath>
</defs>
</svg>
