<svg width="247" height="213" viewBox="0 0 247 213" fill="none" xmlns="http://www.w3.org/2000/svg">
<g clip-path="url(#clip0_243_2323)">
<path d="M257.996 187.967H-21.1475V188.107H257.996V187.967Z" fill="#EBEBEB"/>
<path d="M230.027 196.943H211.536V197.083H230.027V196.943Z" fill="#EBEBEB"/>
<path d="M163.769 198.461H158.917V198.6H163.769V198.461Z" fill="#EBEBEB"/>
<path d="M210.977 191.766H200.264V191.906H210.977V191.766Z" fill="#EBEBEB"/>
<path d="M32.2531 192.704H8.14062V192.843H32.2531V192.704Z" fill="#EBEBEB"/>
<path d="M40.7615 192.704H37.2275V192.843H40.7615V192.704Z" fill="#EBEBEB"/>
<path d="M104.551 195.058H52.251V195.197H104.551V195.058Z" fill="#EBEBEB"/>
<path d="M111.167 163.087H3.36681C2.52232 163.085 1.71291 162.749 1.11629 162.152C0.519662 161.555 0.184569 160.745 0.18457 159.902V8.48242C0.191922 7.64342 0.530259 6.84119 1.12609 6.25C1.72192 5.65881 2.52713 5.32639 3.36681 5.32495H111.167C112.012 5.32495 112.823 5.66055 113.421 6.25792C114.019 6.85529 114.354 7.6655 114.354 8.51031V159.902C114.354 160.746 114.019 161.557 113.421 162.154C112.823 162.751 112.012 163.087 111.167 163.087ZM3.36681 5.43652C2.55933 5.438 1.78543 5.75956 1.21498 6.33062C0.644529 6.90167 0.324141 7.67557 0.324142 8.48242V159.902C0.324141 160.708 0.644529 161.482 1.21498 162.053C1.78543 162.624 2.55933 162.946 3.36681 162.947H111.167C111.975 162.946 112.749 162.625 113.32 162.054C113.892 161.483 114.213 160.709 114.215 159.902V8.48242C114.213 7.67505 113.892 6.90117 113.32 6.33027C112.749 5.75938 111.975 5.438 111.167 5.43652H3.36681Z" fill="#EBEBEB"/>
<path d="M231.93 163.087H124.124C123.279 163.085 122.469 162.749 121.872 162.152C121.274 161.555 120.938 160.746 120.937 159.902V8.48242C120.945 7.64291 121.285 6.84069 121.882 6.24965C122.478 5.65861 123.284 5.32637 124.124 5.32495H231.93C232.768 5.32785 233.572 5.66092 234.167 6.25196C234.761 6.843 235.099 7.64438 235.106 8.48242V159.902C235.106 160.744 234.772 161.553 234.177 162.15C233.581 162.747 232.773 163.084 231.93 163.087ZM124.124 5.43652C123.316 5.438 122.542 5.75938 121.971 6.33027C121.399 6.90117 121.078 7.67505 121.076 8.48242V159.902C121.078 160.709 121.399 161.483 121.971 162.054C122.542 162.625 123.316 162.946 124.124 162.947H231.93C232.738 162.946 233.512 162.625 234.084 162.054C234.655 161.483 234.976 160.709 234.978 159.902V8.48242C234.976 7.67505 234.655 6.90117 234.084 6.33027C233.512 5.75938 232.738 5.438 231.93 5.43652H124.124Z" fill="#EBEBEB"/>
<path d="M209.576 22.8809H182.371V56.3467H209.576V22.8809Z" fill="#F5F5F5"/>
<path d="M207.979 24.4761H183.973V54.7398H207.979V24.4761Z" fill="#EBEBEB"/>
<path d="M205.064 47.1029V54.74H186.881V47.1029C186.877 45.1218 187.572 43.2027 188.845 41.6833C190.117 40.1639 191.885 39.1417 193.837 38.7964C192.565 38.2991 191.506 37.3734 190.844 36.1791C190.183 34.9849 189.959 33.5972 190.212 32.2557C190.465 30.9142 191.18 29.7032 192.231 28.832C193.283 27.9607 194.606 27.4839 195.973 27.4839C197.339 27.4839 198.662 27.9607 199.714 28.832C200.766 29.7032 201.48 30.9142 201.733 32.2557C201.986 33.5972 201.763 34.9849 201.101 36.1791C200.439 37.3734 199.38 38.2991 198.108 38.7964C200.06 39.1417 201.828 40.1639 203.101 41.6833C204.373 43.2027 205.068 45.1218 205.064 47.1029Z" fill="#E0E0E0"/>
<path d="M49.4818 30.6741H26.832V45.8701H49.4818V30.6741Z" fill="#E0E0E0"/>
<path d="M38.1593 25.8596L19.9814 30.6739L38.1593 35.4882L56.3371 30.6739L38.1593 25.8596Z" fill="#EBEBEB"/>
<path d="M47.5227 42.3166V33.1119C47.5222 33.0243 47.4929 32.9393 47.4395 32.8698C47.3861 32.8003 47.3114 32.7501 47.2268 32.727L38.2495 30.2892C38.1474 30.2617 38.0385 30.2756 37.9466 30.3278C37.8546 30.38 37.7869 30.4664 37.7582 30.5681C37.7439 30.6187 37.7397 30.6716 37.746 30.7237C37.7523 30.7759 37.7689 30.8263 37.7949 30.872C37.8209 30.9177 37.8557 30.9577 37.8973 30.9899C37.939 31.022 37.9866 31.0455 38.0374 31.059L46.7243 33.4188V42.3054C46.4917 42.3981 46.2986 42.569 46.1783 42.7886C46.0581 43.0081 46.0181 43.2627 46.0654 43.5086C46.1126 43.7544 46.2441 43.9761 46.4372 44.1355C46.6303 44.2949 46.873 44.3821 47.1235 44.3821C47.374 44.3821 47.6167 44.2949 47.8098 44.1355C48.0029 43.9761 48.1344 43.7544 48.1817 43.5086C48.2289 43.2627 48.189 43.0081 48.0687 42.7886C47.9485 42.569 47.7554 42.3981 47.5227 42.3054V42.3166Z" fill="#F5F5F5"/>
<path d="M96.4219 10.5073L92.6758 32.3642H112.422L96.4219 10.5073Z" fill="#E0E0E0"/>
<path d="M126.608 32.3642H99.6934L96.4219 10.5073H123.337L126.608 32.3642Z" fill="#F5F5F5"/>
<path d="M123.934 14.5127H97.0192L96.4219 10.5073H123.337L123.934 14.5127Z" fill="#EBEBEB"/>
<path d="M105.187 18.6355H102.865L102.519 16.2925H104.835L105.187 18.6355Z" fill="#E0E0E0"/>
<path d="M108.721 18.6355H106.399L106.053 16.2925H108.37L108.721 18.6355Z" fill="#E0E0E0"/>
<path d="M112.255 18.6355H109.932L109.586 16.2925H111.903L112.255 18.6355Z" fill="#E0E0E0"/>
<path d="M115.79 18.6355H113.467L113.121 16.2925H115.438L115.79 18.6355Z" fill="#E0E0E0"/>
<path d="M119.324 18.6355H117.001L116.655 16.2925H118.972L119.324 18.6355Z" fill="#E0E0E0"/>
<path d="M122.857 18.6355H120.535L120.188 16.2925H122.505L122.857 18.6355Z" fill="#E0E0E0"/>
<path d="M102.15 21.9771H99.8332L99.4814 19.6396H101.804L102.15 21.9771Z" fill="#E0E0E0"/>
<path d="M105.69 21.9771H103.367L103.016 19.6396H105.338L105.69 21.9771Z" fill="#E0E0E0"/>
<path d="M109.218 21.9771H106.902L106.55 19.6396H108.872L109.218 21.9771Z" fill="#E0E0E0"/>
<path d="M112.753 21.9771H110.436L110.084 19.6396H112.406L112.753 21.9771Z" fill="#E0E0E0"/>
<path d="M116.286 21.9771H113.969L113.617 19.6396H115.94L116.286 21.9771Z" fill="#E0E0E0"/>
<path d="M119.82 21.9771H117.503L117.151 19.6396H119.474L119.82 21.9771Z" fill="#E0E0E0"/>
<path d="M123.354 21.9771H121.037L120.686 19.6396H123.008L123.354 21.9771Z" fill="#E0E0E0"/>
<path d="M102.653 25.3242H100.336L99.9844 22.9812H102.301L102.653 25.3242Z" fill="#E0E0E0"/>
<path d="M106.187 25.3242H103.87L103.519 22.9812H105.835L106.187 25.3242Z" fill="#E0E0E0"/>
<path d="M109.72 25.3242H107.403L107.052 22.9812H109.369L109.72 25.3242Z" fill="#E0E0E0"/>
<path d="M113.255 25.3242H110.938L110.586 22.9812H112.903L113.255 25.3242Z" fill="#E0E0E0"/>
<path d="M116.789 25.324H114.472L114.12 22.981H116.437L116.789 25.324Z" fill="#E0E0E0"/>
<path d="M120.322 25.324H118.005L117.653 22.981H119.97L120.322 25.324Z" fill="#E0E0E0"/>
<path d="M123.856 25.324H121.539L121.188 22.981H123.504L123.856 25.324Z" fill="#E0E0E0"/>
<path d="M103.155 28.6658H100.838L100.486 26.3284H102.803L103.155 28.6658Z" fill="#E0E0E0"/>
<path d="M106.689 28.6658H104.367L104.021 26.3284H106.337L106.689 28.6658Z" fill="#E0E0E0"/>
<path d="M110.223 28.6658H107.901L107.555 26.3284H109.872L110.223 28.6658Z" fill="#E0E0E0"/>
<path d="M113.757 28.6658H111.434L111.088 26.3284H113.405L113.757 28.6658Z" fill="#E0E0E0"/>
<path d="M117.292 28.6658H114.969L114.623 26.3284H116.94L117.292 28.6658Z" fill="#E0E0E0"/>
<path d="M120.825 28.6658H118.502L118.15 26.3284H120.473L120.825 28.6658Z" fill="#E0E0E0"/>
<path d="M229.211 101.689H208.851C208.175 101.689 207.628 102.236 207.628 102.911V131.981C207.628 132.656 208.175 133.203 208.851 133.203H229.211C229.887 133.203 230.434 132.656 230.434 131.981V102.911C230.434 102.236 229.887 101.689 229.211 101.689Z" fill="#E0E0E0"/>
<path d="M225.979 98.5876H205.618C204.943 98.5876 204.396 99.1346 204.396 99.8094V128.879C204.396 129.554 204.943 130.101 205.618 130.101H225.979C226.654 130.101 227.202 129.554 227.202 128.879V99.8094C227.202 99.1346 226.654 98.5876 225.979 98.5876Z" fill="#F5F5F5"/>
<path d="M223.227 103.547H208.37C208.273 103.548 208.176 103.529 208.085 103.492C207.995 103.455 207.913 103.4 207.844 103.331C207.775 103.262 207.72 103.18 207.683 103.09C207.646 102.999 207.627 102.903 207.628 102.805C207.628 102.608 207.706 102.419 207.845 102.28C207.985 102.141 208.174 102.063 208.37 102.063H223.227C223.423 102.063 223.612 102.141 223.752 102.28C223.891 102.419 223.969 102.608 223.969 102.805C223.97 102.903 223.951 102.999 223.914 103.09C223.877 103.18 223.822 103.262 223.753 103.331C223.684 103.4 223.602 103.455 223.512 103.492C223.421 103.529 223.324 103.548 223.227 103.547Z" fill="#EBEBEB"/>
<path d="M223.227 107.413H208.37C208.174 107.413 207.985 107.335 207.845 107.196C207.706 107.056 207.628 106.868 207.628 106.671C207.627 106.573 207.646 106.476 207.683 106.385C207.72 106.295 207.774 106.212 207.843 106.143C207.912 106.073 207.995 106.018 208.085 105.98C208.175 105.943 208.272 105.923 208.37 105.923H223.227C223.324 105.923 223.422 105.943 223.512 105.98C223.602 106.018 223.685 106.073 223.754 106.143C223.823 106.212 223.877 106.295 223.914 106.385C223.951 106.476 223.97 106.573 223.969 106.671C223.969 106.868 223.891 107.056 223.752 107.196C223.612 107.335 223.423 107.413 223.227 107.413Z" fill="#EBEBEB"/>
<path d="M223.227 111.24H208.37C208.273 111.241 208.176 111.222 208.085 111.185C207.995 111.148 207.913 111.093 207.844 111.024C207.775 110.955 207.72 110.873 207.683 110.783C207.646 110.692 207.627 110.595 207.628 110.498C207.628 110.301 207.706 110.112 207.845 109.973C207.985 109.834 208.174 109.756 208.37 109.756H223.227C223.423 109.756 223.612 109.834 223.752 109.973C223.891 110.112 223.969 110.301 223.969 110.498C223.97 110.595 223.951 110.692 223.914 110.783C223.877 110.873 223.822 110.955 223.753 111.024C223.684 111.093 223.602 111.148 223.512 111.185C223.421 111.222 223.324 111.241 223.227 111.24Z" fill="#EBEBEB"/>
<path d="M223.227 115.089H208.37C208.273 115.089 208.176 115.07 208.086 115.032C207.996 114.995 207.914 114.94 207.845 114.872C207.776 114.803 207.722 114.721 207.684 114.631C207.647 114.541 207.628 114.444 207.628 114.347C207.627 114.249 207.646 114.152 207.683 114.061C207.72 113.971 207.774 113.888 207.843 113.819C207.912 113.749 207.995 113.694 208.085 113.656C208.175 113.619 208.272 113.599 208.37 113.599H223.227C223.324 113.599 223.422 113.619 223.512 113.656C223.602 113.694 223.685 113.749 223.754 113.819C223.823 113.888 223.877 113.971 223.914 114.061C223.951 114.152 223.97 114.249 223.969 114.347C223.969 114.444 223.95 114.541 223.913 114.631C223.875 114.721 223.821 114.803 223.752 114.872C223.683 114.94 223.601 114.995 223.511 115.032C223.421 115.07 223.324 115.089 223.227 115.089Z" fill="#EBEBEB"/>
<path d="M223.227 118.932H208.37C208.273 118.933 208.176 118.914 208.085 118.877C207.995 118.84 207.913 118.786 207.844 118.717C207.775 118.648 207.72 118.566 207.683 118.475C207.646 118.385 207.627 118.288 207.628 118.19C207.627 118.093 207.646 117.996 207.683 117.906C207.72 117.815 207.775 117.733 207.844 117.664C207.913 117.595 207.995 117.54 208.085 117.503C208.176 117.466 208.273 117.448 208.37 117.449H223.227C223.324 117.448 223.421 117.466 223.512 117.503C223.602 117.54 223.684 117.595 223.753 117.664C223.822 117.733 223.877 117.815 223.914 117.906C223.951 117.996 223.97 118.093 223.969 118.19C223.97 118.288 223.951 118.385 223.914 118.475C223.877 118.566 223.822 118.648 223.753 118.717C223.684 118.786 223.602 118.84 223.512 118.877C223.421 118.914 223.324 118.933 223.227 118.932Z" fill="#EBEBEB"/>
<path d="M223.227 122.782H208.37C208.272 122.782 208.175 122.763 208.085 122.725C207.995 122.687 207.912 122.632 207.843 122.563C207.774 122.493 207.72 122.411 207.683 122.32C207.646 122.229 207.627 122.132 207.628 122.034C207.628 121.838 207.706 121.649 207.845 121.51C207.985 121.371 208.174 121.292 208.37 121.292H223.227C223.423 121.292 223.612 121.371 223.752 121.51C223.891 121.649 223.969 121.838 223.969 122.034C223.97 122.132 223.951 122.229 223.914 122.32C223.877 122.411 223.823 122.493 223.754 122.563C223.685 122.632 223.602 122.687 223.512 122.725C223.422 122.763 223.324 122.782 223.227 122.782Z" fill="#EBEBEB"/>
<path d="M219.877 126.626H208.37C208.174 126.626 207.985 126.547 207.845 126.408C207.706 126.269 207.628 126.08 207.628 125.884C207.627 125.786 207.646 125.689 207.683 125.599C207.72 125.508 207.775 125.426 207.844 125.357C207.913 125.288 207.995 125.234 208.085 125.197C208.176 125.16 208.273 125.141 208.37 125.142H219.877C219.975 125.141 220.071 125.16 220.162 125.197C220.252 125.234 220.334 125.288 220.403 125.357C220.473 125.426 220.527 125.508 220.564 125.599C220.601 125.689 220.62 125.786 220.619 125.884C220.619 126.08 220.541 126.269 220.402 126.408C220.263 126.547 220.074 126.626 219.877 126.626Z" fill="#EBEBEB"/>
<path d="M195.72 57.8081V59.2027" stroke="#EBEBEB" stroke-width="2" stroke-linecap="round" stroke-linejoin="round"/>
<path d="M195.72 61.9197V82.2982" stroke="#EBEBEB" stroke-width="2" stroke-linecap="round" stroke-linejoin="round" stroke-dasharray="4.87 4.87"/>
<path d="M195.719 83.6592V85.0538H194.323" stroke="#EBEBEB" stroke-width="2" stroke-linecap="round" stroke-linejoin="round"/>
<path d="M191.543 85.054H142.905" stroke="#EBEBEB" stroke-width="2" stroke-linecap="round" stroke-linejoin="round" stroke-dasharray="4.98 4.98"/>
<path d="M141.515 85.054H140.119V86.4486" stroke="#EBEBEB" stroke-width="2" stroke-linecap="round" stroke-linejoin="round"/>
<path d="M140.119 89.4106V93.8568" stroke="#EBEBEB" stroke-width="2" stroke-linecap="round" stroke-linejoin="round" stroke-dasharray="5.31 5.31"/>
<path d="M140.12 95.3408V96.7355H138.725" stroke="#EBEBEB" stroke-width="2" stroke-linecap="round" stroke-linejoin="round"/>
<path d="M135.636 96.7354H130.997" stroke="#EBEBEB" stroke-width="2" stroke-linecap="round" stroke-linejoin="round" stroke-dasharray="5.54 5.54"/>
<path d="M129.45 96.7354H128.055" stroke="#EBEBEB" stroke-width="2" stroke-linecap="round" stroke-linejoin="round"/>
<path d="M217.867 136.131V146.513H140.119V113.599H129.082" stroke="#EBEBEB" stroke-width="2" stroke-linecap="round" stroke-linejoin="round" stroke-dasharray="5 5"/>
<path d="M129.083 21.9768H144.09V80.1613H116.655" stroke="#EBEBEB" stroke-width="2" stroke-linecap="round" stroke-linejoin="round" stroke-dasharray="5 5"/>
<path d="M52.7588 39.6277H66.5764V97.4161H87.4229" stroke="#EBEBEB" stroke-width="2" stroke-linecap="round" stroke-linejoin="round" stroke-dasharray="5 5"/>
<path d="M21.9796 150.178L15.7882 146.273L9.44043 150.178V129.325H21.9796V150.178Z" fill="#E0E0E0"/>
<path d="M22.612 134.327C26.4252 130.517 26.4252 124.339 22.612 120.529C18.7987 116.719 12.6162 116.719 8.80295 120.529C4.98969 124.339 4.98969 130.517 8.80294 134.327C12.6162 138.138 18.7987 138.138 22.612 134.327Z" fill="#F5F5F5"/>
<path d="M21.5713 133.286C24.809 130.051 24.809 124.806 21.5713 121.57C18.3337 118.335 13.0844 118.335 9.84669 121.57C6.60902 124.806 6.60903 130.051 9.8467 133.286C13.0844 136.521 18.3337 136.521 21.5713 133.286Z" fill="#EBEBEB"/>
<path d="M28.8086 127.702H71.8805V113.599H87.4232" stroke="#EBEBEB" stroke-width="2" stroke-linecap="round" stroke-linejoin="round" stroke-dasharray="5 5"/>
<path d="M118.424 213.16C178.207 213.16 226.671 210.333 226.671 206.845C226.671 203.358 178.207 200.53 118.424 200.53C58.6413 200.53 10.1777 203.358 10.1777 206.845C10.1777 210.333 58.6413 213.16 118.424 213.16Z" fill="#F5F5F5"/>
<path d="M41.8158 53.6076C41.8158 53.6076 39.0244 54.6396 38.1423 58.461C37.2602 62.2823 39.605 70.5274 39.979 74.4268C40.3531 78.3263 36.071 86.2311 47.1977 86.9507C58.3244 87.6704 59.9322 57.3341 54.7792 55.2142C49.6263 53.0944 41.8158 53.6076 41.8158 53.6076Z" fill="#263238"/>
<path d="M54.2559 55.6552C57.3599 54.1936 58.6887 64.2908 57.6056 71.5764" stroke="#263238" stroke-width="0.5" stroke-linecap="round" stroke-linejoin="round"/>
<path d="M80.6445 51.577L81.9677 47.9398C81.9677 47.9398 81.4094 47.276 83.9552 46.0598C86.501 44.8437 88.053 44.1854 89.097 44.5146C90.141 44.8437 91.5758 47.1923 91.4642 48.0067C91.3525 48.8212 84.3962 49.9537 84.3962 49.9537L83.4025 52.743L80.6445 51.577Z" fill="#E4897B"/>
<path d="M59.123 70.176C59.123 70.176 71.2714 66.5332 73.2589 64.67C75.2464 62.8067 80.8684 48.9272 80.8684 48.9272L84.9494 50.6008C84.9494 50.6008 80.7679 66.7229 77.2339 70.455C73.6999 74.187 60.1168 80.8032 60.1168 80.8032L59.123 70.176Z" fill="#B595D6"/>
<path opacity="0.6" d="M59.123 70.176C59.123 70.176 71.2714 66.5332 73.2589 64.67C75.2464 62.8067 80.8684 48.9272 80.8684 48.9272L84.9494 50.6008C84.9494 50.6008 80.7679 66.7229 77.2339 70.455C73.6999 74.187 60.1168 80.8032 60.1168 80.8032L59.123 70.176Z" fill="white"/>
<path d="M37.1494 193.914L39.8459 195.499C41.1108 193.798 42.4793 192.177 43.9438 190.645C44.7254 189.82 45.5461 188.905 46.4002 187.923C48.1086 185.965 49.9565 183.728 51.8938 181.323L53.6301 179.153C60.363 170.663 67.6766 160.688 70.4122 153.944C71.2608 151.846 71.6739 150.039 71.4897 148.733C70.9314 144.706 69.3682 138.642 67.5817 132.784C64.8572 123.831 61.7922 115.346 61.7922 115.346L54.2609 128.093C54.2609 128.093 56.5722 133.599 58.677 139.462C60.7482 145.219 62.6185 151.327 61.9262 152.917C61.8592 153.074 61.7755 153.258 61.6806 153.475C60.43 156.064 56.9686 161.927 53.0383 168.403L51.838 170.373C49.7276 173.831 47.5336 177.385 45.5014 180.648C44.7086 181.932 43.9382 183.17 43.2068 184.341C39.7343 189.881 37.1494 193.914 37.1494 193.914Z" fill="#E4897B"/>
<path opacity="0.2" d="M53.786 179.148C50.2241 183.611 46.8018 187.683 44.256 190.64C43.8932 188.821 43.5247 186.668 43.2344 184.319C46.1766 179.6 49.7775 173.776 53.0491 168.381C52.9796 171.985 53.2262 175.587 53.786 179.148Z" fill="black"/>
<path d="M40.3425 142.262C41.2749 148.616 42.5757 154.373 43.4689 157.804C43.9881 159.863 44.3399 161.079 44.3399 161.079C44.3525 167.604 44.7364 174.123 45.4899 180.604C45.7747 183.159 46.0817 185.625 46.3999 187.895C47.5723 196.341 48.8062 202.399 48.8062 202.399L52.0163 201.981L51.8935 181.29L51.8265 170.323L51.7372 155.4L51.7037 152.8L51.5474 141.453L51.3185 124.718L40.1527 119.697C38.6565 126.084 39.2148 134.609 40.3425 142.262Z" fill="#E4897B"/>
<path opacity="0.2" d="M70.2228 142.368C67.3699 144.338 63.5233 145.52 60.8826 146.156C60.2741 144.075 59.4869 141.738 58.6494 139.462C56.5447 133.599 54.2334 128.093 54.2334 128.093L61.7647 115.346C61.7647 115.346 64.8297 123.831 67.5541 132.784C68.5702 136.042 69.497 139.367 70.2228 142.368Z" fill="black"/>
<path opacity="0.2" d="M51.6428 148.505C48.1729 148.43 44.709 148.18 41.2643 147.757C40.9405 146.011 40.6222 144.165 40.3431 142.262C39.2265 134.608 38.6682 126.084 40.1533 119.725L51.319 124.746L51.5479 141.481L51.6428 148.505Z" fill="black"/>
<path d="M70.7637 141.258C63.7795 145.358 43.2345 147.099 43.2345 147.099L39.8848 137.66L40.2644 147.021H39.2651C39.2651 147.021 31.7617 121.638 41.7327 105.003L59.5979 103.625L61.552 112.818C61.552 112.818 66.5654 125.973 70.7637 141.258Z" fill="#263238"/>
<path d="M57.6601 206.539C57.1339 206.225 56.555 206.01 55.9517 205.903C55.9517 205.903 53.9754 204.436 52.4122 199.387L50.0618 199.119C49.6624 199.083 49.2615 199.17 48.9138 199.37C48.5661 199.57 48.2885 199.872 48.119 200.235C48.0689 200.335 48.035 200.442 48.0185 200.553C47.9821 201.121 47.9821 201.691 48.0185 202.26C48.1613 204.165 48.4185 206.059 48.7889 207.933L49.202 207.877L48.8559 204.296C48.7442 203.08 49.872 204.363 50.3242 205.629C50.7764 206.896 51.5301 208.195 54.1875 207.861C57.286 207.487 58.5534 207.186 57.6601 206.539Z" fill="#2E353A"/>
<path d="M51.7648 197.602C51.7648 197.602 52.6022 199.883 53.7188 202.394C54.2314 203.696 54.9895 204.887 55.9519 205.903C55.9519 205.903 54.0091 206.533 52.9651 205.317C51.9211 204.101 50.1234 199.71 48.1191 200.218C48.2259 199.861 48.3759 199.518 48.5658 199.197C48.8672 198.701 51.7648 197.602 51.7648 197.602Z" fill="#E4897B"/>
<path d="M37.9924 204.558C37.8801 203.953 37.6568 203.375 37.3336 202.851C37.3336 202.851 37.127 200.402 39.8738 195.889L38.5172 193.953C38.2828 193.63 37.9547 193.386 37.5772 193.256C37.1997 193.125 36.7911 193.113 36.4068 193.223C36.2989 193.253 36.1957 193.298 36.0998 193.356C35.6492 193.702 35.2204 194.074 34.8157 194.472C33.4825 195.842 32.2334 197.292 31.0752 198.812L31.3934 199.08L33.8499 196.447C34.6873 195.56 34.4696 197.256 33.822 198.427C33.1744 199.599 32.7054 201.033 34.6929 202.818C37.0321 204.904 38.0985 205.652 37.9924 204.558Z" fill="#2E353A"/>
<path d="M40.7835 194.216C40.7835 194.216 39.6279 196.358 38.4834 198.857C37.8493 200.103 37.4589 201.459 37.3333 202.851C37.3333 202.851 35.5803 201.819 35.798 200.229C36.0158 198.639 38.1149 194.394 36.4066 193.223C36.7458 193.069 37.1018 192.954 37.4673 192.882C38.0312 192.765 40.7835 194.216 40.7835 194.216Z" fill="#E4897B"/>
<path d="M41.5487 103.157L41.4482 105.851L59.9108 105.131L60.0336 101.946L41.5487 103.157Z" fill="#263238"/>
<path opacity="0.2" d="M41.5487 103.157L41.4482 105.851L59.9108 105.131L60.0336 101.946L41.5487 103.157Z" fill="white"/>
<path d="M47.7856 102.253L46.8701 102.265L46.9328 106.923L47.8483 106.91L47.7856 102.253Z" fill="#263238"/>
<path d="M55.7456 102.261L51.709 102.47L51.8673 105.528L55.9039 105.32L55.7456 102.261Z" fill="white"/>
<path d="M59.0747 101.44L58.1592 101.452L58.221 106.11L59.1365 106.098L59.0747 101.44Z" fill="#263238"/>
<path d="M36.5355 104.294L40.7561 106.704C41.7406 107.078 42.5612 107.787 43.073 108.707C44.1059 110.381 42.6208 116.763 41.8169 116.763C41.0129 116.763 36.4741 115.77 36.5355 114.888C36.5969 114.007 38.3555 109.812 38.3555 109.812L34.2744 107.273L36.5355 104.294Z" fill="#E4897B"/>
<path d="M41.4481 103.151C41.4481 103.151 40.3315 86.7947 36.5352 77.445C36.5352 77.445 44.3512 73.2499 59.1235 70.1929C59.1235 70.1929 63.3553 80.4853 60.0335 102.141L41.4481 103.151Z" fill="#B595D6"/>
<path opacity="0.6" d="M53.725 87.475C54.0148 87.475 54.2498 87.2403 54.2498 86.9507C54.2498 86.661 54.0148 86.4263 53.725 86.4263C53.4352 86.4263 53.2002 86.661 53.2002 86.9507C53.2002 87.2403 53.4352 87.475 53.725 87.475Z" fill="white"/>
<path opacity="0.6" d="M54.7796 93.2991C54.7662 93.4296 54.7048 93.5504 54.6073 93.6383C54.5099 93.7261 54.3833 93.7748 54.252 93.7748C54.1208 93.7748 53.9942 93.7261 53.8968 93.6383C53.7993 93.5504 53.7379 93.4296 53.7245 93.2991C53.7169 93.2253 53.7248 93.1508 53.7479 93.0803C53.7709 93.0097 53.8085 92.9449 53.8583 92.8898C53.908 92.8347 53.9688 92.7907 54.0366 92.7605C54.1044 92.7304 54.1778 92.7148 54.252 92.7148C54.3263 92.7148 54.3997 92.7304 54.4675 92.7605C54.5354 92.7907 54.5961 92.8347 54.6458 92.8898C54.6956 92.9449 54.7332 93.0097 54.7562 93.0803C54.7793 93.1508 54.7872 93.2253 54.7796 93.2991Z" fill="white"/>
<path opacity="0.6" d="M54.7796 99.3296C54.7662 99.4601 54.7048 99.5809 54.6073 99.6688C54.5099 99.7567 54.3833 99.8053 54.252 99.8053C54.1208 99.8053 53.9942 99.7567 53.8968 99.6688C53.7993 99.5809 53.7379 99.4601 53.7245 99.3296C53.7169 99.2558 53.7248 99.1813 53.7479 99.1108C53.7709 99.0403 53.8085 98.9754 53.8583 98.9203C53.908 98.8652 53.9688 98.8212 54.0366 98.7911C54.1044 98.7609 54.1778 98.7454 54.252 98.7454C54.3263 98.7454 54.3997 98.7609 54.4675 98.7911C54.5354 98.8212 54.5961 98.8652 54.6458 98.9203C54.6956 98.9754 54.7332 99.0403 54.7562 99.1108C54.7793 99.1813 54.7872 99.2558 54.7796 99.3296Z" fill="white"/>
<path d="M36.5351 77.4448C33.0626 79.3527 20.4732 93.8124 21.4613 98.1134C22.4495 102.415 36.5351 109.148 36.5351 109.148L38.9525 104.981C38.9525 104.981 29.7296 98.1134 29.2885 97.0089C28.8475 95.9043 39.4382 87.5811 39.4382 87.5811C39.5723 85.3724 39.5069 83.1562 39.2428 80.9593C39.1304 80.1909 38.8223 79.4642 38.3482 78.8488C37.8741 78.2334 37.2498 77.75 36.5351 77.4448Z" fill="#B595D6"/>
<path opacity="0.6" d="M36.5351 77.4448C33.0626 79.3527 20.4732 93.8124 21.4613 98.1134C22.4495 102.415 36.5351 109.148 36.5351 109.148L38.9525 104.981C38.9525 104.981 29.7296 98.1134 29.2885 97.0089C28.8475 95.9043 39.4382 87.5811 39.4382 87.5811C39.5723 85.3724 39.5069 83.1562 39.2428 80.9593C39.1304 80.1909 38.8223 79.4642 38.3482 78.8488C37.8741 78.2334 37.2498 77.75 36.5351 77.4448Z" fill="white"/>
<path d="M43.056 80.3458C43.056 80.3458 39.522 74.5775 47.2543 72.586C54.9866 70.5944 57.3425 75.2358 57.3425 75.2358L53.4904 74.572L53.0046 83.771C51.2238 80.5868 48.3261 78.1743 44.8704 76.9986L43.056 80.3458Z" fill="#B595D6"/>
<path opacity="0.6" d="M43.056 80.3458C43.056 80.3458 39.522 74.5775 47.2543 72.586C54.9866 70.5944 57.3425 75.2358 57.3425 75.2358L53.4904 74.572L53.0046 83.771C51.2238 80.5868 48.3261 78.1743 44.8704 76.9986L43.056 80.3458Z" fill="white"/>
<path d="M51.8373 79.2468C49.2458 78.037 46.7618 76.6093 44.4121 74.9792C46.2265 73.2722 45.8972 70.7506 45.4338 69.1775C45.2898 68.6789 45.103 68.1936 44.8755 67.7271L50.2183 68.7256C50.0952 69.4634 50.0261 70.2092 50.0117 70.957C49.9918 71.519 50.0425 72.0812 50.1625 72.6306C50.5254 74.2261 51.4354 74.2484 51.4354 74.2484C52.3845 75.9945 51.8373 79.2468 51.8373 79.2468Z" fill="#E4897B"/>
<path opacity="0.2" d="M50.0234 70.9737C50.0035 71.5356 50.0541 72.0979 50.1741 72.6473C48.0526 72.3683 46.4448 70.6724 45.4343 69.1997C45.2903 68.7011 45.1035 68.2158 44.876 67.7493L50.2188 68.7478C50.0997 69.4841 50.0344 70.228 50.0234 70.9737Z" fill="black"/>
<path d="M48.9623 53.697C54.7183 53.697 55.1984 56.4863 55.5278 61.2671C55.9409 67.2474 54.6066 71.4982 48.7949 70.1929C40.9063 68.4523 41.2412 53.697 48.9623 53.697Z" fill="#E4897B"/>
<path d="M52.5469 60.9993C52.9176 61.6948 53.3712 62.3429 53.8979 62.9294C53.7606 63.1206 53.5736 63.2705 53.357 63.3629C53.1405 63.4553 52.9028 63.4868 52.6697 63.4538L52.5469 60.9993Z" fill="#DE5753"/>
<path d="M49.683 60.6143C49.683 60.9936 49.4876 61.306 49.2364 61.3116C48.9851 61.3172 48.7674 61.0159 48.7618 60.631C48.7563 60.2461 48.9517 59.9392 49.2029 59.9337C49.4541 59.9281 49.6718 60.2293 49.683 60.6143Z" fill="#263238"/>
<path d="M49.1025 59.9504L49.9232 59.6101C49.9232 59.6101 49.5268 60.3186 49.1025 59.9504Z" fill="#263238"/>
<path d="M54.4281 60.4357C54.4281 60.8151 54.2327 61.1275 53.9815 61.1331C53.7303 61.1386 53.5125 60.8318 53.507 60.4525C53.5014 60.0731 53.6968 59.7552 53.9536 59.7496C54.2104 59.744 54.417 60.0508 54.4281 60.4357Z" fill="#263238"/>
<path d="M53.8477 59.7719L54.6683 59.4316C54.6683 59.4316 54.272 60.1345 53.8477 59.7719Z" fill="#263238"/>
<path d="M49.644 57.4066C49.2763 57.3611 48.9029 57.4002 48.5526 57.5211C48.2023 57.642 47.8843 57.8413 47.623 58.1039" stroke="#263238" stroke-width="0.707962" stroke-linecap="round" stroke-linejoin="round"/>
<path d="M53.0215 57.2058C53.3395 57.1264 53.6714 57.1197 53.9923 57.1864C54.3132 57.253 54.615 57.3912 54.875 57.5907" stroke="#263238" stroke-width="0.707962" stroke-linecap="round" stroke-linejoin="round"/>
<path d="M43.9604 61.7969C43.9604 61.7969 46.1433 57.9812 45.8195 55.0357C45.8195 55.0357 49.1022 51.6551 53.5183 54.9966C53.5183 54.9966 55.3606 58.1708 55.4779 60.6421C55.4779 60.6421 56.3935 52.3468 48.4044 52.1404C40.4153 51.934 40.4208 63.6211 44.541 67.1133C44.541 67.1133 42.6093 64.179 43.9604 61.7969Z" fill="#263238"/>
<path d="M44.7307 62.7845C44.7095 62.5178 44.636 62.2579 44.5142 62.0196C44.3925 61.7813 44.225 61.5693 44.0212 61.3958C43.8174 61.2222 43.5814 61.0905 43.3267 61.0081C43.072 60.9257 42.8035 60.8943 42.5366 60.9157C41.0962 61.0719 40.4039 64.0229 43.9881 64.7426C44.4906 64.8374 44.7809 64.3409 44.7307 62.7845Z" fill="#E4897B"/>
<path d="M52.017 65.9697C52.017 65.9697 50.0686 66.4104 49.2646 64.6699" stroke="#263238" stroke-width="0.707962" stroke-linecap="round" stroke-linejoin="round"/>
<path d="M45.8474 55.0357C45.8474 55.0357 51.1623 52.6816 54.6795 55.7888C54.6795 55.7888 56.0585 51.6942 51.3298 50.2995C46.6011 48.9049 41.8389 53.6076 41.8389 53.6076L45.8474 55.0357Z" fill="#263238"/>
<path d="M45.8477 55.0358C45.8477 55.0358 42.7492 58.0929 43.1958 64.1847C43.6424 70.2765 43.0562 74.1201 41.8447 77.9303C40.6333 81.7404 43.8043 82.8785 43.8043 82.8785C43.8043 82.8785 40.1922 83.771 39.4497 79.9051C38.9584 77.3724 40.1196 71.8831 39.539 65.345C38.9584 58.8069 41.2585 54.1823 45.8477 55.0358Z" fill="#263238"/>
<path d="M132.075 41.4629C131.059 41.4629 130.066 41.7639 129.221 42.3278C128.377 42.8918 127.718 43.6933 127.329 44.6311C126.941 45.5689 126.839 46.6009 127.037 47.5964C127.235 48.592 127.725 49.5065 128.443 50.2243C129.161 50.942 130.076 51.4308 131.073 51.6288C132.069 51.8269 133.102 51.7252 134.04 51.3368C134.979 50.9483 135.781 50.2905 136.345 49.4465C136.91 48.6025 137.211 47.6102 137.211 46.5952C137.211 45.234 136.67 43.9286 135.707 42.9661C134.743 42.0036 133.437 41.4629 132.075 41.4629ZM132.075 46.0987C131.78 46.0987 131.492 46.0113 131.247 45.8477C131.001 45.684 130.81 45.4514 130.698 45.1792C130.585 44.907 130.555 44.6076 130.613 44.3186C130.67 44.0297 130.812 43.7643 131.021 43.556C131.229 43.3477 131.495 43.2058 131.784 43.1483C132.073 43.0909 132.373 43.1204 132.645 43.2331C132.918 43.3458 133.15 43.5368 133.314 43.7817C133.478 44.0266 133.565 44.3146 133.565 44.6092C133.565 44.8048 133.527 44.9985 133.452 45.1792C133.377 45.3599 133.267 45.5241 133.129 45.6624C132.99 45.8007 132.826 45.9105 132.645 45.9853C132.464 46.0602 132.27 46.0987 132.075 46.0987Z" fill="#B595D6"/>
<path opacity="0.6" d="M132.075 41.4629C131.059 41.4629 130.066 41.7639 129.221 42.3278C128.377 42.8918 127.718 43.6933 127.329 44.6311C126.941 45.5689 126.839 46.6009 127.037 47.5964C127.235 48.592 127.725 49.5065 128.443 50.2243C129.161 50.942 130.076 51.4308 131.073 51.6288C132.069 51.8269 133.102 51.7252 134.04 51.3368C134.979 50.9483 135.781 50.2905 136.345 49.4465C136.91 48.6025 137.211 47.6102 137.211 46.5952C137.211 45.234 136.67 43.9286 135.707 42.9661C134.743 42.0036 133.437 41.4629 132.075 41.4629ZM132.075 46.0987C131.78 46.0987 131.492 46.0113 131.247 45.8477C131.001 45.684 130.81 45.4514 130.698 45.1792C130.585 44.907 130.555 44.6076 130.613 44.3186C130.67 44.0297 130.812 43.7643 131.021 43.556C131.229 43.3477 131.495 43.2058 131.784 43.1483C132.073 43.0909 132.373 43.1204 132.645 43.2331C132.918 43.3458 133.15 43.5368 133.314 43.7817C133.478 44.0266 133.565 44.3146 133.565 44.6092C133.565 44.8048 133.527 44.9985 133.452 45.1792C133.377 45.3599 133.267 45.5241 133.129 45.6624C132.99 45.8007 132.826 45.9105 132.645 45.9853C132.464 46.0602 132.27 46.0987 132.075 46.0987Z" fill="white"/>
<path d="M182.895 48.2019H81.248C78.9386 48.2019 77.0664 50.0726 77.0664 52.3803V203.738C77.0664 206.046 78.9386 207.916 81.248 207.916H182.895C185.205 207.916 187.077 206.046 187.077 203.738V52.3803C187.077 50.0726 185.205 48.2019 182.895 48.2019Z" fill="#B595D6"/>
<path opacity="0.8" d="M181.254 57.4846H82.8896V200.318H181.254V57.4846Z" fill="white"/>
<path d="M158.235 46.8406H105.912C105.317 46.8406 104.835 47.3226 104.835 47.9172V54.6227C104.835 55.2173 105.317 55.6994 105.912 55.6994H158.235C158.83 55.6994 159.313 55.2173 159.313 54.6227V47.9172C159.313 47.3226 158.83 46.8406 158.235 46.8406Z" fill="#B595D6"/>
<path opacity="0.4" d="M158.235 46.8406H105.912C105.317 46.8406 104.835 47.3226 104.835 47.9172V54.6227C104.835 55.2173 105.317 55.6994 105.912 55.6994H158.235C158.83 55.6994 159.313 55.2173 159.313 54.6227V47.9172C159.313 47.3226 158.83 46.8406 158.235 46.8406Z" fill="white"/>
<path d="M152.212 63.9279H136.446C136.125 63.9336 135.809 63.8513 135.531 63.69C135.254 63.5287 135.026 63.2946 134.872 63.0131C134.601 62.508 134.199 62.0858 133.707 61.7914C133.216 61.4971 132.653 61.3416 132.08 61.3416C131.507 61.3416 130.945 61.4971 130.453 61.7914C129.962 62.0858 129.559 62.508 129.289 63.0131C129.135 63.2942 128.906 63.528 128.629 63.6892C128.352 63.8504 128.035 63.933 127.715 63.9279H111.932C111.487 63.9279 111.061 63.7516 110.747 63.4378C110.433 63.1239 110.257 62.6982 110.257 62.2544V52.8545C110.257 52.4106 110.433 51.9849 110.747 51.6711C111.061 51.3572 111.487 51.1809 111.932 51.1809H152.212C152.656 51.1809 153.082 51.3572 153.396 51.6711C153.711 51.9849 153.887 52.4106 153.887 52.8545V62.2265C153.891 62.4486 153.85 62.6692 153.768 62.8755C153.685 63.0818 153.562 63.2696 153.406 63.4279C153.251 63.5863 153.065 63.7121 152.86 63.7979C152.655 63.8838 152.434 63.928 152.212 63.9279ZM132.075 60.2182C132.852 60.2166 133.615 60.4273 134.281 60.8275C134.947 61.2276 135.491 61.802 135.854 62.4887C135.915 62.5905 136.002 62.6742 136.106 62.7311C136.21 62.788 136.328 62.816 136.446 62.8122H152.212C152.36 62.8122 152.502 62.7535 152.607 62.6488C152.712 62.5442 152.77 62.4023 152.77 62.2544V52.8545C152.77 52.7065 152.712 52.5646 152.607 52.46C152.502 52.3554 152.36 52.2966 152.212 52.2966H111.932C111.784 52.2966 111.642 52.3554 111.537 52.46C111.432 52.5646 111.373 52.7065 111.373 52.8545V62.2265C111.373 62.3744 111.432 62.5163 111.537 62.6209C111.642 62.7256 111.784 62.7843 111.932 62.7843H127.709C127.827 62.7877 127.943 62.7594 128.046 62.7025C128.149 62.6456 128.235 62.5621 128.295 62.4608C128.663 61.7797 129.208 61.2113 129.874 60.8163C130.54 60.4213 131.3 60.2145 132.075 60.2182Z" fill="#263238"/>
<g opacity="0.2">
<path d="M152.212 63.9279H136.446C136.125 63.9336 135.809 63.8513 135.531 63.69C135.254 63.5287 135.026 63.2946 134.872 63.0131C134.601 62.508 134.199 62.0858 133.707 61.7914C133.216 61.4971 132.653 61.3416 132.08 61.3416C131.507 61.3416 130.945 61.4971 130.453 61.7914C129.962 62.0858 129.559 62.508 129.289 63.0131C129.135 63.2942 128.906 63.528 128.629 63.6892C128.352 63.8504 128.035 63.933 127.715 63.9279H111.932C111.487 63.9279 111.061 63.7516 110.747 63.4378C110.433 63.1239 110.257 62.6982 110.257 62.2544V52.8545C110.257 52.4106 110.433 51.9849 110.747 51.6711C111.061 51.3572 111.487 51.1809 111.932 51.1809H152.212C152.656 51.1809 153.082 51.3572 153.396 51.6711C153.711 51.9849 153.887 52.4106 153.887 52.8545V62.2265C153.891 62.4486 153.85 62.6692 153.768 62.8755C153.685 63.0818 153.562 63.2696 153.406 63.4279C153.251 63.5863 153.065 63.7121 152.86 63.7979C152.655 63.8838 152.434 63.928 152.212 63.9279ZM132.075 60.2182C132.852 60.2166 133.615 60.4273 134.281 60.8275C134.947 61.2276 135.491 61.802 135.854 62.4887C135.915 62.5905 136.002 62.6742 136.106 62.7311C136.21 62.788 136.328 62.816 136.446 62.8122H152.212C152.36 62.8122 152.502 62.7535 152.607 62.6488C152.712 62.5442 152.77 62.4023 152.77 62.2544V52.8545C152.77 52.7065 152.712 52.5646 152.607 52.46C152.502 52.3554 152.36 52.2966 152.212 52.2966H111.932C111.784 52.2966 111.642 52.3554 111.537 52.46C111.432 52.5646 111.373 52.7065 111.373 52.8545V62.2265C111.373 62.3744 111.432 62.5163 111.537 62.6209C111.642 62.7256 111.784 62.7843 111.932 62.7843H127.709C127.827 62.7877 127.943 62.7594 128.046 62.7025C128.149 62.6456 128.235 62.5621 128.295 62.4608C128.663 61.7797 129.208 61.2113 129.874 60.8163C130.54 60.4213 131.3 60.2145 132.075 60.2182Z" fill="white"/>
</g>
<path d="M149.822 49.5461H114.343C113.985 49.5461 113.695 49.8359 113.695 50.1933V52.7036C113.695 53.061 113.985 53.3507 114.343 53.3507H149.822C150.18 53.3507 150.47 53.061 150.47 52.7036V50.1933C150.47 49.8359 150.18 49.5461 149.822 49.5461Z" fill="#B595D6"/>
<path opacity="0.6" d="M149.806 49.5464H114.327C113.97 49.5464 113.68 49.8361 113.68 50.1935V52.7039C113.68 53.0612 113.97 53.351 114.327 53.351H149.806C150.164 53.351 150.454 53.0612 150.454 52.7039V50.1935C150.454 49.8361 150.164 49.5464 149.806 49.5464Z" fill="white"/>
<path opacity="0.3" d="M141.208 135.495H131.271V145.425H141.208V135.495Z" fill="black"/>
<path opacity="0.3" d="M140.047 149.419H132.432C132.124 149.419 131.828 149.297 131.611 149.08C131.393 148.862 131.271 148.567 131.271 148.259C131.272 147.952 131.395 147.659 131.613 147.442C131.83 147.226 132.125 147.104 132.432 147.104H140.047C140.354 147.104 140.648 147.226 140.866 147.442C141.084 147.659 141.207 147.952 141.208 148.259C141.208 148.567 141.086 148.862 140.868 149.08C140.65 149.297 140.355 149.419 140.047 149.419Z" fill="black"/>
<path opacity="0.3" d="M172.026 135.495H146.468C145.882 135.495 145.407 135.97 145.407 136.555V136.561C145.407 137.146 145.882 137.621 146.468 137.621H172.026C172.612 137.621 173.087 137.146 173.087 136.561V136.555C173.087 135.97 172.612 135.495 172.026 135.495Z" fill="black"/>
<path opacity="0.3" d="M166.444 141.074H146.468C145.882 141.074 145.407 141.549 145.407 142.134V142.139C145.407 142.725 145.882 143.199 146.468 143.199H166.444C167.029 143.199 167.504 142.725 167.504 142.139V142.134C167.504 141.549 167.029 141.074 166.444 141.074Z" fill="black"/>
<path opacity="0.3" d="M172.026 146.653H146.468C145.882 146.653 145.407 147.127 145.407 147.713V147.718C145.407 148.303 145.882 148.778 146.468 148.778H172.026C172.612 148.778 173.087 148.303 173.087 147.718V147.713C173.087 147.127 172.612 146.653 172.026 146.653Z" fill="black"/>
<path opacity="0.3" d="M157.511 152.231H146.468C145.882 152.231 145.407 152.705 145.407 153.291V153.296C145.407 153.882 145.882 154.356 146.468 154.356H157.511C158.097 154.356 158.572 153.882 158.572 153.296V153.291C158.572 152.705 158.097 152.231 157.511 152.231Z" fill="black"/>
<path opacity="0.3" d="M161.446 72.1952H102.424C101.914 72.1937 101.425 71.9904 101.064 71.6298C100.703 71.2692 100.5 70.7805 100.498 70.2706C100.498 69.7601 100.701 69.2706 101.062 68.9097C101.423 68.5487 101.913 68.3459 102.424 68.3459H161.446C161.957 68.3459 162.447 68.5487 162.808 68.9097C163.169 69.2706 163.372 69.7601 163.372 70.2706C163.371 70.7805 163.168 71.2692 162.807 71.6298C162.446 71.9904 161.957 72.1937 161.446 72.1952Z" fill="black"/>
<path opacity="0.3" d="M171.289 83.5866H132.331C132.049 83.5851 131.78 83.4722 131.581 83.2726C131.382 83.0729 131.271 82.8027 131.271 82.5211C131.271 82.24 131.382 81.9704 131.581 81.7716C131.78 81.5729 132.05 81.4612 132.331 81.4612H171.289C171.57 81.4612 171.84 81.5729 172.039 81.7716C172.238 81.9704 172.349 82.24 172.349 82.5211C172.349 82.8027 172.238 83.0729 172.039 83.2726C171.84 83.4722 171.57 83.5851 171.289 83.5866Z" fill="black"/>
<path opacity="0.3" d="M165.706 89.1652H132.331C132.049 89.1638 131.78 89.0508 131.581 88.8512C131.382 88.6515 131.271 88.3814 131.271 88.0997C131.271 87.8186 131.382 87.549 131.581 87.3502C131.78 87.1515 132.05 87.0398 132.331 87.0398H165.706C165.987 87.0398 166.257 87.1515 166.456 87.3502C166.655 87.549 166.766 87.8186 166.766 88.0997C166.766 88.3814 166.655 88.6515 166.456 88.8512C166.257 89.0508 165.988 89.1638 165.706 89.1652Z" fill="black"/>
<path opacity="0.3" d="M171.289 94.7438H132.331C132.049 94.7424 131.78 94.6295 131.581 94.4298C131.382 94.2301 131.271 93.96 131.271 93.6783C131.271 93.3972 131.382 93.1276 131.581 92.9289C131.78 92.7301 132.05 92.6184 132.331 92.6184H171.289C171.57 92.6184 171.84 92.7301 172.039 92.9289C172.238 93.1276 172.349 93.3972 172.349 93.6783C172.349 93.96 172.238 94.2301 172.039 94.4298C171.84 94.6295 171.57 94.7424 171.289 94.7438Z" fill="black"/>
<path opacity="0.3" d="M160.123 100.322H132.331C132.049 100.321 131.78 100.208 131.581 100.008C131.382 99.8088 131.271 99.5386 131.271 99.257C131.271 98.9758 131.382 98.7062 131.581 98.5075C131.78 98.3087 132.05 98.197 132.331 98.197H160.123C160.404 98.197 160.674 98.3087 160.873 98.5075C161.072 98.7062 161.184 98.9758 161.184 99.257C161.184 99.5386 161.072 99.8088 160.873 100.008C160.674 100.208 160.405 100.321 160.123 100.322Z" fill="black"/>
<path opacity="0.3" d="M134.057 106.972L134.671 108.211L136.045 108.411L135.051 109.377L135.285 110.743L134.057 110.096L132.834 110.743L133.069 109.377L132.075 108.411L133.443 108.211L134.057 106.972Z" fill="black"/>
<path opacity="0.3" d="M140.99 106.972L141.605 108.211L142.972 108.411L141.979 109.377L142.213 110.743L140.99 110.096L139.762 110.743L139.997 109.377L139.003 108.411L140.376 108.211L140.99 106.972Z" fill="black"/>
<path opacity="0.3" d="M147.919 106.972L148.534 108.211L149.907 108.411L148.913 109.377L149.148 110.743L147.919 110.096L146.691 110.743L146.926 109.377L145.938 108.411L147.305 108.211L147.919 106.972Z" fill="black"/>
<path opacity="0.3" d="M154.853 106.972L155.461 108.211L156.835 108.411L155.841 109.377L156.075 110.743L154.853 110.096L153.624 110.743L153.859 109.377L152.865 108.411L154.239 108.211L154.853 106.972Z" fill="black"/>
<path opacity="0.3" d="M161.781 106.972L162.395 108.211L163.763 108.411L162.775 109.377L163.009 110.743L161.781 110.096L160.553 110.743L160.787 109.377L159.799 108.411L161.167 108.211L161.781 106.972Z" fill="black"/>
<path opacity="0.3" d="M134.057 114.079L134.671 115.318L136.045 115.518L135.051 116.483L135.285 117.85L134.057 117.203L132.834 117.85L133.069 116.483L132.075 115.518L133.443 115.318L134.057 114.079Z" fill="black"/>
<path opacity="0.3" d="M140.99 114.079L141.605 115.318L142.972 115.518L141.979 116.483L142.213 117.85L140.99 117.203L139.762 117.85L139.997 116.483L139.003 115.518L140.376 115.318L140.99 114.079Z" fill="black"/>
<path opacity="0.3" d="M147.919 114.079L148.534 115.318L149.907 115.518L148.913 116.483L149.148 117.85L147.919 117.203L146.691 117.85L146.926 116.483L145.938 115.518L147.305 115.318L147.919 114.079Z" fill="black"/>
<path opacity="0.1" d="M154.853 114.079L155.461 115.318L156.835 115.518L155.841 116.483L156.075 117.85L154.853 117.203L153.624 117.85L153.859 116.483L152.865 115.518L154.239 115.318L154.853 114.079Z" fill="black"/>
<path opacity="0.1" d="M161.781 114.079L162.395 115.318L163.763 115.518L162.775 116.483L163.009 117.85L161.781 117.203L160.553 117.85L160.787 116.483L159.799 115.518L161.167 115.318L161.781 114.079Z" fill="black"/>
<path opacity="0.3" d="M134.057 121.186L134.671 122.425L136.045 122.626L135.051 123.591L135.285 124.957L134.057 124.31L132.834 124.957L133.069 123.591L132.075 122.626L133.443 122.425L134.057 121.186Z" fill="black"/>
<path opacity="0.3" d="M140.99 121.186L141.605 122.425L142.972 122.626L141.979 123.591L142.213 124.957L140.99 124.31L139.762 124.957L139.997 123.591L139.003 122.626L140.376 122.425L140.99 121.186Z" fill="black"/>
<path opacity="0.3" d="M147.919 121.186L148.534 122.425L149.907 122.626L148.913 123.591L149.148 124.957L147.919 124.31L146.691 124.957L146.926 123.591L145.938 122.626L147.305 122.425L147.919 121.186Z" fill="black"/>
<path opacity="0.3" d="M154.853 121.186L155.461 122.425L156.835 122.626L155.841 123.591L156.075 124.957L154.853 124.31L153.624 124.957L153.859 123.591L152.865 122.626L154.239 122.425L154.853 121.186Z" fill="black"/>
<path opacity="0.1" d="M161.781 121.186L162.395 122.425L163.763 122.626L162.775 123.591L163.009 124.957L161.781 124.31L160.553 124.957L160.787 123.591L159.799 122.626L161.167 122.425L161.781 121.186Z" fill="black"/>
<path opacity="0.3" d="M141.208 163.388H131.271V173.318H141.208V163.388Z" fill="black"/>
<path opacity="0.3" d="M140.047 177.312H132.432C132.124 177.312 131.828 177.19 131.611 176.972C131.393 176.755 131.271 176.46 131.271 176.152C131.272 175.845 131.395 175.551 131.613 175.335C131.83 175.119 132.125 174.997 132.432 174.997H140.047C140.354 174.997 140.648 175.119 140.866 175.335C141.084 175.551 141.207 175.845 141.208 176.152C141.208 176.46 141.086 176.755 140.868 176.972C140.65 177.19 140.355 177.312 140.047 177.312Z" fill="black"/>
<path opacity="0.3" d="M172.026 163.388H146.468C145.882 163.388 145.407 163.863 145.407 164.448V164.454C145.407 165.039 145.882 165.514 146.468 165.514H172.026C172.612 165.514 173.087 165.039 173.087 164.454V164.448C173.087 163.863 172.612 163.388 172.026 163.388Z" fill="black"/>
<path opacity="0.3" d="M166.444 168.967H146.468C145.882 168.967 145.407 169.441 145.407 170.027V170.032C145.407 170.618 145.882 171.092 146.468 171.092H166.444C167.029 171.092 167.504 170.618 167.504 170.032V170.027C167.504 169.441 167.029 168.967 166.444 168.967Z" fill="black"/>
<path opacity="0.3" d="M172.026 174.545H146.468C145.882 174.545 145.407 175.02 145.407 175.605V175.611C145.407 176.196 145.882 176.671 146.468 176.671H172.026C172.612 176.671 173.087 176.196 173.087 175.611V175.605C173.087 175.02 172.612 174.545 172.026 174.545Z" fill="black"/>
<path opacity="0.3" d="M157.511 180.124H146.468C145.882 180.124 145.407 180.598 145.407 181.184V181.189C145.407 181.775 145.882 182.249 146.468 182.249H157.511C158.097 182.249 158.572 181.775 158.572 181.189V181.184C158.572 180.598 158.097 180.124 157.511 180.124Z" fill="black"/>
<path d="M124.929 81.4612H89.0977V129.002H124.929V81.4612Z" fill="white"/>
<path d="M123.254 83.1348H90.7725V127.328H123.254V83.1348Z" fill="#B595D6"/>
<path opacity="0.4" d="M123.254 83.1348H90.7725V127.328H123.254V83.1348Z" fill="white"/>
<path d="M123.254 117.454V127.328H120.73C120.032 126.664 119.262 126.078 118.436 125.582C118.037 125.342 117.609 125.155 117.163 125.024C113.372 123.998 118.838 113.867 118.838 113.867C120.099 114.269 121.668 115.697 123.254 117.454Z" fill="#B595D6"/>
<path opacity="0.6" d="M123.254 117.454V127.328H120.73C120.032 126.664 119.262 126.078 118.436 125.582C118.037 125.342 117.609 125.155 117.163 125.024C113.372 123.998 118.838 113.867 118.838 113.867C120.099 114.269 121.668 115.697 123.254 117.454Z" fill="white"/>
<path opacity="0.2" d="M123.254 127.295V127.328H120.73C120.032 126.664 119.262 126.078 118.436 125.582L119.184 120.913C119.913 121.518 120.561 122.216 121.11 122.988C122.064 124.292 122.789 125.748 123.254 127.295Z" fill="black"/>
<path d="M116.298 113.46C116.219 113.862 116.141 114.269 116.052 114.671C115.963 115.072 115.84 115.624 115.723 116.099C114.505 120.991 112.496 125.275 109.615 127.328H99.7667C96.9027 125.872 96.3555 123.423 96.4504 120.857C96.5119 119.122 96.8692 117.354 97.0087 115.836C97.053 115.313 97.053 114.787 97.0087 114.263C96.9361 113.471 96.7854 112.517 96.6012 111.474C95.747 106.615 94.0777 99.6028 94.9263 96.0046C95.9368 91.631 99.1302 90.4261 99.1302 90.4261C99.1302 90.4261 100.213 90.3535 101.877 90.3647C103.105 90.3647 104.668 90.4261 106.304 90.5823H106.421C108.256 90.7473 110.073 91.0683 111.854 91.5418L112.261 91.6589C112.613 91.7649 112.965 91.8765 113.305 91.9992C113.528 92.0773 113.746 92.161 113.964 92.2503C114.246 92.37 114.501 92.5466 114.712 92.7691C117.241 95.3631 117.866 104.875 116.298 113.46Z" fill="#263238"/>
<path d="M113.355 92.7914C116.901 91.1178 118.43 102.671 117.163 111.011" stroke="#263238" stroke-width="0.5" stroke-linecap="round" stroke-linejoin="round"/>
<path d="M121.378 127.328H95.8975C95.7914 126.848 95.6853 126.369 95.5737 125.895C94.9444 123.118 94.1103 120.392 93.0781 117.739C94.122 117.119 95.212 116.58 96.3385 116.126C96.5507 116.032 96.7684 115.942 97.0029 115.853C97.885 115.502 98.9122 115.139 100.062 114.793L100.431 114.687C101.296 114.436 102.228 114.202 103.222 113.995C105.296 113.56 107.402 113.295 109.52 113.203C111.131 113.127 112.746 113.153 114.354 113.281C114.985 113.326 115.627 113.387 116.281 113.471C117.101 113.571 117.955 113.7 118.798 113.862C118.893 114.012 120.445 116.478 121.087 122.994C121.244 124.277 121.339 125.716 121.378 127.328Z" fill="#B595D6"/>
<path d="M100.208 119.764C100.208 119.764 97.2936 112.59 106.394 111.781C115.494 110.972 117.308 116.64 117.308 116.64L113.082 115.178L110.849 125.47C109.414 121.545 106.574 118.292 102.877 116.338L100.208 119.764Z" fill="#B595D6"/>
<path opacity="0.6" d="M100.208 119.764C100.208 119.764 97.2936 112.59 106.394 111.781C115.494 110.972 117.308 116.64 117.308 116.64L113.082 115.178L110.849 125.47C109.414 121.545 106.574 118.292 102.877 116.338L100.208 119.764Z" fill="white"/>
<path d="M110.469 120.913C108.125 118.484 105.464 116.382 102.558 114.665C104.735 112.824 104.512 109.923 104.076 108.099C103.938 107.526 103.751 106.966 103.518 106.425L109.564 107.887C109.378 108.728 109.253 109.582 109.19 110.442C109.138 111.075 109.162 111.712 109.263 112.339C109.581 114.185 110.619 114.263 110.619 114.263C111.607 116.338 110.469 120.913 110.469 120.913Z" fill="#E4897B"/>
<path opacity="0.2" d="M109.212 110.436C109.16 111.069 109.184 111.706 109.285 112.333C106.878 111.887 105.142 109.851 104.076 108.11C103.937 107.537 103.751 106.978 103.518 106.437L109.564 107.898C109.386 108.735 109.268 109.583 109.212 110.436Z" fill="black"/>
<path d="M107.298 90.5542C113.88 90.5542 114.433 93.734 114.812 99.2121C115.281 106.063 113.752 110.927 107.103 109.443C98.075 107.441 98.4603 90.5542 107.298 90.5542Z" fill="#E4897B"/>
<path d="M111.373 98.9111C111.796 99.7138 112.313 100.463 112.914 101.143C112.759 101.363 112.546 101.536 112.299 101.643C112.051 101.749 111.779 101.784 111.513 101.745L111.373 98.9111Z" fill="#DE5753"/>
<path d="M108.119 98.4869C108.119 98.9276 107.901 99.2847 107.605 99.2902C107.309 99.2958 107.047 98.9499 107.047 98.5092C107.047 98.0685 107.265 97.7171 107.555 97.7115C107.845 97.7059 108.108 98.0295 108.119 98.4869Z" fill="#263238"/>
<path d="M107.454 97.7115L108.398 97.3154C108.398 97.3154 107.94 98.1243 107.454 97.7115Z" fill="#263238"/>
<path d="M113.55 98.2584C113.55 98.6991 113.333 99.0561 113.037 99.0617C112.741 99.0673 112.479 98.7214 112.479 98.2807C112.479 97.84 112.696 97.4886 112.987 97.483C113.277 97.4774 113.539 97.8233 113.55 98.2584Z" fill="#263238"/>
<path d="M112.886 97.5053L113.824 97.1147C113.824 97.1147 113.399 97.9292 112.886 97.5053Z" fill="#263238"/>
<path d="M108.074 94.7941C108.074 94.7941 106.578 94.5989 105.763 95.5919" stroke="#263238" stroke-width="0.707962" stroke-linecap="round" stroke-linejoin="round"/>
<path d="M111.942 94.5819C112.305 94.4905 112.685 94.4827 113.051 94.5591C113.418 94.6354 113.762 94.7939 114.058 95.0226" stroke="#263238" stroke-width="0.707962" stroke-linecap="round" stroke-linejoin="round"/>
<path d="M101.575 99.8205C101.575 99.8205 104.071 95.458 103.702 92.083C103.702 92.083 107.454 88.2171 112.506 92.0384C112.506 92.0384 114.622 95.6756 114.74 98.4984C114.74 98.4984 115.789 89.0148 106.644 88.7749C97.4997 88.535 97.522 101.912 102.234 105.907C102.234 105.907 100.029 102.548 101.575 99.8205Z" fill="#263238"/>
<path d="M102.441 100.942C102.39 100.327 102.097 99.7576 101.628 99.3574C101.158 98.9572 100.55 98.7587 99.9341 98.8049C98.2593 98.9835 97.4888 102.364 101.609 103.184C102.178 103.301 102.513 102.727 102.441 100.942Z" fill="#E4897B"/>
<path d="M110.793 104.624C110.793 104.624 108.56 105.126 107.639 103.134" stroke="#263238" stroke-width="0.707962" stroke-linecap="round" stroke-linejoin="round"/>
<path d="M103.703 92.0829C103.703 92.0829 109.782 89.3884 113.808 92.9476C113.808 92.9476 115.388 88.2616 109.995 86.6605C104.602 85.0595 99.1191 90.4483 99.1191 90.4483L103.703 92.0829Z" fill="#263238"/>
<path d="M103.702 92.0828C103.702 92.0828 100.152 95.5806 100.665 102.548C101.179 109.516 100.504 113.923 99.119 118.285C97.7344 122.648 101.352 123.948 101.352 123.948C101.352 123.948 97.2208 124.963 96.3722 120.545C95.8139 117.644 97.1426 111.362 96.4727 103.881C95.8027 96.4006 98.4769 91.1065 103.702 92.0828Z" fill="#263238"/>
<path opacity="0.2" d="M97.075 127.328H95.897C95.791 126.849 95.6849 126.369 95.5732 125.895L96.4609 125.119C96.7117 125.842 96.9168 126.58 97.075 127.328Z" fill="black"/>
<path d="M96.467 127.328H90.7725V119.518C91.4767 118.852 92.2474 118.259 93.0726 117.75C93.8917 118.096 94.6075 118.647 95.1504 119.351C95.6933 120.055 96.0449 120.887 96.1711 121.766C96.3355 122.875 96.4306 123.993 96.4558 125.113C96.4837 125.911 96.4782 126.675 96.467 127.328Z" fill="#B595D6"/>
<path opacity="0.6" d="M96.467 127.328H90.7725V119.518C91.4767 118.852 92.2474 118.259 93.0726 117.75C93.8917 118.096 94.6075 118.647 95.1504 119.351C95.6933 120.055 96.0449 120.887 96.1711 121.766C96.3355 122.875 96.4306 123.993 96.4558 125.113C96.4837 125.911 96.4782 126.675 96.467 127.328Z" fill="white"/>
<path opacity="0.3" d="M124.929 134.542H89.0977V182.015H124.929V134.542Z" fill="black"/>
<path opacity="0.3" d="M118.904 141.899H94.468C94.1861 141.898 93.9163 141.785 93.7176 141.585C93.5188 141.386 93.4072 141.115 93.4072 140.834C93.4072 140.553 93.519 140.283 93.7179 140.084C93.9168 139.886 94.1866 139.774 94.468 139.774H118.904C119.044 139.773 119.183 139.8 119.312 139.853C119.441 139.906 119.559 139.984 119.658 140.082C119.757 140.181 119.836 140.298 119.889 140.427C119.943 140.556 119.971 140.694 119.971 140.834C119.971 140.974 119.943 141.112 119.889 141.242C119.836 141.371 119.757 141.488 119.658 141.587C119.559 141.686 119.442 141.765 119.312 141.818C119.183 141.872 119.044 141.899 118.904 141.899Z" fill="white"/>
<path opacity="0.3" d="M118.91 145.71H94.468C93.8821 145.71 93.4072 146.184 93.4072 146.77V146.775C93.4072 147.361 93.8821 147.835 94.468 147.835H118.91C119.496 147.835 119.971 147.361 119.971 146.775V146.77C119.971 146.184 119.496 145.71 118.91 145.71Z" fill="white"/>
<path opacity="0.3" d="M107.738 153.776H94.468C94.1861 153.775 93.9163 153.662 93.7176 153.462C93.5188 153.263 93.4072 152.992 93.4072 152.711C93.4072 152.43 93.519 152.16 93.7179 151.961C93.9168 151.763 94.1866 151.651 94.468 151.651H107.738C107.878 151.65 108.017 151.677 108.146 151.73C108.275 151.783 108.393 151.861 108.492 151.959C108.591 152.058 108.67 152.175 108.724 152.304C108.777 152.433 108.805 152.571 108.805 152.711C108.805 152.993 108.692 153.264 108.492 153.464C108.293 153.664 108.021 153.776 107.738 153.776Z" fill="white"/>
<path opacity="0.3" d="M118.904 159.712H94.468C94.1866 159.712 93.9168 159.6 93.7179 159.401C93.519 159.203 93.4072 158.933 93.4072 158.652C93.4072 158.37 93.5188 158.1 93.7176 157.9C93.9163 157.701 94.1861 157.588 94.468 157.586H118.904C119.187 157.586 119.458 157.699 119.658 157.899C119.858 158.098 119.971 158.369 119.971 158.652C119.971 158.792 119.943 158.93 119.889 159.059C119.836 159.188 119.757 159.305 119.658 159.403C119.559 159.502 119.441 159.58 119.312 159.633C119.183 159.686 119.044 159.713 118.904 159.712Z" fill="white"/>
<path opacity="0.3" d="M118.904 165.647H94.468C94.1866 165.647 93.9168 165.536 93.7179 165.337C93.519 165.138 93.4072 164.869 93.4072 164.588C93.4072 164.306 93.519 164.037 93.7179 163.838C93.9168 163.639 94.1866 163.528 94.468 163.528H118.904C119.044 163.527 119.183 163.554 119.312 163.607C119.441 163.66 119.559 163.738 119.658 163.836C119.757 163.935 119.836 164.052 119.889 164.181C119.943 164.31 119.971 164.448 119.971 164.588C119.971 164.727 119.943 164.865 119.889 164.994C119.836 165.123 119.757 165.24 119.658 165.339C119.559 165.437 119.441 165.515 119.312 165.568C119.183 165.621 119.044 165.648 118.904 165.647Z" fill="white"/>
<path opacity="0.3" d="M102.156 171.566H94.468C94.1867 171.566 93.9169 171.455 93.7179 171.256C93.519 171.057 93.4072 170.788 93.4072 170.506C93.4065 170.367 93.4334 170.228 93.4864 170.099C93.5394 169.97 93.6174 169.852 93.7159 169.753C93.8145 169.654 93.9317 169.576 94.0608 169.522C94.1898 169.469 94.3282 169.441 94.468 169.441H102.156C102.296 169.44 102.435 169.467 102.565 169.521C102.694 169.574 102.812 169.652 102.911 169.751C103.01 169.85 103.089 169.968 103.142 170.098C103.196 170.227 103.223 170.366 103.222 170.506C103.222 170.646 103.194 170.784 103.141 170.913C103.087 171.042 103.008 171.159 102.909 171.258C102.81 171.356 102.693 171.434 102.563 171.487C102.434 171.54 102.295 171.567 102.156 171.566Z" fill="white"/>
<path opacity="0.3" d="M113.321 177.524H94.468C94.1866 177.524 93.9168 177.412 93.7179 177.214C93.519 177.015 93.4072 176.745 93.4072 176.464C93.4072 176.183 93.519 175.914 93.7179 175.715C93.9168 175.516 94.1866 175.404 94.468 175.404H113.321C113.461 175.404 113.6 175.43 113.729 175.483C113.858 175.536 113.976 175.614 114.075 175.713C114.174 175.811 114.253 175.928 114.306 176.057C114.36 176.186 114.388 176.325 114.388 176.464C114.388 176.604 114.36 176.742 114.306 176.871C114.253 177 114.174 177.117 114.075 177.216C113.976 177.314 113.858 177.392 113.729 177.445C113.6 177.498 113.461 177.525 113.321 177.524Z" fill="white"/>
<path d="M204.696 173.179C204.222 172.989 203.709 172.916 203.201 172.966C202.693 173.015 202.204 173.186 201.776 173.463C199.068 175.008 197.935 181.357 197.46 186.294C197.633 179.293 198.783 169.608 203.378 164.337L202.959 163.974C199.113 168.381 197.617 175.611 197.097 181.954C197.025 179.254 196.857 176.33 196.5 173.547C196.623 167.572 197.142 162.15 198.51 160.303L198.058 159.969C196.852 161.597 196.271 165.737 196.037 170.568C195.35 166.947 194.256 163.874 192.542 162.295L192.168 162.702C194.211 164.582 195.339 168.872 195.93 173.614C195.93 174.283 195.93 174.964 195.903 175.644C195.372 172.855 194.658 170.562 193.714 169.642C190.532 166.551 186.791 169.597 186.758 169.642L187.115 170.066C187.249 169.954 190.504 167.315 193.323 170.066C194.563 171.265 195.383 175.187 195.919 179.326C195.992 184.286 196.238 188.949 196.405 191.66C196.405 192.09 196.366 192.335 196.366 192.358H196.45C196.511 193.295 196.556 193.897 196.567 194.031L197.058 193.992C197.058 194.333 197.108 194.55 197.114 194.634L197.672 194.584C197.672 194.539 197.589 193.713 197.527 192.352H197.7C197.7 192.196 197.884 176.342 202.083 173.943C202.437 173.708 202.843 173.563 203.266 173.519C203.689 173.476 204.116 173.535 204.511 173.692C206.968 174.707 208.28 179.404 208.291 179.454L208.849 179.304C208.743 179.103 207.409 174.3 204.696 173.179Z" fill="#263238"/>
<path d="M190.175 173.686C187.735 173.859 185.848 177.156 185.765 177.295L186.256 177.569C186.256 177.535 188.076 174.395 190.214 174.222C191.113 174.166 191.967 174.651 192.76 175.678C196.054 179.979 195.39 192.196 195.384 192.319L195.942 192.352C195.942 191.839 196.623 179.8 193.201 175.343C192.291 174.171 191.269 173.608 190.175 173.686Z" fill="#263238"/>
<g opacity="0.2">
<path d="M204.697 173.179C204.223 172.989 203.71 172.916 203.202 172.966C202.694 173.015 202.205 173.186 201.777 173.463C199.069 175.008 197.936 181.357 197.461 186.294C197.634 179.293 198.784 169.608 203.379 164.337L202.96 163.974C199.114 168.381 197.617 175.611 197.098 181.954C197.026 179.254 196.858 176.33 196.501 173.547C196.624 167.572 197.143 162.15 198.511 160.303L198.059 159.969C196.853 161.597 196.272 165.737 196.038 170.568C195.351 166.947 194.257 163.874 192.543 162.295L192.169 162.702C194.212 164.582 195.34 168.872 195.931 173.614C195.931 174.283 195.931 174.964 195.904 175.644C195.373 172.855 194.659 170.562 193.715 169.642C190.533 166.551 186.792 169.597 186.759 169.642L187.116 170.066C187.25 169.954 190.505 167.315 193.324 170.066C194.564 171.265 195.384 175.187 195.92 179.326C195.993 184.286 196.239 188.949 196.406 191.66C196.406 192.09 196.367 192.335 196.367 192.358H196.451C196.512 193.295 196.557 193.897 196.568 194.031L197.059 193.992C197.059 194.333 197.109 194.55 197.115 194.634L197.673 194.584C197.673 194.539 197.59 193.713 197.528 192.352H197.701C197.701 192.196 197.885 176.342 202.084 173.943C202.438 173.708 202.844 173.563 203.267 173.519C203.69 173.476 204.117 173.535 204.512 173.692C206.969 174.707 208.281 179.404 208.292 179.454L208.85 179.304C208.744 179.103 207.41 174.3 204.697 173.179Z" fill="white"/>
<path d="M190.175 173.686C187.735 173.859 185.848 177.156 185.765 177.296L186.256 177.569C186.256 177.536 188.076 174.395 190.214 174.222C191.113 174.166 191.967 174.651 192.76 175.678C196.054 179.979 195.39 192.196 195.384 192.319L195.942 192.352C195.942 191.839 196.623 179.8 193.201 175.343C192.291 174.172 191.269 173.608 190.175 173.686Z" fill="white"/>
</g>
<path d="M205.668 176.057C205.668 176.057 203.485 176.861 204.133 178.763C204.78 180.665 211.692 183.784 211.692 183.784C211.692 183.784 214.59 181.134 211.932 176.822C209.275 172.509 205.729 174.696 205.668 176.057Z" fill="#263238"/>
<path d="M196.166 172.437C196.166 172.437 198.494 172.336 198.628 174.345C198.762 176.353 193.603 181.892 193.603 181.892C193.603 181.892 189.908 180.559 190.7 175.555C191.493 170.551 195.591 171.204 196.166 172.437Z" fill="#263238"/>
<path d="M194.195 162.841C194.195 162.841 195.748 162.674 195.625 161.726C195.502 160.777 189.59 158.351 186.134 162.284C186.134 162.284 188.367 166.111 191.594 166.161C194.821 166.211 194.195 162.841 194.195 162.841Z" fill="#263238"/>
<path d="M197.086 160.549C197.086 160.549 195.685 161.229 195.289 160.359C194.892 159.489 198.638 154.306 203.663 155.801C203.663 155.801 203.797 160.231 201.089 161.977C198.381 163.723 197.086 160.549 197.086 160.549Z" fill="#263238"/>
<path d="M189.74 175.293C189.74 175.293 190.812 174.428 189.656 174.004C188.5 173.58 182.828 173.703 182.772 179.315C182.772 179.315 189.377 180.431 190.192 178.277C191.007 176.124 189.74 175.293 189.74 175.293Z" fill="#263238"/>
<path d="M203.211 162.702C203.211 162.702 202.139 161.837 203.295 161.413C204.45 160.989 210.123 161.112 210.178 166.724C210.178 166.724 203.574 167.84 202.759 165.687C201.944 163.533 203.211 162.702 203.211 162.702Z" fill="#263238"/>
<path d="M199.717 167.221C199.717 167.221 199.622 166.172 200.47 166.585C201.319 166.998 204.278 170.183 201.213 173.207C201.213 173.207 197.087 170.155 197.83 168.565C198.572 166.975 199.717 167.221 199.717 167.221Z" fill="#263238"/>
<path d="M188.769 168.721C188.769 168.721 189.405 167.879 188.473 167.779C187.541 167.678 183.331 168.794 184.308 172.983C184.308 172.983 189.428 172.598 189.645 170.858C189.863 169.117 188.769 168.721 188.769 168.721Z" fill="#263238"/>
<path d="M206.075 207.916H188.512L186.619 188.704H207.974L206.075 207.916Z" fill="#B595D6"/>
<path opacity="0.2" d="M206.075 207.916H188.512L186.619 188.704H207.974L206.075 207.916Z" fill="white"/>
<path d="M208.911 186.584H185.681V190.824H208.911V186.584Z" fill="#B595D6"/>
<path opacity="0.5" d="M208.911 186.584H185.681V190.824H208.911V186.584Z" fill="white"/>
</g>
<defs>
<clipPath id="clip0_243_2323">
<rect width="247" height="213" fill="white"/>
</clipPath>
</defs>
</svg>
