<svg width="239" height="226" viewBox="0 0 239 226" fill="none" xmlns="http://www.w3.org/2000/svg">
<g clip-path="url(#clip0_243_4079)">
<path d="M261.981 194.445H-28.7256V194.59H261.981V194.445Z" fill="#EBEBEB"/>
<path d="M232.852 203.785H213.596V203.931H232.852V203.785Z" fill="#EBEBEB"/>
<path d="M163.85 205.364H158.798V205.509H163.85V205.364Z" fill="#EBEBEB"/>
<path d="M213.015 198.398H201.857V198.544H213.015V198.398Z" fill="#EBEBEB"/>
<path d="M26.8866 199.374H1.77539V199.519H26.8866V199.374Z" fill="#EBEBEB"/>
<path d="M35.7477 199.374H32.0674V199.519H35.7477V199.374Z" fill="#EBEBEB"/>
<path d="M102.18 201.823H47.7129V201.968H102.18V201.823Z" fill="#EBEBEB"/>
<path d="M109.069 168.556H-3.19571C-4.07519 168.554 -4.91811 168.204 -5.53945 167.583C-6.16079 166.961 -6.50977 166.119 -6.50977 165.241V7.67936C-6.50211 6.80632 -6.14976 5.97155 -5.52924 5.35637C-4.90873 4.7412 -4.07017 4.39529 -3.19571 4.3938H109.069C109.95 4.3938 110.794 4.74301 111.417 5.36462C112.04 5.98622 112.389 6.8293 112.389 7.70838V165.241C112.389 166.12 112.04 166.963 111.417 167.585C110.794 168.206 109.95 168.556 109.069 168.556ZM-3.19571 4.5099C-4.03664 4.51143 -4.84259 4.84604 -5.43667 5.44026C-6.03075 6.03448 -6.36441 6.83977 -6.36441 7.67936V165.241C-6.36441 166.081 -6.03075 166.886 -5.43667 167.48C-4.84259 168.074 -4.03664 168.409 -3.19571 168.41H109.069C109.911 168.409 110.717 168.075 111.312 167.48C111.907 166.886 112.242 166.081 112.244 165.241V7.67936C112.242 6.83924 111.907 6.03396 111.312 5.4399C110.717 4.84585 109.911 4.51143 109.069 4.5099H-3.19571Z" fill="#EBEBEB"/>
<path d="M234.835 168.556H122.564C121.684 168.554 120.84 168.204 120.218 167.583C119.596 166.962 119.246 166.12 119.244 165.241V7.67936C119.253 6.80579 119.607 5.97103 120.228 5.35601C120.85 4.74099 121.689 4.39528 122.564 4.3938H234.835C235.708 4.39682 236.545 4.7434 237.165 5.35841C237.784 5.97342 238.136 6.80732 238.143 7.67936V165.241C238.143 166.118 237.795 166.959 237.175 167.581C236.555 168.202 235.713 168.553 234.835 168.556ZM122.564 4.5099C121.723 4.51143 120.916 4.84585 120.321 5.4399C119.726 6.03396 119.391 6.83924 119.389 7.67936V165.241C119.391 166.081 119.726 166.886 120.321 167.48C120.916 168.075 121.723 168.409 122.564 168.41H234.835C235.676 168.409 236.483 168.075 237.078 167.48C237.673 166.886 238.008 166.081 238.009 165.241V7.67936C238.008 6.83924 237.673 6.03396 237.078 5.4399C236.483 4.84585 235.676 4.51143 234.835 4.5099H122.564Z" fill="#EBEBEB"/>
<path d="M68.8359 32.4719H27.4102V172.782H68.8359V32.4719Z" fill="#FAFAFA"/>
<path d="M62.6676 32.4719H60.2489L45.8008 172.782H48.2195L62.6676 32.4719Z" fill="#F5F5F5"/>
<path d="M68.1022 33.0176H27.1416V34.254H68.1022V33.0176Z" fill="#E0E0E0"/>
<path d="M68.1022 171.557H27.1416V174.204H68.1022V171.557Z" fill="#EBEBEB"/>
<path d="M67.4234 174.088H28.7188V174.204H67.4234V174.088Z" fill="#EBEBEB"/>
<path d="M28.7183 33.0176H67.423V174.088H69.7428V31.282H26.3984V174.088H28.7183V33.0176Z" fill="#EBEBEB"/>
<path d="M114.935 32.4719H73.5098V172.782H114.935V32.4719Z" fill="#FAFAFA"/>
<path d="M103.442 32.4719H90.2382L75.79 172.782H88.9939L103.442 32.4719Z" fill="#F5F5F5"/>
<path d="M115.367 33.0176H73.2432V34.254H115.367V33.0176Z" fill="#E0E0E0"/>
<path d="M115.367 171.557H73.2432V174.204H115.367V171.557Z" fill="#EBEBEB"/>
<path d="M113.523 174.088H74.8184V174.204H113.523V174.088Z" fill="#EBEBEB"/>
<path d="M74.8179 33.0176H113.523V174.088H115.837V31.282H72.498V174.088H74.8179V33.0176Z" fill="#EBEBEB"/>
<path d="M159.867 32.4719H119.604V172.782H159.867V32.4719Z" fill="#FAFAFA"/>
<path d="M142.42 32.4719H140.001L125.553 172.782H127.971L142.42 32.4719Z" fill="#F5F5F5"/>
<path d="M160.304 33.0176H119.344V34.254H160.304V33.0176Z" fill="#E0E0E0"/>
<path d="M160.304 171.557H119.344V174.204H160.304V171.557Z" fill="#EBEBEB"/>
<path d="M159.624 174.088H120.919V174.204H159.624V174.088Z" fill="#EBEBEB"/>
<path d="M120.919 33.0175H159.618V174.088H161.938V31.2819H118.6V174.088H120.919V33.0175Z" fill="#EBEBEB"/>
<path d="M207.131 32.4719H165.705V172.782H207.131V32.4719Z" fill="#FAFAFA"/>
<path d="M203.079 32.4719H189.875L175.421 172.782H188.631L203.079 32.4719Z" fill="#F5F5F5"/>
<path d="M206.398 33.0176H165.438V34.254H206.398V33.0176Z" fill="#E0E0E0"/>
<path d="M206.398 171.557H165.438V174.204H206.398V171.557Z" fill="#EBEBEB"/>
<path d="M167.013 33.0176H205.718V174.088H208.038V31.282H164.699V174.088H167.013V33.0176Z" fill="#EBEBEB"/>
<path d="M205.717 174.088H167.013V174.204H205.717V174.088Z" fill="#EBEBEB"/>
<path d="M56.0153 140.501H38.0322V171.551H56.0153V140.501Z" fill="#EBEBEB"/>
<path d="M52.5623 136.159V143.949H51.1494H42.905H41.4863V136.159H52.5623Z" fill="#EBEBEB"/>
<path d="M52.5619 143.949H54.8643V141.65H52.5619V143.949Z" fill="#FAFAFA"/>
<path d="M48.1087 143.949H50.4111V141.65H48.1087V143.949Z" fill="#FAFAFA"/>
<path d="M43.6488 143.949H45.9512V141.65H43.6488V143.949Z" fill="#FAFAFA"/>
<path d="M39.1888 143.949H41.4912V141.65H39.1888V143.949Z" fill="#F0F0F0"/>
<path d="M52.5619 148.128H54.8643V145.83H52.5619V148.128Z" fill="#F0F0F0"/>
<path d="M48.1087 148.128H50.4111V145.83H48.1087V148.128Z" fill="#F0F0F0"/>
<path d="M43.6488 148.128H45.9512V145.83H43.6488V148.128Z" fill="#FAFAFA"/>
<path d="M39.1888 148.128H41.4912V145.83H39.1888V148.128Z" fill="#FAFAFA"/>
<path d="M52.5619 152.302H54.8643V150.003H52.5619V152.302Z" fill="#F0F0F0"/>
<path d="M48.1087 152.302H50.4111V150.003H48.1087V152.302Z" fill="#FAFAFA"/>
<path d="M43.6488 152.302H45.9512V150.003H43.6488V152.302Z" fill="#FAFAFA"/>
<path d="M48.1087 140.338H50.4111V138.039H48.1087V140.338Z" fill="#FAFAFA"/>
<path d="M43.6488 140.338H45.9512V138.039H43.6488V140.338Z" fill="#F0F0F0"/>
<path d="M39.1888 152.302H41.4912V150.003H39.1888V152.302Z" fill="#F0F0F0"/>
<path d="M52.5619 156.476H54.8643V154.177H52.5619V156.476Z" fill="#FAFAFA"/>
<path d="M48.1087 156.476H50.4111V154.177H48.1087V156.476Z" fill="#F0F0F0"/>
<path d="M43.6488 156.476H45.9512V154.177H43.6488V156.476Z" fill="#F0F0F0"/>
<path d="M39.1888 156.476H41.4912V154.177H39.1888V156.476Z" fill="#FAFAFA"/>
<path d="M52.5619 160.655H54.8643V158.356H52.5619V160.655Z" fill="#F0F0F0"/>
<path d="M48.1087 160.655H50.4111V158.356H48.1087V160.655Z" fill="#FAFAFA"/>
<path d="M43.6488 160.655H45.9512V158.356H43.6488V160.655Z" fill="#FAFAFA"/>
<path d="M39.1888 160.655H41.4912V158.356H39.1888V160.655Z" fill="#F0F0F0"/>
<path d="M52.5619 164.829H54.8643V162.53H52.5619V164.829Z" fill="#F0F0F0"/>
<path d="M48.1087 164.829H50.4111V162.53H48.1087V164.829Z" fill="#FAFAFA"/>
<path d="M43.6488 164.829H45.9512V162.53H43.6488V164.829Z" fill="#F0F0F0"/>
<path d="M39.1888 164.829H41.4912V162.53H39.1888V164.829Z" fill="#FAFAFA"/>
<path d="M52.5619 169.014H54.8643V166.716H52.5619V169.014Z" fill="#FAFAFA"/>
<path d="M48.1087 169.014H50.4111V166.716H48.1087V169.014Z" fill="#FAFAFA"/>
<path d="M43.6488 169.014H45.9512V166.716H43.6488V169.014Z" fill="#F0F0F0"/>
<path d="M39.1888 169.014H41.4912V166.716H39.1888V169.014Z" fill="#F0F0F0"/>
<path d="M157.408 140.501H139.425V171.551H157.408V140.501Z" fill="#EBEBEB"/>
<path d="M153.961 136.159V143.949H152.542H144.298H142.879V136.159H153.961Z" fill="#EBEBEB"/>
<path d="M153.954 143.949H156.257V141.65H153.954V143.949Z" fill="#FAFAFA"/>
<path d="M149.495 143.949H151.798V141.65H149.495V143.949Z" fill="#FAFAFA"/>
<path d="M145.042 143.949H147.345V141.65H145.042V143.949Z" fill="#FAFAFA"/>
<path d="M140.581 143.949H142.884V141.65H140.581V143.949Z" fill="#F0F0F0"/>
<path d="M153.954 148.128H156.257V145.83H153.954V148.128Z" fill="#F0F0F0"/>
<path d="M149.495 148.128H151.798V145.83H149.495V148.128Z" fill="#F0F0F0"/>
<path d="M145.042 148.128H147.345V145.83H145.042V148.128Z" fill="#FAFAFA"/>
<path d="M140.581 148.128H142.884V145.83H140.581V148.128Z" fill="#FAFAFA"/>
<path d="M153.954 152.302H156.257V150.003H153.954V152.302Z" fill="#F0F0F0"/>
<path d="M149.495 152.302H151.798V150.003H149.495V152.302Z" fill="#FAFAFA"/>
<path d="M145.042 152.302H147.345V150.003H145.042V152.302Z" fill="#FAFAFA"/>
<path d="M149.495 140.338H151.798V138.039H149.495V140.338Z" fill="#FAFAFA"/>
<path d="M145.042 140.338H147.345V138.039H145.042V140.338Z" fill="#F0F0F0"/>
<path d="M140.581 152.302H142.884V150.003H140.581V152.302Z" fill="#F0F0F0"/>
<path d="M153.954 156.476H156.257V154.177H153.954V156.476Z" fill="#FAFAFA"/>
<path d="M149.495 156.476H151.798V154.177H149.495V156.476Z" fill="#F0F0F0"/>
<path d="M145.042 156.476H147.345V154.177H145.042V156.476Z" fill="#F0F0F0"/>
<path d="M140.581 156.476H142.884V154.177H140.581V156.476Z" fill="#FAFAFA"/>
<path d="M153.954 160.655H156.257V158.356H153.954V160.655Z" fill="#F0F0F0"/>
<path d="M149.495 160.655H151.798V158.356H149.495V160.655Z" fill="#FAFAFA"/>
<path d="M145.042 160.655H147.345V158.356H145.042V160.655Z" fill="#FAFAFA"/>
<path d="M140.581 160.655H142.884V158.356H140.581V160.655Z" fill="#F0F0F0"/>
<path d="M153.954 164.829H156.257V162.53H153.954V164.829Z" fill="#F0F0F0"/>
<path d="M149.495 164.829H151.798V162.53H149.495V164.829Z" fill="#FAFAFA"/>
<path d="M145.042 164.829H147.345V162.53H145.042V164.829Z" fill="#F0F0F0"/>
<path d="M140.581 164.829H142.884V162.53H140.581V164.829Z" fill="#FAFAFA"/>
<path d="M153.954 169.014H156.257V166.716H153.954V169.014Z" fill="#FAFAFA"/>
<path d="M149.495 169.014H151.798V166.716H149.495V169.014Z" fill="#FAFAFA"/>
<path d="M145.042 169.014H147.345V166.716H145.042V169.014Z" fill="#F0F0F0"/>
<path d="M140.581 169.014H142.884V166.716H140.581V169.014Z" fill="#F0F0F0"/>
<path d="M185.978 151.808H169.867V171.545H185.978V151.808Z" fill="#F0F0F0"/>
<path d="M171.269 153.997H175.013H176.048H177.077V156.058H176.048H175.013H171.269V153.997Z" fill="#E6E6E6"/>
<path d="M171.269 157.991H175.013H176.048H177.077V160.046H176.048H175.013H171.269V157.991Z" fill="#FAFAFA"/>
<path d="M171.269 161.979H175.013H176.048H177.077V164.034H176.048H175.013H171.269V161.979Z" fill="#E6E6E6"/>
<path d="M171.269 165.967H175.013H176.612H177.077V168.027H176.612H175.013H171.269V165.967Z" fill="#FAFAFA"/>
<path d="M178.764 153.997H182.514H183.543H184.572V156.058H183.543H182.514H178.764V153.997Z" fill="#FAFAFA"/>
<path d="M178.764 157.991H182.514H183.967H184.572V160.046H183.967H182.514H178.764V157.991Z" fill="#FAFAFA"/>
<path d="M178.764 161.979H182.514H183.543H184.572V164.034H183.543H182.514H178.764V161.979Z" fill="#E6E6E6"/>
<path d="M178.764 165.967H182.514H183.543H184.572V168.027H183.543H182.514H178.764V165.967Z" fill="#FAFAFA"/>
<path d="M109.146 159.285H94.5059V171.551H109.146V159.285Z" fill="#F0F0F0"/>
<path d="M106.331 162.687H108.203V160.818H106.331V162.687Z" fill="#FAFAFA"/>
<path d="M102.697 162.687H104.569V160.818H102.697V162.687Z" fill="#FAFAFA"/>
<path d="M99.0751 162.687H100.947V160.818H99.0751V162.687Z" fill="#FAFAFA"/>
<path d="M95.4403 162.687H97.3125V160.818H95.4403V162.687Z" fill="#FAFAFA"/>
<path d="M106.331 166.083H108.203V164.214H106.331V166.083Z" fill="#FAFAFA"/>
<path d="M102.697 166.083H104.569V164.214H102.697V166.083Z" fill="#FAFAFA"/>
<path d="M99.0751 166.083H100.947V164.214H99.0751V166.083Z" fill="#FAFAFA"/>
<path d="M95.4403 166.083H97.3125V164.214H95.4403V166.083Z" fill="#E6E6E6"/>
<path d="M106.331 169.479H108.203V167.609H106.331V169.479Z" fill="#E6E6E6"/>
<path d="M102.697 169.479H104.569V167.609H102.697V169.479Z" fill="#E6E6E6"/>
<path d="M99.0751 169.479H100.947V167.609H99.0751V169.479Z" fill="#FAFAFA"/>
<path d="M95.4403 169.479H97.3125V167.609H95.4403V169.479Z" fill="#E6E6E6"/>
<path d="M137.89 159.285H123.25V171.551H137.89V159.285Z" fill="#F0F0F0"/>
<path d="M135.082 162.687H136.954V160.818H135.082V162.687Z" fill="#FAFAFA"/>
<path d="M131.448 162.687H133.32V160.818H131.448V162.687Z" fill="#FAFAFA"/>
<path d="M127.814 162.687H129.687V160.818H127.814V162.687Z" fill="#FAFAFA"/>
<path d="M124.191 162.687H126.063V160.818H124.191V162.687Z" fill="#FAFAFA"/>
<path d="M135.082 166.083H136.954V164.214H135.082V166.083Z" fill="#FAFAFA"/>
<path d="M131.448 166.083H133.32V164.214H131.448V166.083Z" fill="#FAFAFA"/>
<path d="M127.814 166.083H129.687V164.214H127.814V166.083Z" fill="#FAFAFA"/>
<path d="M124.191 166.083H126.063V164.214H124.191V166.083Z" fill="#E6E6E6"/>
<path d="M135.082 169.479H136.954V167.609H135.082V169.479Z" fill="#E6E6E6"/>
<path d="M131.448 169.479H133.32V167.609H131.448V169.479Z" fill="#E6E6E6"/>
<path d="M127.814 169.479H129.687V167.609H127.814V169.479Z" fill="#FAFAFA"/>
<path d="M124.191 169.479H126.063V167.609H124.191V169.479Z" fill="#E6E6E6"/>
<path d="M92.5228 150.212H77.8828V171.545H92.5228V150.212Z" fill="#F0F0F0"/>
<path d="M91.587 151.153H86.0811V156.423H91.587V151.153Z" fill="#FAFAFA"/>
<path d="M84.3243 151.153H78.8184V156.423H84.3243V151.153Z" fill="#FAFAFA"/>
<path d="M91.587 157.95H86.0811V163.221H91.587V157.95Z" fill="#FAFAFA"/>
<path d="M84.3243 157.95H78.8184V163.221H84.3243V157.95Z" fill="#FAFAFA"/>
<path d="M91.587 164.748H86.0811V170.019H91.587V164.748Z" fill="#FAFAFA"/>
<path d="M84.3243 164.748H78.8184V170.018H84.3243V164.748Z" fill="#FAFAFA"/>
<path d="M203.067 150.212H188.427V171.545H203.067V150.212Z" fill="#F0F0F0"/>
<path d="M202.13 151.153H196.624V156.423H202.13V151.153Z" fill="#FAFAFA"/>
<path d="M194.868 151.153H189.362V156.423H194.868V151.153Z" fill="#FAFAFA"/>
<path d="M202.13 157.95H196.624V163.221H202.13V157.95Z" fill="#FAFAFA"/>
<path d="M194.868 157.95H189.362V163.221H194.868V157.95Z" fill="#FAFAFA"/>
<path d="M202.13 164.748H196.624V170.019H202.13V164.748Z" fill="#FAFAFA"/>
<path d="M194.868 164.748H189.362V170.018H194.868V164.748Z" fill="#FAFAFA"/>
<path d="M19.7577 179.167C19.7577 179.167 16.8158 172.782 20.1763 166.431C23.5369 160.08 24.5195 158.623 22.3741 157.323C20.2287 156.023 19.2461 162.385 19.2461 162.385C18.1889 159.512 18.0849 156.376 18.9496 153.44C20.438 148.865 21.3741 141.418 19.3391 140.617C17.3042 139.816 18.9496 149.905 17.1763 153.353C16.2708 150.937 15.6845 148.414 15.432 145.847C15.1878 142.172 15.5715 136.304 13.961 134.818C12.3505 133.332 11.3214 134.353 12.9029 142.463C13.8533 147.307 14.3786 152.225 14.4727 157.161C14.4727 157.161 10.9842 146.526 8.65855 146.213C6.33289 145.899 6.33289 149.347 8.32714 152.337C10.3214 155.326 14.2052 160.678 14.839 163.43C14.839 163.43 11.0016 155.425 7.55386 157.88C4.10608 160.336 10.5598 165.166 13.432 166.913C16.3041 168.66 18.3042 179.608 18.3042 179.608L19.7577 179.167Z" fill="#E0E0E0"/>
<path d="M17.4327 181.797C17.4327 181.797 20.2991 175.342 16.8513 169.072C13.4035 162.803 12.4151 161.323 14.5256 159.999C16.6362 158.676 17.7118 165.009 17.7118 165.009C17.7118 165.009 19.456 160.609 17.9211 156.058C16.3861 151.507 15.3454 144.071 17.3745 143.241C19.4037 142.41 17.8746 152.528 19.7002 155.942C20.5755 153.508 21.1287 150.972 21.3456 148.395C21.5433 144.721 21.0898 138.858 22.6828 137.331C24.2759 135.805 25.3167 136.826 23.8457 144.959C22.9494 149.822 22.4786 154.753 22.4387 159.697C22.4387 159.697 25.805 149.011 28.1481 148.668C30.4912 148.326 30.5261 151.762 28.5551 154.781C26.5841 157.799 22.7759 163.209 22.1596 165.972C22.1596 165.972 25.8981 157.91 29.3749 160.313C32.8518 162.716 26.4679 167.644 23.6073 169.432C20.7467 171.22 18.8862 182.203 18.8862 182.203L17.4327 181.797Z" fill="#EBEBEB"/>
<path d="M30.6604 177.199H6.97363L8.89229 194.114H28.7417L30.6604 177.199Z" fill="#EBEBEB"/>
<path d="M208.188 175.992C208.276 175.411 210.235 161.892 206.305 157.219C205.913 156.727 205.416 156.328 204.851 156.051C204.286 155.774 203.666 155.626 203.037 155.617C195.095 155.431 194.008 161.799 193.996 161.863L194.938 162.008C194.973 161.775 195.915 156.389 203.014 156.563C203.509 156.567 203.997 156.684 204.441 156.903C204.885 157.122 205.273 157.438 205.578 157.828C209.241 162.176 207.27 175.719 207.252 175.852L208.188 175.992Z" fill="#EBEBEB"/>
<path d="M208.666 175.376L209.613 175.347C209.613 175.22 209.299 162.879 215.393 160.33C221.358 157.834 224.044 162.966 224.154 163.186L225.003 162.762C224.968 162.704 221.823 156.615 215.026 159.459C208.334 162.286 208.654 174.842 208.666 175.376Z" fill="#EBEBEB"/>
<path d="M208.642 176.346C208.642 176.148 208.7 156.609 212.508 150.92C216.166 145.441 222.073 148.018 222.323 148.134L222.712 147.275C222.642 147.24 215.834 144.239 211.718 150.398C207.752 156.342 207.694 175.527 207.694 176.346H208.642Z" fill="#EBEBEB"/>
<path d="M201.898 156.081C201.898 156.081 205.386 157.358 204.334 160.371C203.281 163.384 192.339 168.341 192.339 168.341C192.339 168.341 187.752 164.144 191.967 157.312C196.182 150.479 201.805 153.927 201.898 156.081Z" fill="#E0E0E0"/>
<path d="M212.683 149.893C212.683 149.893 210.218 149.632 210.416 148.151C210.613 146.671 219.986 142.799 225.532 149.034C225.532 149.034 221.992 155.106 216.875 155.181C211.759 155.257 212.683 149.893 212.683 149.893Z" fill="#E0E0E0"/>
<path d="M215.207 159.895C215.207 159.895 213.51 158.525 215.341 157.857C217.172 157.19 226.173 157.381 226.266 166.274C226.266 166.274 215.8 168.016 214.492 164.626C213.184 161.236 215.207 159.895 215.207 159.895Z" fill="#E0E0E0"/>
<path d="M200.037 194.114H216.299L218.049 176.346H198.281L200.037 194.114Z" fill="#EBEBEB"/>
<path d="M197.41 178.302H218.916V174.378H197.41V178.302Z" fill="#E0E0E0"/>
<path d="M116.628 220.66C178.887 220.66 229.358 217.718 229.358 214.089C229.358 210.46 178.887 207.518 116.628 207.518C54.3685 207.518 3.89746 210.46 3.89746 214.089C3.89746 217.718 54.3685 220.66 116.628 220.66Z" fill="#F5F5F5"/>
<path d="M203.008 209.352L207.351 209.84L206.81 197.034L201.63 197.766L203.008 209.352Z" fill="#263238"/>
<path d="M180.333 209.503L184.711 209.068L185.827 197.835H180.595L180.333 209.503Z" fill="#263238"/>
<path opacity="0.6" d="M203.008 209.352L207.351 209.84L206.81 197.034L201.63 197.766L203.008 209.352Z" fill="white"/>
<path opacity="0.6" d="M180.333 209.503L184.711 209.068L185.827 197.835H180.595L180.333 209.503Z" fill="white"/>
<path d="M201.816 114.756C201.816 114.756 201.374 117.659 201.141 117.659C200.909 117.659 198.234 115.093 198.234 115.093L200.031 112.608L201.816 114.756Z" fill="#263238"/>
<path opacity="0.6" d="M201.816 114.756C201.816 114.756 201.374 117.659 201.141 117.659C200.909 117.659 198.234 115.093 198.234 115.093L200.031 112.608L201.816 114.756Z" fill="white"/>
<path d="M197.129 80.275C199.763 80.8555 207.467 98.0205 208.176 100.743C208.886 103.465 202.194 116.021 202.194 116.021L198.978 112.475L202.676 100.755L196.571 89.9634L197.129 80.275Z" fill="#263238"/>
<path opacity="0.8" d="M197.129 80.275C199.763 80.8555 207.467 98.0205 208.176 100.743C208.886 103.465 202.194 116.021 202.194 116.021L198.978 112.475L202.676 100.755L196.571 89.9634L197.129 80.275Z" fill="white"/>
<path d="M208.061 208.725H202.677C202.589 208.726 202.504 208.756 202.435 208.811C202.367 208.865 202.319 208.942 202.299 209.027L201.392 212.934C201.37 213.029 201.369 213.127 201.391 213.222C201.413 213.317 201.457 213.406 201.519 213.481C201.581 213.556 201.659 213.616 201.748 213.656C201.837 213.696 201.934 213.715 202.032 213.712C203.776 213.683 205.014 213.584 207.189 213.584C208.532 213.584 212.561 213.723 214.41 213.723C216.259 213.723 216.515 211.901 215.765 211.732C212.381 210.995 209.834 209.991 208.758 208.998C208.566 208.827 208.319 208.73 208.061 208.725Z" fill="#263238"/>
<path d="M184.792 115.186C184.792 115.186 186.391 123.504 188.391 133.506C189.554 139.27 190.833 145.586 192.019 151.205C192.449 153.225 192.862 155.152 193.257 156.934C196.281 170.634 201.781 206.914 201.781 206.914L208.601 205.788C208.601 205.788 207.246 166.356 205.083 152.383C203.112 139.613 199.124 110.095 199.124 110.095L184.792 115.186Z" fill="#263238"/>
<path opacity="0.2" d="M188.392 133.506C189.554 139.27 190.834 145.586 192.02 151.205C193.418 143.622 192.817 135.806 190.275 128.525C189.523 130.136 188.893 131.801 188.392 133.506Z" fill="black"/>
<path d="M185.374 208.725H180.002C179.914 208.726 179.829 208.756 179.76 208.811C179.692 208.865 179.644 208.942 179.624 209.027L178.717 212.934C178.695 213.028 178.695 213.126 178.716 213.221C178.738 213.315 178.781 213.403 178.842 213.478C178.904 213.554 178.981 213.614 179.069 213.654C179.158 213.695 179.254 213.714 179.351 213.712C181.095 213.683 182.339 213.584 184.514 213.584C185.851 213.584 189.886 213.723 191.735 213.723C193.584 213.723 193.84 211.901 193.084 211.732C189.7 210.995 187.153 209.991 186.078 208.998C185.885 208.824 185.634 208.727 185.374 208.725Z" fill="#263238"/>
<path d="M190.42 110.693C190.42 110.693 190.223 140.506 190.386 153.399C190.566 167.516 186.281 206.804 186.281 206.804L179.385 206.223C179.385 206.223 179.112 170.233 178.042 156.249C176.844 140.611 175.926 113.647 175.926 113.647L190.42 110.693Z" fill="#263238"/>
<path d="M175.931 114.756C175.931 112.434 175.641 108.748 175.548 105.538C175.46 102.595 175.286 99.3383 174.966 95.9308C174.51 91.039 173.688 86.1881 172.507 81.4187C172.507 81.4187 175.292 80.693 178.449 80.2229C179.065 80.13 179.705 80.0487 180.333 79.979C183.652 79.5954 186.991 79.4016 190.333 79.3986C190.746 79.3986 191.153 79.4276 191.548 79.4624C193.43 79.602 195.302 79.8579 197.153 80.2287C197.153 80.2287 202.293 91.7107 199.746 113.862L175.931 114.756Z" fill="#263238"/>
<path opacity="0.8" d="M175.931 114.756C175.931 112.434 175.641 108.748 175.548 105.538C175.46 102.595 175.286 99.3383 174.966 95.9308C174.51 91.039 173.688 86.1881 172.507 81.4187C172.507 81.4187 175.292 80.693 178.449 80.2229C179.065 80.13 179.705 80.0487 180.333 79.979C183.652 79.5954 186.991 79.4016 190.333 79.3986C190.746 79.3986 191.153 79.4276 191.548 79.4624C193.43 79.602 195.302 79.8579 197.153 80.2287C197.153 80.2287 202.293 91.7107 199.746 113.862L175.931 114.756Z" fill="white"/>
<path opacity="0.2" d="M173.989 88.6747C174.402 91.1359 174.704 93.5682 174.943 95.9308C174.983 96.3371 175.018 96.7377 175.053 97.1382C175.816 94.6638 176.114 92.0699 175.931 89.4874C175.347 89.0859 174.686 88.8092 173.989 88.6747Z" fill="black"/>
<path d="M180.781 68.7175C181.56 71.8928 182.467 77.7383 180.315 80.0022C181.357 80.9788 182.598 81.7193 183.952 82.1732C185.307 82.627 186.744 82.7835 188.165 82.6318C190.932 82.4112 190.979 80.4782 190.31 79.4391C186.682 78.789 186.653 76.1304 187.164 73.5994L180.781 68.7175Z" fill="#263238"/>
<path opacity="0.6" d="M180.781 68.7175C181.56 71.8928 182.467 77.7383 180.315 80.0022C181.357 80.9788 182.598 81.7193 183.952 82.1732C185.307 82.627 186.744 82.7835 188.165 82.6318C190.932 82.4112 190.979 80.4782 190.31 79.4391C186.682 78.789 186.653 76.1304 187.164 73.5994L180.781 68.7175Z" fill="white"/>
<path opacity="0.2" d="M183.38 70.7086L187.159 73.6111C187.033 74.1995 186.957 74.7976 186.932 75.399C185.554 75.2771 183.601 73.8839 183.391 72.4559C183.28 71.8791 183.276 71.2868 183.38 70.7086Z" fill="black"/>
<path d="M179.205 64.4684C180.275 68.7524 180.682 71.3182 183.275 73.1177C187.2 75.8228 192.188 72.7926 192.421 68.259C192.63 64.1956 190.845 57.8567 186.275 56.9627C185.264 56.766 184.218 56.8283 183.238 57.144C182.257 57.4597 181.372 58.0184 180.666 58.768C179.96 59.5175 179.456 60.4335 179.2 61.4303C178.945 62.4272 178.946 63.4724 179.205 64.4684Z" fill="#263238"/>
<path opacity="0.6" d="M179.205 64.4684C180.275 68.7524 180.682 71.3182 183.275 73.1177C187.2 75.8228 192.188 72.7926 192.421 68.259C192.63 64.1956 190.845 57.8567 186.275 56.9627C185.264 56.766 184.218 56.8283 183.238 57.144C182.257 57.4597 181.372 58.0184 180.666 58.768C179.96 59.5175 179.456 60.4335 179.2 61.4303C178.945 62.4272 178.946 63.4724 179.205 64.4684Z" fill="white"/>
<path d="M186.014 64.3988C186.078 64.7529 186.322 64.9792 186.549 64.9792C186.775 64.9792 186.915 64.6077 186.851 64.2594C186.787 63.9111 186.543 63.679 186.316 63.679C186.089 63.679 185.95 64.0447 186.014 64.3988Z" fill="#263238"/>
<path d="M190.007 63.6035C190.077 63.9576 190.315 64.184 190.548 64.184C190.78 64.184 190.914 63.8183 190.844 63.4642C190.775 63.1101 190.542 62.8837 190.31 62.8837C190.077 62.8837 189.943 63.261 190.007 63.6035Z" fill="#263238"/>
<path opacity="0.2" d="M188.775 64.0389C189.404 64.9984 190.163 65.8659 191.031 66.6163C190.818 66.827 190.563 66.9907 190.283 67.0967C190.002 67.2027 189.703 67.2487 189.403 67.2316L188.775 64.0389Z" fill="black"/>
<path d="M187.757 68.9498C187.913 68.9441 188.069 68.9247 188.222 68.8918C188.236 68.8897 188.249 68.8848 188.261 68.8775C188.273 68.8702 188.283 68.8606 188.291 68.8492C188.3 68.8378 188.305 68.8249 188.308 68.8113C188.311 68.7977 188.312 68.7836 188.309 68.7699C188.304 68.7427 188.288 68.7186 188.265 68.7024C188.243 68.6863 188.215 68.6793 188.187 68.6828C187.751 68.7786 187.298 68.7701 186.866 68.6581C186.433 68.5462 186.033 68.3338 185.699 68.0384C185.689 68.0283 185.677 68.0202 185.664 68.0146C185.651 68.0091 185.637 68.0062 185.623 68.0062C185.609 68.0062 185.595 68.0091 185.582 68.0146C185.569 68.0202 185.557 68.0283 185.547 68.0384C185.528 68.0589 185.518 68.0859 185.518 68.1139C185.518 68.1419 185.528 68.1689 185.547 68.1894C185.843 68.4618 186.192 68.6701 186.572 68.801C186.953 68.9319 187.356 68.9826 187.757 68.9498Z" fill="#263238"/>
<path d="M184.542 63.3481C184.579 63.3462 184.616 63.3345 184.647 63.3141C184.679 63.2937 184.705 63.2654 184.722 63.232C184.832 62.9905 184.999 62.7785 185.207 62.613C185.415 62.4476 185.659 62.3335 185.92 62.28C185.976 62.2728 186.027 62.2437 186.061 62.1992C186.096 62.1546 186.112 62.0982 186.106 62.042C186.103 62.0145 186.094 61.9879 186.081 61.9636C186.068 61.9393 186.05 61.9179 186.028 61.9007C186.007 61.8834 185.982 61.8706 185.955 61.8629C185.928 61.8553 185.901 61.8531 185.873 61.8563C185.545 61.917 185.236 62.0536 184.97 62.2552C184.705 62.4569 184.49 62.7179 184.344 63.0173C184.331 63.0415 184.323 63.0681 184.321 63.0955C184.319 63.1229 184.322 63.1504 184.331 63.1764C184.339 63.2025 184.353 63.2265 184.372 63.247C184.39 63.2675 184.412 63.2842 184.437 63.2959C184.467 63.3221 184.503 63.3402 184.542 63.3481Z" fill="#263238"/>
<path d="M191.478 61.9085C191.519 61.9037 191.559 61.8898 191.594 61.8678C191.638 61.8334 191.667 61.7833 191.675 61.728C191.682 61.6728 191.668 61.6167 191.635 61.5718C191.443 61.2975 191.187 61.0742 190.889 60.9214C190.591 60.7686 190.26 60.691 189.926 60.6952C189.898 60.6967 189.871 60.7036 189.846 60.7155C189.821 60.7274 189.799 60.7441 189.781 60.7646C189.762 60.7851 189.748 60.809 189.739 60.8349C189.73 60.8609 189.726 60.8884 189.728 60.9158C189.729 60.9435 189.735 60.9708 189.747 60.996C189.758 61.0212 189.775 61.0437 189.796 61.0622C189.816 61.0807 189.841 61.0947 189.867 61.1035C189.893 61.1123 189.921 61.1156 189.949 61.1132C190.214 61.1144 190.475 61.1793 190.71 61.3026C190.945 61.4259 191.146 61.6038 191.298 61.8214C191.317 61.851 191.344 61.8749 191.376 61.8902C191.407 61.9056 191.443 61.9119 191.478 61.9085Z" fill="#263238"/>
<path d="M185.321 59.6562C185.321 59.6562 183.955 59.0409 183.577 60.0683C183.199 61.0958 183.74 63.5513 183.74 63.5513L183.409 63.1623C183.409 63.1623 182.961 68.9324 180.455 67.9978C177.949 67.0632 173.606 62.1523 178.257 58.292C178.257 58.292 178.548 56.864 181.862 55.5347C185.176 54.2054 189.763 55.4999 190.926 57.6303C192.089 59.7607 191.345 61.2293 191.345 61.2293C191.133 60.7568 190.815 60.3395 190.415 60.0103C190.416 60.2514 190.357 60.489 190.243 60.7018C190.129 60.9145 189.965 61.0958 189.763 61.2293C189.704 60.7575 189.515 60.3113 189.217 59.9406C189.187 60.3646 189.064 60.7768 188.856 61.148C188.141 58.8609 186.455 58.6984 185.949 58.8261C185.769 58.8786 185.611 58.9877 185.498 59.1372C185.384 59.2868 185.323 59.4688 185.321 59.6562Z" fill="#263238"/>
<path d="M178.199 68.3926C178.459 68.8758 178.812 69.3027 179.238 69.6485C179.664 69.9943 180.155 70.2521 180.682 70.4069C182.095 70.8074 182.827 69.542 182.426 68.1952C182.089 66.9878 180.944 65.3218 179.519 65.5076C179.209 65.557 178.915 65.6823 178.665 65.8723C178.414 66.0624 178.215 66.3112 178.084 66.5968C177.954 66.8824 177.896 67.1958 177.916 67.5091C177.936 67.8224 178.033 68.1259 178.199 68.3926Z" fill="#263238"/>
<path opacity="0.6" d="M178.199 68.3926C178.459 68.8758 178.812 69.3027 179.238 69.6485C179.664 69.9943 180.155 70.2521 180.682 70.4069C182.095 70.8074 182.827 69.542 182.426 68.1952C182.089 66.9878 180.944 65.3218 179.519 65.5076C179.209 65.557 178.915 65.6823 178.665 65.8723C178.414 66.0624 178.215 66.3112 178.084 66.5968C177.954 66.8824 177.896 67.1958 177.916 67.5091C177.936 67.8224 178.033 68.1259 178.199 68.3926Z" fill="white"/>
<path d="M190.141 82.063L189.601 84.1295C189.601 84.1295 191.99 97.0918 192.426 103.913L191.391 105.654L189.886 104.145C189.886 104.145 189.513 86.5444 188.897 84.1702L187.095 82.5622L188.478 81.4012L190.141 82.063Z" fill="#263238"/>
<path d="M188.49 81.2212L180.629 77.5468L178.426 80.246L185.217 85.2788L188.769 81.912L192.787 84.4778L192.147 79.5552L187.531 77.5468L188.49 81.2212Z" fill="#263238"/>
<path opacity="0.9" d="M188.49 81.2212L180.629 77.5468L178.426 80.246L185.217 85.2788L188.769 81.912L192.787 84.4778L192.147 79.5552L187.531 77.5468L188.49 81.2212Z" fill="white"/>
<path d="M195.926 115.882L183.153 116.573L183.048 115.052L195.804 114.53L195.926 115.882Z" fill="black"/>
<path d="M182.403 115.081L182.543 116.608L176.048 116.962L175.99 115.342L182.403 115.081Z" fill="black"/>
<path d="M196.565 114.495L199.705 114.367L199.879 115.667L196.676 115.842L196.565 114.495Z" fill="black"/>
<path d="M191.874 114.837L191.99 116.068C191.993 116.111 191.988 116.155 191.974 116.196C191.96 116.237 191.938 116.274 191.909 116.307C191.881 116.339 191.846 116.366 191.807 116.384C191.768 116.403 191.725 116.414 191.682 116.416L189.135 116.503C189.053 116.507 188.973 116.477 188.912 116.422C188.851 116.366 188.814 116.289 188.81 116.207L188.711 114.994C188.708 114.951 188.713 114.908 188.727 114.867C188.741 114.825 188.763 114.788 188.792 114.755C188.82 114.723 188.855 114.696 188.894 114.678C188.933 114.659 188.976 114.648 189.019 114.646L191.542 114.547C191.624 114.545 191.703 114.574 191.765 114.628C191.826 114.681 191.865 114.756 191.874 114.837Z" fill="white"/>
<path d="M202.537 117.589L201.426 114.686C200.845 113.427 198.868 114.593 198.868 114.593C198.779 114.639 198.708 114.713 198.665 114.803C198.622 114.893 198.609 114.995 198.629 115.093L200.124 120.671C200.163 120.807 200.238 120.93 200.341 121.027C200.444 121.123 200.572 121.19 200.71 121.221C200.848 121.251 200.992 121.243 201.126 121.199C201.26 121.154 201.38 121.074 201.473 120.967L202.019 120.387C202.353 120.012 202.578 119.553 202.669 119.06C202.76 118.567 202.715 118.058 202.537 117.589Z" fill="#263238"/>
<path opacity="0.6" d="M202.537 117.589L201.426 114.686C200.845 113.427 198.868 114.593 198.868 114.593C198.779 114.639 198.708 114.713 198.665 114.803C198.622 114.893 198.609 114.995 198.629 115.093L200.124 120.671C200.163 120.807 200.238 120.93 200.341 121.027C200.444 121.123 200.572 121.19 200.71 121.221C200.848 121.251 200.992 121.243 201.126 121.199C201.26 121.154 201.38 121.074 201.473 120.967L202.019 120.387C202.353 120.012 202.578 119.553 202.669 119.06C202.76 118.567 202.715 118.058 202.537 117.589Z" fill="white"/>
<path d="M170.652 139.473H170.391C169.276 139.467 168.173 139.256 167.135 138.852C166.181 138.446 165.664 137.888 165.681 137.279C165.681 136.089 167.768 135.241 170.484 135.294C171.598 135.3 172.702 135.51 173.739 135.915C174.693 136.321 175.21 136.878 175.199 137.488C175.17 138.637 173.239 139.473 170.652 139.473ZM170.228 135.874C167.902 135.874 166.274 136.606 166.263 137.291C166.263 137.639 166.664 138.022 167.367 138.318C168.335 138.7 169.367 138.897 170.408 138.898C172.862 138.945 174.6 138.19 174.617 137.482C174.617 137.134 174.21 136.751 173.513 136.455C172.545 136.073 171.513 135.876 170.472 135.874H170.228Z" fill="#263238"/>
<path d="M159.181 137.563L158.838 153.353C158.835 153.476 158.856 153.598 158.901 153.713C158.946 153.828 159.012 153.933 159.098 154.022C159.183 154.111 159.285 154.183 159.399 154.232C159.512 154.282 159.633 154.308 159.757 154.31L182.821 154.81C183.071 154.814 183.312 154.721 183.493 154.549C183.673 154.377 183.779 154.141 183.787 153.892L184.13 138.109C184.134 137.859 184.04 137.617 183.867 137.437C183.693 137.256 183.456 137.151 183.205 137.145L160.141 136.646C160.017 136.643 159.894 136.664 159.779 136.709C159.664 136.753 159.559 136.82 159.47 136.905C159.381 136.991 159.309 137.093 159.26 137.206C159.21 137.319 159.183 137.44 159.181 137.563Z" fill="#263238"/>
<path opacity="0.1" d="M159.181 137.563L158.838 153.353C158.835 153.476 158.856 153.598 158.901 153.713C158.946 153.828 159.012 153.933 159.098 154.022C159.183 154.111 159.285 154.183 159.399 154.232C159.512 154.282 159.633 154.308 159.757 154.31L182.821 154.81C183.071 154.814 183.312 154.721 183.493 154.549C183.673 154.377 183.779 154.141 183.787 153.892L184.13 138.109C184.134 137.859 184.04 137.617 183.867 137.437C183.693 137.256 183.456 137.151 183.205 137.145L160.141 136.646C160.017 136.643 159.894 136.664 159.779 136.709C159.664 136.753 159.559 136.82 159.47 136.905C159.381 136.991 159.309 137.093 159.26 137.206C159.21 137.319 159.183 137.44 159.181 137.563Z" fill="white"/>
<path opacity="0.2" d="M181.862 138.057L181.519 153.84C181.514 154.089 181.608 154.33 181.78 154.51C181.952 154.691 182.188 154.796 182.437 154.804H182.821C183.07 154.808 183.312 154.715 183.492 154.543C183.673 154.371 183.779 154.136 183.786 153.887L184.129 138.103C184.134 137.853 184.039 137.612 183.866 137.431C183.693 137.25 183.455 137.146 183.205 137.14H182.821C182.698 137.136 182.575 137.158 182.46 137.202C182.345 137.247 182.239 137.314 182.15 137.399C182.061 137.484 181.99 137.586 181.94 137.699C181.891 137.812 181.864 137.934 181.862 138.057Z" fill="white"/>
<path d="M182.571 137.145C182.331 137.153 182.104 137.252 181.936 137.423C181.768 137.594 181.673 137.823 181.67 138.063L181.507 145.383C181.506 145.481 181.485 145.577 181.446 145.667C181.406 145.757 181.35 145.839 181.279 145.907C181.208 145.975 181.125 146.028 181.033 146.064C180.941 146.099 180.844 146.116 180.745 146.114L159.559 145.655C159.361 145.649 159.174 145.566 159.037 145.424C158.9 145.282 158.825 145.092 158.826 144.895L158.989 137.552C158.991 137.429 159.018 137.308 159.067 137.196C159.116 137.084 159.187 136.983 159.276 136.898C159.364 136.813 159.469 136.747 159.583 136.703C159.698 136.659 159.82 136.637 159.943 136.64L183.013 137.14L182.571 137.145Z" fill="#263238"/>
<path opacity="0.2" d="M182.571 137.145C182.331 137.153 182.104 137.252 181.936 137.423C181.768 137.594 181.673 137.823 181.67 138.063L181.507 145.383C181.506 145.481 181.485 145.577 181.446 145.667C181.406 145.757 181.35 145.839 181.279 145.907C181.208 145.975 181.125 146.028 181.033 146.064C180.941 146.099 180.844 146.116 180.745 146.114L159.559 145.655C159.361 145.649 159.174 145.566 159.037 145.424C158.9 145.282 158.825 145.092 158.826 144.895L158.989 137.552C158.991 137.429 159.018 137.308 159.067 137.196C159.116 137.084 159.187 136.983 159.276 136.898C159.364 136.813 159.469 136.747 159.583 136.703C159.698 136.659 159.82 136.637 159.943 136.64L183.013 137.14L182.571 137.145Z" fill="white"/>
<path d="M170.563 149.442L168.819 149.405C168.782 149.404 168.746 149.396 168.712 149.381C168.679 149.366 168.649 149.345 168.623 149.319C168.598 149.292 168.578 149.261 168.565 149.227C168.551 149.193 168.545 149.157 168.546 149.12L168.638 144.883L170.91 144.932L170.819 149.169C170.817 149.238 170.791 149.304 170.743 149.355C170.696 149.405 170.632 149.437 170.563 149.442Z" fill="#263238"/>
<path d="M170.745 148.355L168.762 148.308C168.609 148.306 168.463 148.243 168.355 148.134C168.251 148.023 168.194 147.875 168.198 147.722V146.776C168.198 146.622 168.26 146.474 168.369 146.365C168.478 146.256 168.626 146.195 168.78 146.195L170.762 146.236C170.915 146.241 171.059 146.306 171.164 146.416C171.27 146.526 171.329 146.674 171.326 146.828V147.774C171.326 147.928 171.265 148.076 171.156 148.185C171.047 148.293 170.899 148.355 170.745 148.355ZM168.78 146.503C168.706 146.504 168.635 146.534 168.582 146.586C168.529 146.637 168.498 146.708 168.495 146.781V147.728C168.492 147.765 168.498 147.802 168.511 147.837C168.524 147.873 168.544 147.904 168.571 147.931C168.596 147.959 168.628 147.981 168.663 147.996C168.698 148.011 168.736 148.018 168.774 148.018L170.757 148.064C170.794 148.067 170.832 148.061 170.868 148.048C170.904 148.035 170.936 148.015 170.963 147.989C170.991 147.963 171.012 147.931 171.027 147.896C171.041 147.861 171.048 147.824 171.047 147.786V146.834C171.047 146.758 171.018 146.686 170.966 146.631C170.913 146.579 170.843 146.548 170.768 146.543L168.786 146.503H168.78Z" fill="white"/>
<path d="M168.373 130.389L167.879 134.841L172.577 133.204C172.577 133.204 172.786 129.199 170.699 129.199L168.373 130.389Z" fill="#263238"/>
<path d="M168.827 136.844L172.774 136.64L172.588 133.204L167.891 134.841L168.827 136.844Z" fill="#263238"/>
<g opacity="0.6">
<path d="M168.373 130.389L167.879 134.841L172.577 133.204C172.577 133.204 172.786 129.199 170.699 129.199L168.373 130.389Z" fill="white"/>
<path d="M168.826 136.844L172.774 136.64L172.587 133.204L167.89 134.841L168.826 136.844Z" fill="white"/>
</g>
<path d="M172.484 81.4419C170.781 83.4504 166.339 100.116 165.723 105.103C165.106 110.089 168.048 130.754 168.048 130.754L172.508 130.069C172.508 130.069 171.112 108.493 171.729 107.07C172.345 105.648 176.211 90.3524 176.211 90.3524C176.211 90.3524 176.618 87.4035 176.014 85.3486C175.409 83.2937 172.484 81.4419 172.484 81.4419Z" fill="#263238"/>
<path opacity="0.8" d="M172.484 81.4419C170.781 83.4504 166.339 100.116 165.723 105.103C165.106 110.089 168.048 130.754 168.048 130.754L172.508 130.069C172.508 130.069 171.112 108.493 171.729 107.07C172.345 105.648 176.211 90.3524 176.211 90.3524C176.211 90.3524 176.618 87.4035 176.014 85.3486C175.409 83.2937 172.484 81.4419 172.484 81.4419Z" fill="white"/>
<path d="M125.907 31.282H107.685L62.8584 213.735H170.734L125.907 31.282Z" fill="#92BDF6"/>
<path opacity="0.7" d="M125.907 31.282H107.685L62.8584 213.735H170.734L125.907 31.282Z" fill="white"/>
<path opacity="0.2" d="M124.704 31.282H108.89L69.9932 213.735H163.607L124.704 31.282Z" fill="white"/>
<path d="M216.8 27.9732H16.4561C16.2248 27.9732 16.003 27.8814 15.8394 27.7181C15.6759 27.5548 15.584 27.3334 15.584 27.1024C15.584 26.8715 15.6759 26.65 15.8394 26.4867C16.003 26.3234 16.2248 26.2317 16.4561 26.2317H216.8C217.031 26.2317 217.253 26.3234 217.416 26.4867C217.58 26.65 217.672 26.8715 217.672 27.1024C217.672 27.3334 217.58 27.5548 217.416 27.7181C217.253 27.8814 217.031 27.9732 216.8 27.9732Z" fill="#263238"/>
<path d="M118.808 19.7476H104.296V33.2961H118.808V19.7476Z" fill="black"/>
<path d="M126.564 15.3998H106.563V18.6099H126.564V15.3998Z" fill="#263238"/>
<path d="M105.18 36.7327H113.883L111.104 33.2904H105.68L105.18 36.7327Z" fill="black"/>
<path d="M128.57 17.1644V36.7327H111.471L110.453 34.7822H106.122L105.476 36.7327H105.18V17.1644H128.57Z" fill="#263238"/>
<path opacity="0.1" d="M128.57 17.1644H111.872V36.7327H128.57V17.1644Z" fill="white"/>
<path opacity="0.1" d="M109.93 20.8622C109.93 22.2612 109.122 23.3989 108.133 23.3989C108.05 23.4075 107.967 23.4075 107.883 23.3989C107.011 23.2364 106.331 22.1741 106.331 20.8912C106.331 19.6084 107.011 18.5693 107.883 18.3835C107.966 18.3722 108.05 18.3722 108.133 18.3835C109.122 18.3255 109.93 19.4865 109.93 20.8622Z" fill="white"/>
<path opacity="0.1" d="M109.418 20.8622C109.418 22.1451 108.75 23.1841 107.883 23.3699C107.011 23.2074 106.331 22.1451 106.331 20.8622C106.331 19.5793 107.011 18.5402 107.883 18.3545C108.75 18.5228 109.418 19.5793 109.418 20.8622Z" fill="white"/>
<path opacity="0.1" d="M108.308 20.8622C108.308 21.4775 108.012 21.9767 107.645 21.9767C107.279 21.9767 106.982 21.4775 106.982 20.8622C106.982 20.2468 107.279 19.7418 107.645 19.7418C108.012 19.7418 108.308 20.2468 108.308 20.8622Z" fill="white"/>
<path d="M129.28 19.7477H114.768V33.2963H129.28V19.7477Z" fill="#263238"/>
<path opacity="0.1" d="M129.28 20.0204H115.966V33.0233H129.28V20.0204Z" fill="white"/>
<path d="M128.006 31.7462V21.2916H117.244V31.7462H128.006Z" fill="#92BDF6"/>
<path d="M122.273 30.0281C122.175 30.0273 122.079 30.0019 121.994 29.9542C121.909 29.9065 121.837 29.8381 121.785 29.7552L119.052 25.9298C118.943 25.7692 118.891 25.5765 118.904 25.3827C118.918 25.1889 118.997 25.0054 119.128 24.8617C119.188 24.7998 119.262 24.7522 119.344 24.7225C119.426 24.6928 119.513 24.6817 119.599 24.69C119.686 24.6984 119.769 24.726 119.843 24.7707C119.918 24.8155 119.981 24.8764 120.029 24.9488L122.273 28.0892L125.983 22.8997C126.03 22.8262 126.094 22.7645 126.169 22.7191C126.244 22.6736 126.328 22.6457 126.415 22.6373C126.502 22.6289 126.59 22.6404 126.672 22.6707C126.755 22.7011 126.829 22.7496 126.89 22.8126C127.021 22.9574 127.099 23.1424 127.112 23.3374C127.125 23.5324 127.071 23.726 126.959 23.8865L122.762 29.7552C122.71 29.8381 122.638 29.9065 122.552 29.9542C122.467 30.0019 122.371 30.0273 122.273 30.0281Z" fill="white"/>
<path d="M188.619 19.7477H174.106V33.2963H188.619V19.7477Z" fill="black"/>
<path d="M196.375 15.3998H176.374V18.6099H196.375V15.3998Z" fill="#263238"/>
<path d="M174.99 36.7327H183.694L180.921 33.2904H175.49L174.99 36.7327Z" fill="black"/>
<path d="M198.386 17.1644V36.7327H181.281L180.264 34.7822H175.932L175.287 36.7327H174.99V17.1644H198.386Z" fill="#263238"/>
<path opacity="0.1" d="M198.38 17.1644H181.682V36.7327H198.38V17.1644Z" fill="white"/>
<path opacity="0.1" d="M179.741 20.8621C179.741 22.2611 178.932 23.3988 177.944 23.3988C177.861 23.4074 177.777 23.4074 177.694 23.3988C176.822 23.2363 176.147 22.174 176.147 20.8911C176.147 19.6082 176.822 18.5692 177.694 18.3834C177.777 18.372 177.861 18.372 177.944 18.3834C178.932 18.3254 179.741 19.4863 179.741 20.8621Z" fill="white"/>
<path opacity="0.1" d="M179.235 20.8622C179.235 22.1451 178.56 23.1841 177.694 23.3699C176.822 23.2074 176.147 22.1451 176.147 20.8622C176.147 19.5793 176.822 18.5402 177.694 18.3545C178.56 18.5228 179.235 19.5793 179.235 20.8622Z" fill="white"/>
<path opacity="0.1" d="M178.123 20.8622C178.123 21.4775 177.827 21.9767 177.461 21.9767C177.094 21.9767 176.798 21.4775 176.798 20.8622C176.798 20.2468 177.094 19.7418 177.461 19.7418C177.827 19.7418 178.123 20.2468 178.123 20.8622Z" fill="white"/>
<path d="M199.09 19.7476H184.578V33.2961H199.09V19.7476Z" fill="#263238"/>
<path opacity="0.1" d="M199.09 20.0205H185.775V33.0234H199.09V20.0205Z" fill="white"/>
<path d="M197.816 31.7463V21.2917H187.054V31.7463H197.816Z" fill="#92BDF6"/>
<path d="M193.374 26.522L196.165 23.4976C196.291 23.3562 196.361 23.1733 196.361 22.9839C196.361 22.7944 196.291 22.6116 196.165 22.4701C196.106 22.4033 196.033 22.3498 195.951 22.3132C195.869 22.2765 195.781 22.2576 195.691 22.2576C195.602 22.2576 195.513 22.2765 195.432 22.3132C195.35 22.3498 195.277 22.4033 195.218 22.4701L192.427 25.4945L189.636 22.4701C189.576 22.4033 189.504 22.3498 189.422 22.3132C189.34 22.2765 189.252 22.2576 189.162 22.2576C189.073 22.2576 188.984 22.2765 188.902 22.3132C188.821 22.3498 188.748 22.4033 188.688 22.4701C188.562 22.6116 188.492 22.7944 188.492 22.9839C188.492 23.1733 188.562 23.3562 188.688 23.4976L191.479 26.522L188.688 29.5405C188.562 29.6819 188.492 29.8648 188.492 30.0542C188.492 30.2437 188.562 30.4265 188.688 30.5679C188.748 30.6353 188.821 30.6892 188.904 30.7262C188.986 30.7632 189.075 30.7825 189.165 30.7827C189.254 30.7824 189.342 30.7631 189.424 30.7261C189.505 30.689 189.577 30.6351 189.636 30.5679L192.427 27.5436L195.218 30.5679C195.277 30.6353 195.351 30.6892 195.433 30.7262C195.515 30.7632 195.604 30.7825 195.694 30.7827C195.784 30.7824 195.872 30.7631 195.953 30.7261C196.034 30.689 196.107 30.6351 196.165 30.5679C196.291 30.4265 196.361 30.2437 196.361 30.0542C196.361 29.8648 196.291 29.6819 196.165 29.5405L193.374 26.522Z" fill="white"/>
<path d="M48.9974 19.7477H34.4854V33.2963H48.9974V19.7477Z" fill="black"/>
<path d="M56.7545 15.3998H36.7539V18.6099H56.7545V15.3998Z" fill="#263238"/>
<path d="M35.3633 36.7327H44.0729L41.2937 33.2904H35.8691L35.3633 36.7327Z" fill="black"/>
<path d="M58.7594 17.1644V36.7327H41.6542L40.6425 34.7822H36.311L35.6656 36.7327H35.3633V17.1644H58.7594Z" fill="#263238"/>
<path opacity="0.1" d="M58.7597 17.1644H42.0615V36.7327H58.7597V17.1644Z" fill="white"/>
<path opacity="0.1" d="M40.1195 20.8622C40.1195 22.2612 39.3113 23.3989 38.3229 23.3989C38.2398 23.4079 38.156 23.4079 38.0729 23.3989C37.1949 23.2364 36.5205 22.1741 36.5205 20.8912C36.5205 19.6083 37.1949 18.5693 38.0729 18.3835C38.1558 18.3718 38.24 18.3718 38.3229 18.3835C39.2997 18.3255 40.1195 19.4864 40.1195 20.8622Z" fill="white"/>
<path opacity="0.1" d="M39.6078 20.8622C39.6078 22.1451 38.9392 23.1841 38.0729 23.3699C37.1949 23.2074 36.5205 22.1451 36.5205 20.8622C36.5205 19.5793 37.1949 18.5402 38.0729 18.3545C38.9392 18.5228 39.6078 19.5793 39.6078 20.8622Z" fill="white"/>
<path opacity="0.1" d="M38.4975 20.8622C38.4975 21.4775 38.201 21.9767 37.8347 21.9767C37.4684 21.9767 37.1719 21.4775 37.1719 20.8622C37.1719 20.2468 37.4684 19.7418 37.8347 19.7418C38.201 19.7418 38.4975 20.2468 38.4975 20.8622Z" fill="white"/>
<path d="M59.4691 19.7476H44.957V33.2961H59.4691V19.7476Z" fill="#263238"/>
<path opacity="0.1" d="M59.4687 20.0205H46.1543V33.0234H59.4687V20.0205Z" fill="white"/>
<path d="M58.1904 31.7462V21.2916H47.4285V31.7462H58.1904Z" fill="#92BDF6"/>
<path d="M53.7592 26.522L56.55 23.4976C56.6762 23.3562 56.746 23.1733 56.746 22.9839C56.746 22.7944 56.6762 22.6116 56.55 22.4701C56.4905 22.4033 56.4175 22.3498 56.3359 22.3132C56.2542 22.2765 56.1657 22.2576 56.0761 22.2576C55.9866 22.2576 55.8981 22.2765 55.8164 22.3132C55.7347 22.3498 55.6617 22.4033 55.6023 22.4701L52.8115 25.4945L50.0207 22.4701C49.9612 22.4033 49.8883 22.3498 49.8066 22.3132C49.7249 22.2765 49.6364 22.2576 49.5469 22.2576C49.4573 22.2576 49.3688 22.2765 49.2871 22.3132C49.2054 22.3498 49.1325 22.4033 49.073 22.4701C48.9467 22.6116 48.877 22.7944 48.877 22.9839C48.877 23.1733 48.9467 23.3562 49.073 23.4976L51.8638 26.522L49.073 29.5405C48.9467 29.6819 48.877 29.8648 48.877 30.0542C48.877 30.2437 48.9467 30.4265 49.073 30.5679C49.1319 30.6356 49.2047 30.6899 49.2865 30.7271C49.3682 30.7643 49.457 30.7835 49.5469 30.7835C49.6367 30.7835 49.7255 30.7643 49.8072 30.7271C49.889 30.6899 49.9618 30.6356 50.0207 30.5679L52.8115 27.5436L55.6023 30.5679C55.661 30.6351 55.7333 30.689 55.8145 30.7261C55.8958 30.7631 55.9839 30.7824 56.0732 30.7827C56.1634 30.7825 56.2524 30.7632 56.3346 30.7262C56.4168 30.6892 56.4902 30.6353 56.55 30.5679C56.6762 30.4265 56.746 30.2437 56.746 30.0542C56.746 29.8648 56.6762 29.6819 56.55 29.5405L53.7592 26.522Z" fill="white"/>
<path d="M105.214 206.589L105.667 207.222L106.574 206.833L107.156 209.602L110.976 214.89C110.976 214.89 112.435 215.122 111.284 212.115C111.23 211.969 111.191 211.817 111.168 211.663C110.825 209.863 111.575 206.438 111.575 206.438L109.476 203.536C109.281 203.546 109.087 203.567 108.894 203.6C108.005 203.722 106.266 204.139 105.214 206.589Z" fill="#92BDF6"/>
<path opacity="0.2" d="M105.214 206.589L105.667 207.222L106.574 206.833L107.156 209.602L110.976 214.89C110.976 214.89 112.435 215.122 111.284 212.115C111.23 211.969 111.191 211.817 111.168 211.663C110.825 209.863 111.575 206.438 111.575 206.438L109.476 203.536C109.281 203.546 109.087 203.567 108.894 203.6C108.005 203.722 106.266 204.139 105.214 206.589Z" fill="black"/>
<path d="M108.871 203.576C109.575 203.652 108.958 206.752 109.243 208.487C109.493 210.043 110.173 211.506 111.162 211.657C110.819 209.857 112.046 205.759 112.046 205.759L110.36 203.437C110.36 203.437 109.243 203.501 108.871 203.576Z" fill="#EBB376"/>
<path opacity="0.2" d="M108.871 203.576C109.575 203.652 108.958 206.752 109.243 208.487C109.493 210.043 110.173 211.506 111.162 211.657C110.819 209.857 112.046 205.759 112.046 205.759L110.36 203.437C110.36 203.437 109.243 203.501 108.871 203.576Z" fill="black"/>
<path d="M111.069 214.693H111.848L112.063 213.735L114.644 214.896H121.174C121.174 214.896 122.214 213.851 119.104 213.021C118.951 212.981 118.803 212.924 118.662 212.853C117.005 212.075 114.644 209.451 114.644 209.451H111.057C110.946 209.616 110.847 209.789 110.76 209.968C110.371 210.757 109.696 212.411 111.069 214.693Z" fill="#92BDF6"/>
<path d="M110.761 209.968C111.238 209.439 113.389 211.755 114.97 212.545C116.377 213.242 117.959 213.555 118.662 212.841C117.005 212.063 114.395 208.673 114.395 208.673H111.488C111.488 208.673 110.929 209.631 110.761 209.968Z" fill="#EBB376"/>
<path d="M139.424 93.0517L137.866 88.9419L142.733 89.354C142.733 89.354 143.895 93.104 141.936 93.6206L139.424 93.0517Z" fill="#EBB376"/>
<path d="M138.674 84.6694L142.733 86.4399V89.354L137.872 88.9418L138.674 84.6694Z" fill="#EBB376"/>
<path d="M142.517 93.1329C142.517 93.1329 142.308 111.441 138.238 111.441C135.976 111.441 133.418 109.973 131.261 108.313C129.433 106.894 127.737 105.314 126.191 103.593V103.529L124.767 95.0311C128.773 94.9324 135.767 104.098 135.767 104.098L139.139 92.4885L142.517 93.1329Z" fill="#92BDF6"/>
<path opacity="0.2" d="M131.244 108.301C129.416 106.882 127.719 105.303 126.174 103.582V103.518L127.476 100.615C129.66 102.609 131.006 105.356 131.244 108.301Z" fill="black"/>
<path d="M108.301 74.7257C108.301 74.7257 109.575 72.5314 113.22 72.1541C116.866 71.7768 121.703 73.7272 122.441 79.2767C123.18 84.8261 124.767 87.8795 124.767 87.8795C124.767 87.8795 113.023 90.9445 109.72 89.8416C106.418 88.7386 101.313 76.322 108.301 74.7257Z" fill="#263238"/>
<path d="M130.819 172.387C129.075 175.609 127.301 179.074 125.586 182.545C123.348 187.125 121.243 191.717 119.441 195.827C117.54 200.157 115.999 203.954 115.034 206.572C114.121 206.676 111.371 205.039 110.574 203.553C111.983 195.099 114.123 186.782 116.97 178.697C118.749 173.844 120.929 169.066 123.546 165.206C112.848 134.823 115.47 123.411 115.47 123.411L127.865 122.86C127.865 122.86 129.738 134.173 131.238 145.777C132.023 151.861 132.697 158.026 132.947 162.681V162.728C133.149 166.082 132.412 169.426 130.819 172.387Z" fill="#263238"/>
<path opacity="0.2" d="M120.604 156.168C119.034 151.002 117.9 146.532 117.115 142.695C117.912 139.7 119.034 137.128 120.563 135.584C120.551 135.584 122.755 143.943 120.604 156.168Z" fill="black"/>
<path opacity="0.2" d="M119.458 195.827C117.557 200.157 116.016 203.954 115.051 206.572C114.138 206.676 111.388 205.039 110.592 203.553C112.001 195.099 114.14 186.782 116.987 178.697C117.912 183.73 118.953 190.086 119.458 195.827Z" fill="black"/>
<path d="M123.174 121.507C123.174 121.507 119.569 149.37 117.499 162.797C115.324 176.886 115.051 199.484 115.592 208.696C114.801 209.155 111.923 209.712 110.359 209.225C110.359 209.225 103.004 180.734 107.888 164.185C103.44 131.59 109.882 123.608 109.882 123.608L123.174 121.507Z" fill="#263238"/>
<path opacity="0.7" d="M121.97 103.959C118.344 100.694 114.322 97.8953 109.999 95.629C110.394 95.5825 110.801 95.5419 111.203 95.5071C113.948 95.2196 116.711 95.1265 119.47 95.2284C120.15 95.269 120.854 95.3271 121.546 95.3851C123.255 99.2976 121.97 103.959 121.97 103.959Z" fill="white"/>
<path d="M109.999 121.507C109.627 117.281 108.109 109.532 105.499 101.393C104.65 98.7462 106.08 95.7567 106.08 95.7567C106.08 95.7567 109.638 95.6696 109.993 95.629C110.348 95.5883 110.795 95.5419 111.197 95.5071C113.942 95.2196 116.705 95.1265 119.464 95.2284C120.144 95.269 120.848 95.3271 121.54 95.3851C121.761 95.3851 124.261 95.4316 124.476 95.4548C124.476 95.4548 127.935 99.4021 128.145 102.601C128.405 105.06 128.5 107.535 128.43 110.008C128.43 112.91 128.203 116.741 128.011 120.822L109.999 121.507Z" fill="#92BDF6"/>
<path opacity="0.8" d="M109.999 121.507C109.627 117.281 108.109 109.532 105.499 101.393C104.65 98.7462 106.08 95.7567 106.08 95.7567C106.08 95.7567 109.638 95.6696 109.993 95.629C110.348 95.5883 110.795 95.5419 111.197 95.5071C113.942 95.2196 116.705 95.1265 119.464 95.2284C120.144 95.269 120.848 95.3271 121.54 95.3851C121.761 95.3851 124.261 95.4316 124.476 95.4548C124.476 95.4548 127.935 99.4021 128.145 102.601C128.405 105.06 128.5 107.535 128.43 110.008C128.43 112.91 128.203 116.741 128.011 120.822L109.999 121.507Z" fill="white"/>
<path d="M109.999 121.507L128.023 120.294C128.023 120.294 128.564 125.704 128.442 125.629C128.32 125.553 109.15 126.296 109.15 126.296L109.999 121.507Z" fill="#263238"/>
<path d="M110.162 121.809L128.017 120.822V122.511L109.999 123.469L110.162 121.809Z" fill="black"/>
<path d="M120.213 123.202C120.09 123.204 119.971 123.159 119.88 123.076C119.789 122.992 119.734 122.878 119.725 122.755L119.649 121.763C119.644 121.699 119.651 121.634 119.671 121.574C119.691 121.513 119.723 121.456 119.766 121.408C119.807 121.36 119.858 121.32 119.914 121.291C119.971 121.262 120.033 121.245 120.097 121.24L122.051 121.089C122.118 121.083 122.186 121.091 122.25 121.113C122.314 121.135 122.373 121.171 122.423 121.217C122.472 121.263 122.512 121.319 122.539 121.381C122.566 121.442 122.58 121.509 122.58 121.577V122.616C122.58 122.741 122.532 122.862 122.445 122.953C122.358 123.044 122.24 123.097 122.115 123.103L120.237 123.202H120.213ZM120.016 122.732C120.016 122.758 120.022 122.784 120.033 122.807C120.045 122.831 120.061 122.851 120.08 122.868C120.1 122.885 120.123 122.898 120.148 122.905C120.173 122.913 120.199 122.915 120.225 122.912L122.103 122.813C122.153 122.81 122.201 122.788 122.235 122.751C122.27 122.715 122.289 122.666 122.289 122.616V121.577C122.289 121.549 122.284 121.522 122.273 121.497C122.262 121.472 122.245 121.45 122.225 121.432C122.205 121.413 122.181 121.399 122.155 121.39C122.129 121.381 122.101 121.377 122.074 121.379L120.12 121.53C120.094 121.532 120.069 121.54 120.046 121.552C120.023 121.563 120.003 121.58 119.987 121.6C119.969 121.619 119.956 121.641 119.948 121.665C119.94 121.689 119.938 121.714 119.94 121.739L120.016 122.732Z" fill="white"/>
<path d="M111.464 133.883L105.231 132.757L108.859 119.365C108.859 119.365 107.935 116.039 106.906 112.225C106.411 110.373 105.894 108.405 105.452 106.652C104.96 104.908 104.572 103.137 104.289 101.347C104.173 99.2105 106.08 95.7566 106.08 95.7566L110.58 95.031C110.58 95.031 114.685 99.553 114.952 108.22C115.22 116.886 111.464 133.883 111.464 133.883Z" fill="#92BDF6"/>
<path d="M120.871 95.0311C120.871 95.0311 124.784 101.834 125.685 106.861C126.586 111.888 129.069 133.262 129.069 133.262L130.418 132.589L128.54 119.818C128.54 119.818 129.214 105.027 128.691 101.991C128.168 98.9552 124.761 95.0253 124.761 95.0253L120.871 95.0311Z" fill="#92BDF6"/>
<path d="M118.952 94.7061L119.22 94.4681C119.22 94.4681 123.022 94.9499 126.511 99.2978L125.156 100.615L127.481 102.473L126.383 111.442C126.383 111.442 122.859 99.4894 121.336 96.6218C120.637 95.8725 119.835 95.2273 118.952 94.7061Z" fill="#92BDF6"/>
<path opacity="0.2" d="M118.952 94.7061L119.22 94.4855C119.22 94.4855 123.022 94.9499 126.511 99.2977L125.156 100.615L127.481 102.473L126.383 111.442C126.383 111.442 122.859 99.4893 121.336 96.6217C120.637 95.8724 119.835 95.2273 118.952 94.7061Z" fill="black"/>
<path d="M111.469 95.0311C111.469 95.0311 115.824 99.8317 114.853 112.446L110.591 103.378L112.132 100.906L108.527 97.5272C108.527 97.5272 110.417 93.9456 111.754 94.2997L111.469 95.0311Z" fill="#92BDF6"/>
<path opacity="0.2" d="M111.469 95.0311C111.469 95.0311 115.824 99.8317 114.853 112.446L110.591 103.378L112.132 100.906L108.527 97.5272C108.527 97.5272 110.417 93.9456 111.754 94.2997L111.469 95.0311Z" fill="black"/>
<path d="M120.534 96.3952L119.534 102.368L111.662 95.4954C113.324 93.6611 112.278 88.8314 111.464 86.2076L113.697 87.8736L117.011 90.3523C116.95 91.0358 117.005 91.7246 117.173 92.3898C117.423 93.4405 117.871 94.4331 118.371 94.6421L120.534 96.3952Z" fill="#EBB376"/>
<path opacity="0.2" d="M117.173 92.3783C115.847 92.0822 114.115 90.7123 113.836 89.3655C113.731 88.8714 113.684 88.3669 113.696 87.8621L117.01 90.3407C116.949 91.0242 117.004 91.7131 117.173 92.3783Z" fill="black"/>
<path d="M112.051 93.9862C112.051 93.9862 115.418 96.581 119.371 102.061C119.371 102.061 119.726 96.5926 118.371 94.6305L118.65 94.2939C120.721 95.1979 122.523 96.6194 123.883 98.4211L121.278 97.5968L119.494 102.415L114.121 97.9858L110.505 98.6127C110.505 98.6127 110.662 95.0543 112.051 93.9862Z" fill="#92BDF6"/>
<path opacity="0.7" d="M112.051 93.9862C112.051 93.9862 115.418 96.581 119.371 102.061C119.371 102.061 119.726 96.5926 118.371 94.6305L118.65 94.2939C120.721 95.1979 122.523 96.6194 123.883 98.4211L121.278 97.5968L119.494 102.415L114.121 97.9858L110.505 98.6127C110.505 98.6127 110.662 95.0543 112.051 93.9862Z" fill="white"/>
<path d="M109.016 80.9485C109.969 85.2035 110.277 87.0262 112.801 88.9999C116.592 91.9662 121.603 90.1609 121.935 85.7666C122.237 81.8193 120.627 75.5152 116.156 74.2497C115.204 73.9462 114.188 73.9023 113.213 74.1226C112.238 74.3429 111.341 74.8193 110.612 75.5025C109.884 76.1858 109.352 77.051 109.071 78.0085C108.791 78.9661 108.771 79.9811 109.016 80.9485Z" fill="#EBB376"/>
<path d="M114.522 81.471C114.586 81.8367 114.83 82.1095 115.057 82.0805C115.283 82.0515 115.429 81.7438 115.365 81.3839C115.301 81.024 115.057 80.7512 114.824 80.8034C114.592 80.8557 114.458 81.1111 114.522 81.471Z" fill="#263238"/>
<path d="M119.028 80.8498C119.092 81.2097 119.33 81.4825 119.563 81.4303C119.795 81.378 119.929 81.0936 119.865 80.7337C119.801 80.3738 119.563 80.101 119.33 80.1242C119.098 80.1474 118.952 80.4841 119.028 80.8498Z" fill="#263238"/>
<path d="M119.231 80.1764L120.04 79.8397C120.04 79.8397 119.72 80.5595 119.231 80.1764Z" fill="#263238"/>
<path d="M117.79 81.7902C118.254 82.5801 118.816 83.3077 119.465 83.9554C119.304 84.1077 119.11 84.221 118.898 84.2865C118.686 84.3519 118.462 84.3677 118.244 84.3327L117.79 81.7902Z" fill="#D58745"/>
<path d="M113.452 79.2767C113.48 79.2768 113.507 79.2705 113.533 79.2584C113.558 79.2464 113.58 79.2288 113.597 79.2071C113.76 79.0044 113.97 78.8452 114.21 78.7439C114.449 78.6426 114.71 78.6023 114.969 78.6266C114.996 78.6315 115.024 78.6309 115.05 78.6247C115.077 78.6184 115.102 78.6068 115.124 78.5904C115.146 78.574 115.164 78.5533 115.177 78.5296C115.191 78.5058 115.199 78.4796 115.202 78.4524C115.206 78.3953 115.188 78.3389 115.153 78.2939C115.117 78.2489 115.067 78.2185 115.01 78.2086C114.683 78.1722 114.351 78.2184 114.047 78.3432C113.742 78.468 113.473 78.6672 113.266 78.9226C113.248 78.9443 113.236 78.9691 113.228 78.9958C113.22 79.0225 113.218 79.0504 113.221 79.078C113.224 79.1055 113.233 79.1322 113.247 79.1563C113.26 79.1805 113.279 79.2017 113.301 79.2187C113.342 79.256 113.396 79.2766 113.452 79.2767Z" fill="#263238"/>
<path d="M120.453 78.2725C120.48 78.2752 120.507 78.2725 120.533 78.2645C120.559 78.2565 120.583 78.2435 120.604 78.226C120.624 78.2066 120.639 78.1836 120.65 78.1582C120.66 78.1328 120.666 78.1055 120.666 78.078C120.666 78.0505 120.66 78.0233 120.65 77.9979C120.639 77.9725 120.624 77.9494 120.604 77.93C120.393 77.657 120.121 77.4364 119.811 77.2854C119.5 77.1344 119.159 77.057 118.813 77.0593C118.787 77.0612 118.76 77.0689 118.737 77.0817C118.713 77.0945 118.692 77.1121 118.676 77.1335C118.659 77.1549 118.647 77.1795 118.641 77.2057C118.635 77.2319 118.634 77.2592 118.639 77.2857C118.646 77.3426 118.675 77.3946 118.719 77.4313C118.763 77.4679 118.82 77.4864 118.877 77.483C119.15 77.4866 119.419 77.5522 119.663 77.6749C119.907 77.7976 120.119 77.9742 120.284 78.1912C120.306 78.2152 120.332 78.2347 120.361 78.2486C120.39 78.2626 120.421 78.2707 120.453 78.2725Z" fill="#263238"/>
<path d="M114.727 80.8034L115.535 80.4609C115.535 80.4609 115.221 81.1866 114.727 80.8034Z" fill="#263238"/>
<path d="M111.202 83.4155C111.202 83.4155 113.301 80.3622 111.702 75.8692C111.702 75.8692 116.446 73.5472 120.04 77.0766C120.04 77.0766 116.696 71.2253 109.714 74.029C102.731 76.8328 107.969 83.5258 108.865 84.0831C109.76 84.6403 111.202 83.4155 111.202 83.4155Z" fill="#263238"/>
<path d="M108.161 84.6287C108.439 84.9978 108.788 85.3079 109.187 85.5411C109.587 85.7743 110.028 85.9259 110.487 85.9871C111.65 86.1264 112.01 84.9364 111.469 83.8451C110.987 82.8583 109.789 81.6044 108.702 81.9701C107.615 82.3358 107.446 83.6942 108.161 84.6287Z" fill="#EBB376"/>
<path d="M118.494 85.3255C118.258 85.8714 118.064 86.4341 117.912 87.0089C117.808 87.0146 117.703 87.0146 117.598 87.0089C116.18 86.8696 115.575 86.3355 115.325 85.784C115.212 85.5145 115.164 85.2222 115.186 84.9307C115.194 84.7647 115.225 84.6006 115.279 84.4431C116.113 84.92 117.042 85.211 118 85.2964C118.308 85.3138 118.494 85.3255 118.494 85.3255Z" fill="#263238"/>
<path d="M118.01 85.2674L117.83 85.7608C116.493 85.6215 115.574 85.3486 115.196 84.9017C115.205 84.7356 115.236 84.5715 115.289 84.4141C116.124 84.8909 117.052 85.182 118.01 85.2674Z" fill="white"/>
<path d="M117.61 86.9798C116.192 86.8405 115.587 86.3065 115.337 85.755C115.874 85.8211 116.395 85.9802 116.878 86.2252C117.195 86.3935 117.452 86.6576 117.61 86.9798Z" fill="#DE5753"/>
<path opacity="0.2" d="M107.731 111.203C107.576 111.627 107.286 111.988 106.906 112.231C106.411 110.379 105.894 108.411 105.452 106.658C106.615 105.265 107.58 104.104 107.58 104.104C107.58 104.104 108.906 108.214 107.731 111.203Z" fill="black"/>
<path d="M106.092 95.7567C103.621 96.0586 96.068 114.791 96.5215 117.751C96.975 120.712 113.22 119.365 113.22 119.365V114.855L103.737 112.945L107.016 106.513C107.597 104.652 107.84 102.701 107.731 100.755C107.531 98.9946 106.973 97.2939 106.092 95.7567Z" fill="#92BDF6"/>
<path d="M116.103 126.25L103.638 124.741C103.525 124.729 103.417 124.695 103.318 124.641C103.219 124.586 103.133 124.512 103.064 124.423C102.995 124.334 102.944 124.232 102.916 124.123C102.888 124.013 102.882 123.9 102.899 123.788L105.091 107.784C105.13 107.556 105.256 107.352 105.442 107.214C105.629 107.077 105.861 107.017 106.091 107.047L118.557 108.557C118.669 108.567 118.777 108.6 118.876 108.654C118.975 108.708 119.061 108.782 119.13 108.871C119.2 108.959 119.25 109.061 119.278 109.17C119.307 109.278 119.312 109.392 119.295 109.503L117.103 125.513C117.065 125.741 116.939 125.945 116.752 126.083C116.566 126.22 116.333 126.28 116.103 126.25Z" fill="#263238"/>
<path opacity="0.6" d="M116.103 126.25L103.638 124.741C103.525 124.729 103.417 124.695 103.318 124.641C103.219 124.586 103.133 124.512 103.064 124.423C102.995 124.334 102.944 124.232 102.916 124.123C102.888 124.013 102.882 123.9 102.899 123.788L105.091 107.784C105.13 107.556 105.256 107.352 105.442 107.214C105.629 107.077 105.861 107.017 106.091 107.047L118.557 108.557C118.669 108.567 118.777 108.6 118.876 108.654C118.975 108.708 119.061 108.782 119.13 108.871C119.2 108.959 119.25 109.061 119.278 109.17C119.307 109.278 119.312 109.392 119.295 109.503L117.103 125.513C117.065 125.741 116.939 125.945 116.752 126.083C116.566 126.22 116.333 126.28 116.103 126.25Z" fill="white"/>
<path opacity="0.2" d="M115.586 126.186L103.638 124.741C103.525 124.729 103.417 124.695 103.318 124.641C103.219 124.586 103.133 124.512 103.064 124.423C102.995 124.334 102.944 124.232 102.916 124.123C102.888 124.013 102.882 123.9 102.899 123.788L105.091 107.784C105.13 107.556 105.256 107.352 105.442 107.214C105.629 107.077 105.861 107.017 106.091 107.047L118.039 108.493C118.151 108.504 118.26 108.538 118.358 108.593C118.457 108.647 118.543 108.721 118.612 108.811C118.68 108.9 118.73 109.002 118.757 109.111C118.785 109.22 118.79 109.334 118.772 109.445L116.586 125.449C116.544 125.676 116.418 125.878 116.232 126.015C116.046 126.152 115.815 126.213 115.586 126.186Z" fill="white"/>
<path d="M110.813 115.267C110.454 115.22 110.09 115.315 109.8 115.532C109.51 115.749 109.317 116.07 109.26 116.428C109.235 116.602 109.246 116.779 109.291 116.948C109.337 117.118 109.416 117.276 109.525 117.414C109.634 117.552 109.769 117.667 109.924 117.75C110.078 117.834 110.248 117.886 110.423 117.902C110.781 117.944 111.141 117.847 111.429 117.631C111.718 117.415 111.911 117.096 111.97 116.741C111.795 116.726 111.624 116.675 111.47 116.591C111.315 116.507 111.18 116.393 111.071 116.255C110.963 116.116 110.884 115.957 110.839 115.787C110.795 115.618 110.786 115.44 110.813 115.267Z" fill="#263238"/>
<path opacity="0.3" d="M115.04 109.421L108.487 108.626C108.332 108.608 108.185 108.543 108.068 108.439C107.95 108.335 107.867 108.198 107.83 108.046L107.627 107.216L116.348 108.272L115.9 109.021C115.815 109.167 115.687 109.284 115.533 109.356C115.379 109.427 115.207 109.45 115.04 109.421Z" fill="black"/>
<path d="M116.697 114.303L112.987 115.366L112.208 117.815C112.563 119.812 116.4 118.976 116.4 118.976L117.191 119.47C117.338 119.561 117.506 119.616 117.68 119.628C117.853 119.64 118.027 119.61 118.186 119.539C118.345 119.469 118.484 119.36 118.591 119.224C118.698 119.087 118.771 118.926 118.801 118.756L119.208 116.434C119.242 116.244 119.223 116.048 119.154 115.868C119.084 115.688 118.966 115.53 118.813 115.412L117.65 114.501C117.519 114.394 117.363 114.32 117.197 114.286C117.031 114.252 116.86 114.258 116.697 114.303Z" fill="#EBB376"/>
<path d="M98.5332 110.042C97.2308 113.601 96.3587 116.712 96.5215 117.78C96.9692 120.741 113.22 119.394 113.22 119.394V114.884L103.737 112.945L98.5332 110.042Z" fill="#92BDF6"/>
<path d="M133.989 61.7576H126.855C126.533 61.7576 126.214 61.8209 125.916 61.944C125.618 62.0671 125.348 62.2476 125.12 62.4751C124.892 62.7025 124.711 62.9726 124.588 63.2698C124.465 63.567 124.401 63.8855 124.401 64.2072V71.1498C124.401 71.4713 124.465 71.7895 124.588 72.0864C124.712 72.3833 124.892 72.653 125.12 72.88C125.348 73.107 125.619 73.2869 125.916 73.4093C126.214 73.5318 126.533 73.5945 126.855 73.5937H128.535L128.122 76.1827L130.181 73.5937H133.989C134.638 73.5937 135.261 73.3362 135.72 72.8779C136.179 72.4196 136.437 71.798 136.437 71.1498V64.184C136.431 63.5393 136.17 62.9231 135.712 62.4689C135.254 62.0146 134.635 61.7591 133.989 61.7576Z" fill="#92BDF6"/>
<path d="M127.942 66.2794C128.564 65.2462 129.774 65.6235 130.413 66.413C131.024 65.6061 132.227 65.1997 132.873 66.2156C133.96 67.928 131.785 69.5592 130.756 70.1977L130.46 70.3835L130.163 70.2093C129.117 69.594 126.902 68.0209 127.942 66.2794Z" fill="white"/>
<path d="M51.9623 92.8485C55.6078 96.2328 56.0322 107.941 56.3346 112.916C56.5148 115.818 56.9625 118.924 57.3695 121.873C57.7997 124.915 58.2242 127.985 58.6253 131.045C58.6821 131.422 58.5956 131.806 58.3827 132.123C58.1699 132.439 57.8461 132.665 57.4752 132.755C57.1042 132.845 56.7128 132.794 56.378 132.61C56.0432 132.427 55.7892 132.125 55.6659 131.764C54.6136 128.804 53.6775 125.826 52.8635 122.796C51.7675 118.975 50.9897 115.071 50.5379 111.122C49.9158 106.832 49.3751 102.293 48.0959 98.189C47.9873 97.885 47.8591 97.5883 47.7122 97.3008C47.7529 97.3008 47.782 97.3821 47.8401 97.4111C44.8982 94.6132 48.846 90.2189 51.9565 92.8485H51.9623Z" fill="#263238"/>
<path opacity="0.7" d="M51.9623 92.8485C55.6078 96.2328 56.0322 107.941 56.3346 112.916C56.5148 115.818 56.9625 118.924 57.3695 121.873C57.7997 124.915 58.2242 127.985 58.6253 131.045C58.6821 131.422 58.5956 131.806 58.3827 132.123C58.1699 132.439 57.8461 132.665 57.4752 132.755C57.1042 132.845 56.7128 132.794 56.378 132.61C56.0432 132.427 55.7892 132.125 55.6659 131.764C54.6136 128.804 53.6775 125.826 52.8635 122.796C51.7675 118.975 50.9897 115.071 50.5379 111.122C49.9158 106.832 49.3751 102.293 48.0959 98.189C47.9873 97.885 47.8591 97.5883 47.7122 97.3008C47.7529 97.3008 47.782 97.3821 47.8401 97.4111C44.8982 94.6132 48.846 90.2189 51.9565 92.8485H51.9623Z" fill="white"/>
<path d="M59.1015 130.783L61.2877 134.597L56.4212 134.957C56.4212 134.957 54.677 131.439 56.5317 130.615L59.1015 130.783Z" fill="#263238"/>
<path d="M61.1662 138.945L56.8812 137.836L56.4219 134.957L61.2883 134.597L61.1662 138.945Z" fill="#263238"/>
<path d="M31.9213 98.5024C28.8282 101.062 25.0258 103.93 22.9676 107.21C22.9676 106.995 22.8978 106.937 22.921 107.041C23.578 108.667 24.9444 110.031 26.1421 111.418C27.7758 113.206 29.5492 115.006 31.2992 116.759C31.5513 117.025 31.7001 117.372 31.7189 117.737C31.7377 118.103 31.6253 118.463 31.4018 118.754C31.1783 119.044 30.8584 119.245 30.4996 119.321C30.1408 119.397 29.7667 119.343 29.4445 119.168C25.9693 117.249 22.7779 114.858 19.9616 112.063C18.2174 110.286 16.7464 107.854 17.7116 105.277C18.5837 102.711 20.4442 100.668 22.2059 98.8159C24.0717 96.9198 26.0837 95.1729 28.2235 93.5915C31.5492 91.2695 35.0668 95.9657 31.9213 98.5082V98.5024Z" fill="#263238"/>
<path opacity="0.7" d="M31.9213 98.5024C28.8282 101.062 25.0258 103.93 22.9676 107.21C22.9676 106.995 22.8978 106.937 22.921 107.041C23.578 108.667 24.9444 110.031 26.1421 111.418C27.7758 113.206 29.5492 115.006 31.2992 116.759C31.5513 117.025 31.7001 117.372 31.7189 117.737C31.7377 118.103 31.6253 118.463 31.4018 118.754C31.1783 119.044 30.8584 119.245 30.4996 119.321C30.1408 119.397 29.7667 119.343 29.4445 119.168C25.9693 117.249 22.7779 114.858 19.9616 112.063C18.2174 110.286 16.7464 107.854 17.7116 105.277C18.5837 102.711 20.4442 100.668 22.2059 98.8159C24.0717 96.9198 26.0837 95.1729 28.2235 93.5915C31.5492 91.2695 35.0668 95.9657 31.9213 98.5082V98.5024Z" fill="white"/>
<path d="M35.7637 120.097C35.7637 120.097 36.0311 124.642 38.2579 132.606C39.6522 137.532 41.3453 142.369 43.3279 147.089C44.4384 149.754 45.7117 152.581 47.171 155.559C47.828 156.911 48.5315 158.287 49.2699 159.703C50.1246 183.817 63.6773 208.336 63.6773 208.336C64.4273 208.725 67.0495 208.302 67.0321 207.541C65.0262 204.354 61.0726 173.455 58.526 158.78C58.369 156.789 58.1423 154.653 57.8574 152.447C57.1132 146.532 56.0143 140.094 54.9503 134.452C53.27 125.541 51.6653 118.547 51.6653 118.547L47.1943 118.982L35.7637 120.097Z" fill="#263238"/>
<path opacity="0.7" d="M35.7637 120.097C35.7637 120.097 36.0311 124.642 38.2579 132.606C39.6522 137.532 41.3453 142.369 43.3279 147.089C44.4384 149.754 45.7117 152.581 47.171 155.559C47.828 156.911 48.5315 158.287 49.2699 159.703C50.1246 183.817 63.6773 208.336 63.6773 208.336C64.4273 208.725 67.0495 208.302 67.0321 207.541C65.0262 204.354 61.0726 173.455 58.526 158.78C58.369 156.789 58.1423 154.653 57.8574 152.447C57.1132 146.532 56.0143 140.094 54.9503 134.452C53.27 125.541 51.6653 118.547 51.6653 118.547L47.1943 118.982L35.7637 120.097Z" fill="white"/>
<path d="M30.4385 153.48C30.799 156.075 31.2583 158.844 31.8339 161.805C26.9907 177.936 36.9445 209.405 36.9445 209.405C38.6306 209.735 40.1249 209.515 40.8807 208.952C39.0027 199.467 40.3516 174.807 41.811 160.069C41.9389 158.734 42.1017 157.259 42.2819 155.692C42.5843 153.033 42.9389 150.102 43.3226 147.078C43.9622 142.01 44.689 136.675 45.3402 131.95C46.1367 126.232 46.8344 121.397 47.1832 118.97C47.3402 117.902 47.4274 117.299 47.4274 117.299L33.4444 118.808C33.4444 118.808 29.892 122.79 29.3745 135.218C29.1784 141.325 29.5345 147.437 30.4385 153.48Z" fill="#263238"/>
<path opacity="0.7" d="M30.4385 153.48C30.799 156.075 31.2583 158.844 31.8339 161.805C26.9907 177.936 36.9445 209.405 36.9445 209.405C38.6306 209.735 40.1249 209.515 40.8807 208.952C39.0027 199.467 40.3516 174.807 41.811 160.069C41.9389 158.734 42.1017 157.259 42.2819 155.692C42.5843 153.033 42.9389 150.102 43.3226 147.078C43.9622 142.01 44.689 136.675 45.3402 131.95C46.1367 126.232 46.8344 121.397 47.1832 118.97C47.3402 117.902 47.4274 117.299 47.4274 117.299L33.4444 118.808C33.4444 118.808 29.892 122.79 29.3745 135.218C29.1784 141.325 29.5345 147.437 30.4385 153.48Z" fill="white"/>
<path d="M49.9746 90.422C54.4341 91.908 54.748 95.0659 57.3004 101.736C56.4751 102.942 55.39 103.95 54.1245 104.684C52.859 105.418 51.4451 105.861 49.9863 105.979C49.9863 105.979 43.6023 94.0965 49.9746 90.422Z" fill="#263238"/>
<path opacity="0.8" d="M57.3234 101.73C56.0502 103.586 54.1821 104.953 52.0267 105.608C51.3735 105.82 50.6953 105.947 50.0092 105.985L49.9104 105.788C49.4046 104.789 47.1487 100.134 47.1661 96.0354C47.1661 93.7541 47.8871 91.6353 49.9976 90.4163C54.4163 91.9023 54.7477 95.0892 57.3234 101.73Z" fill="white"/>
<path opacity="0.1" d="M54.8173 104.238C53.957 104.839 53.0074 105.301 52.0032 105.608C50.9677 103.558 50.2614 101.358 49.9102 99.0887C50.5813 99.0176 51.2585 99.1447 51.858 99.4542C52.4574 99.7638 52.9527 100.242 53.2824 100.83C53.9573 101.885 54.4744 103.033 54.8173 104.238Z" fill="black"/>
<path d="M47.2874 71.6548C47.2874 71.6548 51.4329 82.0049 47.2874 91.0141C43.1419 100.023 31.5078 94.6131 30.3566 92.4537C29.2054 90.2943 31.8974 85.8942 31.8974 81.8656C31.8974 77.837 30.9206 75.6428 31.6532 72.334C32.3858 69.0252 47.2874 71.6548 47.2874 71.6548Z" fill="#263238"/>
<path opacity="0.2" d="M30.4385 153.48C34.2641 154.766 38.25 155.514 42.2819 155.704C42.5842 153.045 42.9389 150.114 43.3226 147.089C44.4331 149.754 45.7064 152.581 47.1658 155.559C50.8939 155.222 54.5221 154.171 57.8522 152.465C57.1079 146.549 56.0091 140.112 54.9451 134.469C53.4649 133.602 51.8641 132.958 50.1949 132.56C48.6072 132.176 46.9796 131.981 45.346 131.979C42.9681 131.962 40.5943 132.178 38.2585 132.624C35.2081 133.187 32.2248 134.066 29.3571 135.247C29.1685 141.345 29.5304 147.447 30.4385 153.48Z" fill="black"/>
<path d="M30.3574 90.7587C31.1277 93.8335 31.7313 96.9475 32.1656 100.087C32.4156 101.829 32.6598 103.785 32.8575 105.892C33.2659 110.177 33.4212 114.482 33.3226 118.785H51.736C51.736 118.785 54.6431 97.3066 49.8406 90.3408C49.8406 90.3582 40.4042 85.9175 30.3574 90.7587Z" fill="#263238"/>
<path opacity="0.5" d="M30.3574 90.7587C31.1277 93.8335 31.7313 96.9475 32.1656 100.087C32.4156 101.829 32.6598 103.785 32.8575 105.892C33.2659 110.177 33.4212 114.482 33.3226 118.785H51.736C51.736 118.785 54.6431 97.3066 49.8406 90.3408C49.8406 90.3582 40.4042 85.9175 30.3574 90.7587Z" fill="white"/>
<path opacity="0.1" d="M32.165 100.087C32.415 101.829 32.6592 103.785 32.8569 105.892C34.2084 102.755 34.394 99.239 33.3802 95.9773L32.165 100.087Z" fill="black"/>
<path d="M39.8811 87.2351C34.1076 87.2351 33.3809 91.9777 33.3809 91.9777L36.0786 90.8167L44.0149 96.1108L45.9627 90.7645L48.4104 91.2173C48.4104 91.2173 44.8987 87.2409 39.8811 87.2351Z" fill="#263238"/>
<path opacity="0.8" d="M39.8811 87.2351C34.1076 87.2351 33.3809 91.9777 33.3809 91.9777L36.0786 90.8167L44.0149 96.1108L45.9627 90.7645L48.4104 91.2173C48.4104 91.2173 44.8987 87.2409 39.8811 87.2351Z" fill="white"/>
<path d="M43.7526 95.7973L36.3105 89.3307C38.1187 87.479 37.1943 82.3649 36.4385 79.6075L42.084 84.1353C41.7061 86.2948 41.7991 88.5935 44.9562 89.3307C44.9562 89.3307 43.7468 95.7799 43.7526 95.7973Z" fill="#263238"/>
<path opacity="0.7" d="M43.7526 95.7973L36.3105 89.3307C38.1187 87.479 37.1943 82.3649 36.4385 79.6075L42.084 84.1353C41.7061 86.2948 41.7991 88.5935 44.9562 89.3307C44.9562 89.3307 43.7468 95.7799 43.7526 95.7973Z" fill="white"/>
<path opacity="0.1" d="M38.7184 81.4594L42.0615 84.1354C41.9655 84.6407 41.9149 85.1536 41.9104 85.6679C40.7127 85.4937 39.0033 84.1934 38.7707 82.957C38.6638 82.4649 38.6461 81.9577 38.7184 81.4594Z" fill="black"/>
<path d="M34.0671 74.0523C34.9102 78.5394 35.1718 80.4376 37.7358 82.6029C41.5906 85.8362 46.8873 84.1237 47.3931 79.5495C47.8524 75.4338 46.3931 68.7931 41.765 67.3128C40.7818 66.9609 39.7221 66.8781 38.696 67.0728C37.6699 67.2676 36.7146 67.7328 35.9293 68.4204C35.1439 69.108 34.5571 69.9928 34.2297 70.983C33.9023 71.9733 33.8461 73.033 34.0671 74.0523Z" fill="#263238"/>
<path opacity="0.7" d="M34.0671 74.0523C34.9102 78.5394 35.1718 80.4376 37.7358 82.6029C41.5906 85.8362 46.8873 84.1237 47.3931 79.5495C47.8524 75.4338 46.3931 68.7931 41.765 67.3128C40.7818 66.9609 39.7221 66.8781 38.696 67.0728C37.6699 67.2676 36.7146 67.7328 35.9293 68.4204C35.1439 69.108 34.5571 69.9928 34.2297 70.983C33.9023 71.9733 33.8461 73.033 34.0671 74.0523Z" fill="white"/>
<path d="M37.9269 70.7958C35.4501 73.9885 40.5433 77.663 35.4501 77.4482C30.3569 77.2334 32.4267 70.0586 35.4501 68.4274C38.4734 66.7962 37.9269 70.7958 37.9269 70.7958Z" fill="#263238"/>
<path d="M41.1837 74.7838C41.236 75.1611 41.4802 75.4571 41.7244 75.4397C41.9686 75.4223 42.1198 75.0972 42.0616 74.7199C42.0035 74.3426 41.7651 74.0465 41.5267 74.064C41.2884 74.0814 41.1256 74.4006 41.1837 74.7838Z" fill="#263238"/>
<path d="M45.7707 74.5108C45.8231 74.8939 46.0673 75.1842 46.3115 75.1668C46.5557 75.1494 46.7068 74.8243 46.6545 74.447C46.6022 74.0696 46.358 73.7736 46.1138 73.791C45.8696 73.8084 45.6952 74.1335 45.7707 74.5108Z" fill="#263238"/>
<path d="M46.0088 73.8201L46.8577 73.4718C46.8577 73.4718 46.5088 74.238 46.0088 73.8201Z" fill="#263238"/>
<path opacity="0.2" d="M44.585 75.2133C45.0421 76.0551 45.6048 76.8354 46.2594 77.5352C46.0853 77.6881 45.8786 77.7994 45.6549 77.8608C45.4313 77.9221 45.1967 77.9319 44.9687 77.8893L44.585 75.2133Z" fill="black"/>
<path d="M43.0259 79.4624C43.2367 79.4829 43.4489 79.4829 43.6597 79.4624C43.674 79.461 43.6879 79.4567 43.7005 79.4497C43.7131 79.4427 43.7241 79.4332 43.7328 79.4217C43.7416 79.4103 43.7479 79.3972 43.7513 79.3832C43.7547 79.3692 43.7552 79.3547 43.7527 79.3405C43.7484 79.3118 43.7335 79.2857 43.7109 79.2675C43.6883 79.2492 43.6596 79.24 43.6306 79.2418C43.1539 79.2774 42.6753 79.2062 42.2297 79.0335C41.784 78.8608 41.3827 78.5908 41.055 78.2434C41.0447 78.233 41.0325 78.2248 41.019 78.2192C41.0055 78.2136 40.9911 78.2107 40.9765 78.2107C40.9619 78.2107 40.9474 78.2136 40.9339 78.2192C40.9205 78.2248 40.9082 78.233 40.898 78.2434C40.8876 78.2536 40.8794 78.2658 40.8737 78.2793C40.8681 78.2927 40.8652 78.3072 40.8652 78.3217C40.8652 78.3363 40.8681 78.3507 40.8737 78.3642C40.8794 78.3776 40.8876 78.3899 40.898 78.4001C41.4548 79.0001 42.2111 79.3777 43.0259 79.4624Z" fill="#263238"/>
<path d="M33.6308 78.3595C33.8147 78.7553 34.0792 79.1085 34.4076 79.3964C34.736 79.6842 35.121 79.9005 35.5379 80.0313C36.5844 80.3099 37.0379 79.1141 36.7007 77.9183C36.3867 76.8386 35.4681 75.399 34.4448 75.6602C33.4215 75.9215 33.1017 77.3088 33.6308 78.3595Z" fill="#263238"/>
<path d="M39.8811 72.7404C39.9104 72.7429 39.94 72.7384 39.9673 72.7273C39.9945 72.7162 40.0188 72.6988 40.038 72.6765C40.2126 72.4664 40.4371 72.3033 40.6909 72.2019C40.9448 72.1005 41.22 72.0641 41.4916 72.096C41.5195 72.1019 41.5484 72.102 41.5763 72.0963C41.6043 72.0906 41.6308 72.0792 41.6543 72.0629C41.6777 72.0466 41.6975 72.0257 41.7125 72.0014C41.7275 71.9772 41.7374 71.9501 41.7416 71.9219C41.7474 71.8617 41.7312 71.8015 41.6959 71.7524C41.6606 71.7033 41.6087 71.6686 41.5497 71.6549C41.2088 71.6059 40.861 71.643 40.538 71.7626C40.2151 71.8823 39.9273 72.0807 39.7008 72.3398C39.6603 72.382 39.6377 72.4382 39.6377 72.4966C39.6377 72.555 39.6603 72.6112 39.7008 72.6533C39.7204 72.6825 39.7474 72.706 39.7791 72.7213C39.8108 72.7366 39.846 72.7432 39.8811 72.7404Z" fill="#263238"/>
<path d="M46.8004 72.3108C46.8575 72.3144 46.9138 72.2957 46.9574 72.2586C46.9781 72.2381 46.9946 72.2137 47.0058 72.1868C47.017 72.1599 47.0228 72.131 47.0228 72.1019C47.0228 72.0727 47.017 72.0439 47.0058 72.017C46.9946 71.9901 46.9781 71.9656 46.9574 71.9451C46.7276 71.6671 46.4362 71.4464 46.1062 71.3003C45.7763 71.1542 45.4167 71.0868 45.0561 71.1034C45.0277 71.106 45.0002 71.1146 44.9755 71.1287C44.9508 71.1428 44.9294 71.1621 44.9128 71.1853C44.8962 71.2085 44.8849 71.2349 44.8795 71.2629C44.8741 71.2908 44.8749 71.3196 44.8817 71.3472C44.8917 71.4062 44.9236 71.4593 44.971 71.4958C45.0184 71.5324 45.0779 71.5498 45.1375 71.5446C45.4233 71.5373 45.707 71.5951 45.9669 71.7139C46.2269 71.8326 46.4563 72.0089 46.6376 72.2296C46.6793 72.2766 46.7376 72.3057 46.8004 72.3108Z" fill="#263238"/>
<path d="M41.4219 74.093L42.2766 73.7621C42.2766 73.7621 41.9219 74.5109 41.4219 74.093Z" fill="#263238"/>
<path d="M40.0793 68.5435C40.0793 68.5435 38.7246 74.5573 34.2652 75.2307C29.8057 75.904 30.8755 69.3736 36.7827 66.9703C42.6898 64.5671 47.4807 69.3503 47.7539 70.639C47.8097 71.0392 47.7541 71.447 47.593 71.8177C47.432 72.1883 47.1719 72.5076 46.8411 72.7404C46.8411 72.7404 44.7132 68.6596 40.0793 68.5435Z" fill="#263238"/>
<path opacity="0.7" d="M33.6308 78.3595C33.8147 78.7553 34.0792 79.1085 34.4076 79.3964C34.736 79.6842 35.121 79.9005 35.5379 80.0313C36.5844 80.3099 37.0379 79.1141 36.7007 77.9183C36.3867 76.8386 35.4681 75.399 34.4448 75.6602C33.4215 75.9215 33.1017 77.3088 33.6308 78.3595Z" fill="white"/>
<path d="M36.6013 213.532H37.3804L37.5955 212.574L40.177 213.735H46.7121C46.7121 213.735 47.747 212.69 44.6364 211.86C44.4847 211.816 44.3369 211.76 44.1945 211.692C42.5375 210.914 40.177 208.29 40.177 208.29H36.5897C36.4826 208.456 36.3855 208.629 36.299 208.807C35.9036 209.596 35.2292 211.251 36.6013 213.532Z" fill="#263238"/>
<path d="M36.2998 208.807C36.7707 208.278 38.9278 210.595 40.5034 211.384C41.9104 212.081 43.4977 212.394 44.1954 211.68C42.5384 210.902 39.9278 207.512 39.9278 207.512H37.0208C37.0208 207.512 36.4684 208.47 36.2998 208.807Z" fill="#263238"/>
<path opacity="0.7" d="M36.2998 208.807C36.7707 208.278 38.9278 210.595 40.5034 211.384C41.9104 212.081 43.4977 212.394 44.1954 211.68C42.5384 210.902 39.9278 207.512 39.9278 207.512H37.0208C37.0208 207.512 36.4684 208.47 36.2998 208.807Z" fill="white"/>
<path d="M63.8235 213.532H64.6026L64.8177 212.574L67.3992 213.735H73.9285C73.9285 213.735 74.9692 212.69 71.8587 211.86C71.7066 211.817 71.5587 211.761 71.4168 211.692C69.7598 210.914 67.3992 208.29 67.3992 208.29H63.8119C63.7012 208.455 63.6022 208.628 63.5154 208.807C63.1375 209.596 62.4514 211.251 63.8235 213.532Z" fill="#263238"/>
<path d="M63.5146 208.807C63.9914 208.278 66.1426 210.595 67.7241 211.384C69.1311 212.081 70.7126 212.394 71.4161 211.68C69.759 210.902 67.1485 207.512 67.1485 207.512H64.2414C64.2414 207.512 63.6833 208.47 63.5146 208.807Z" fill="#263238"/>
<path opacity="0.7" d="M63.5146 208.807C63.9914 208.278 66.1426 210.595 67.7241 211.384C69.1311 212.081 70.7126 212.394 71.4161 211.68C69.759 210.902 67.1485 207.512 67.1485 207.512H64.2414C64.2414 207.512 63.6833 208.47 63.5146 208.807Z" fill="white"/>
<path d="M51.9107 117.31H33.3462L32.8461 119.696C32.8461 119.696 26.032 129.123 29.4856 152.621C29.4856 152.621 44.4221 154.363 58.4807 151.327C58.4807 151.327 55.3236 127.19 52.027 119.313L51.9107 117.31Z" fill="#263238"/>
<path d="M38.8803 119.365H32.6533L33.0312 117.589H38.8803V119.365Z" fill="#263238"/>
<path d="M50.1953 117.589H52.0616L52.2244 119.365H50.1953V117.589Z" fill="#263238"/>
<path d="M49.5729 117.589H39.4854V119.359H49.5729V117.589Z" fill="#263238"/>
<path opacity="0.6" d="M38.8803 119.365H32.6533L33.0312 117.589H38.8803V119.365Z" fill="white"/>
<path opacity="0.6" d="M50.1953 117.589H52.0616L52.2244 119.365H50.1953V117.589Z" fill="white"/>
<path opacity="0.6" d="M49.5729 117.589H39.4854V119.359H49.5729V117.589Z" fill="white"/>
<path d="M43.9918 119.499H46.7477C46.9275 119.499 47.0732 119.353 47.0732 119.174V117.78C47.0732 117.601 46.9275 117.455 46.7477 117.455H43.9918C43.8119 117.455 43.6662 117.601 43.6662 117.78V119.174C43.6662 119.353 43.8119 119.499 43.9918 119.499Z" fill="white"/>
<path d="M31.5082 90.3408C29.293 90.4569 25.2696 94.2707 21.8916 98.607C23.6561 100.712 25.5889 102.671 27.6709 104.464L34.0664 99.9479C34.0664 99.9479 34.8222 92.8311 31.5082 90.3408Z" fill="#263238"/>
<path opacity="0.8" d="M31.5082 90.3408C29.293 90.4569 25.2696 94.2707 21.8916 98.607C23.6561 100.712 25.5889 102.671 27.6709 104.464L34.0664 99.9479C34.0664 99.9479 34.8222 92.8311 31.5082 90.3408Z" fill="white"/>
<path opacity="0.6" d="M43.8575 97.7129C43.8563 97.7855 43.8768 97.8568 43.9164 97.9177C43.9559 97.9786 44.0127 98.0263 44.0795 98.0549C44.1463 98.0835 44.2202 98.0916 44.2916 98.0781C44.363 98.0647 44.4288 98.0303 44.4806 97.9794C44.5325 97.9285 44.5679 97.8633 44.5825 97.7922C44.5971 97.7212 44.5902 97.6473 44.5627 97.5802C44.5351 97.513 44.4882 97.4555 44.4279 97.4151C44.3675 97.3746 44.2965 97.353 44.2238 97.353C44.1276 97.353 44.0353 97.3907 43.9668 97.4581C43.8983 97.5254 43.859 97.6169 43.8575 97.7129Z" fill="white"/>
<path opacity="0.6" d="M44.9454 103.39C45.1445 103.39 45.3059 103.229 45.3059 103.03C45.3059 102.832 45.1445 102.67 44.9454 102.67C44.7464 102.67 44.585 102.832 44.585 103.03C44.585 103.229 44.7464 103.39 44.9454 103.39Z" fill="white"/>
<path opacity="0.6" d="M45.3693 108.94C45.5684 108.94 45.7297 108.778 45.7297 108.58C45.7297 108.381 45.5684 108.22 45.3693 108.22C45.1702 108.22 45.0088 108.381 45.0088 108.58C45.0088 108.778 45.1702 108.94 45.3693 108.94Z" fill="white"/>
<path opacity="0.6" d="M45.3693 114.837C45.5684 114.837 45.7297 114.676 45.7297 114.477C45.7297 114.279 45.5684 114.118 45.3693 114.118C45.1702 114.118 45.0088 114.279 45.0088 114.477C45.0088 114.676 45.1702 114.837 45.3693 114.837Z" fill="white"/>
<path d="M35.5382 120.909L35.2998 119.51C35.2548 119.251 35.1484 119.006 34.9897 118.796C34.8309 118.586 34.6243 118.417 34.387 118.303L32.1369 117.217C31.6939 117.004 31.2064 116.9 30.7149 116.913C30.2234 116.926 29.7422 117.056 29.3112 117.293L28.7705 117.595C29.0089 119.917 30.9973 122.297 30.9973 122.297L31.4915 123.034C31.588 123.188 31.7141 123.321 31.8626 123.425C32.0111 123.53 32.1789 123.604 32.3563 123.644C32.5337 123.683 32.7172 123.687 32.8961 123.655C33.0751 123.623 33.2458 123.556 33.3986 123.458L34.8753 122.5C35.1282 122.327 35.3255 122.085 35.4432 121.803C35.5608 121.52 35.5938 121.21 35.5382 120.909Z" fill="#263238"/>
<path opacity="0.7" d="M35.5382 120.909L35.2998 119.51C35.2548 119.251 35.1484 119.006 34.9897 118.796C34.8309 118.586 34.6243 118.417 34.387 118.303L32.1369 117.217C31.6939 117.004 31.2064 116.9 30.7149 116.913C30.2234 116.926 29.7422 117.056 29.3112 117.293L28.7705 117.595C29.0089 119.917 30.9973 122.297 30.9973 122.297L31.4915 123.034C31.588 123.188 31.7141 123.321 31.8626 123.425C32.0111 123.53 32.1789 123.604 32.3563 123.644C32.5337 123.683 32.7172 123.687 32.8961 123.655C33.0751 123.623 33.2458 123.556 33.3986 123.458L34.8753 122.5C35.1282 122.327 35.3255 122.085 35.4432 121.803C35.5608 121.52 35.5938 121.21 35.5382 120.909Z" fill="white"/>
<g opacity="0.7">
<path d="M59.1015 130.783L61.2877 134.597L56.4212 134.957C56.4212 134.957 54.677 131.439 56.5317 130.615L59.1015 130.783Z" fill="white"/>
<path d="M61.1662 138.945L56.8812 137.836L56.4219 134.957L61.2883 134.597L61.1662 138.945Z" fill="white"/>
</g>
</g>
<defs>
<clipPath id="clip0_243_4079">
<rect width="239" height="226" fill="white"/>
</clipPath>
</defs>
</svg>
