<svg width="56" height="56" viewBox="0 0 56 56" fill="none" xmlns="http://www.w3.org/2000/svg">
<circle cx="28" cy="28" r="25" fill="#2C438A"/>
<path d="M29.6566 41.3234L41.3232 29.6567C41.5357 29.4348 41.7022 29.1731 41.8132 28.8867C42.0466 28.3186 42.0466 27.6814 41.8132 27.1134C41.7022 26.8269 41.5357 26.5653 41.3232 26.3434L29.6566 14.6767C29.439 14.4591 29.1807 14.2866 28.8965 14.1688C28.6122 14.0511 28.3076 13.9905 27.9999 13.9905C27.3785 13.9905 26.7826 14.2373 26.3432 14.6767C25.9039 15.1161 25.657 15.712 25.657 16.3334C25.657 16.9547 25.9039 17.5507 26.3432 17.99L34.0433 25.6667L16.3333 25.6667C15.7144 25.6667 15.1209 25.9125 14.6833 26.3501C14.2457 26.7877 13.9999 27.3812 13.9999 28C13.9999 28.6189 14.2457 29.2124 14.6833 29.6499C15.1209 30.0875 15.7144 30.3334 16.3333 30.3334L34.0433 30.3334L26.3432 38.01C26.1245 38.2269 25.951 38.485 25.8325 38.7693C25.714 39.0537 25.6531 39.3587 25.6531 39.6667C25.6531 39.9747 25.714 40.2797 25.8325 40.564C25.951 40.8484 26.1245 41.1064 26.3432 41.3234C26.5602 41.5421 26.8182 41.7156 27.1026 41.8341C27.3869 41.9526 27.6919 42.0135 27.9999 42.0135C28.3079 42.0135 28.6129 41.9526 28.8973 41.8341C29.1816 41.7156 29.4397 41.5421 29.6566 41.3234Z" fill="white"/>
</svg>
