<svg width="427" height="564" viewBox="0 0 427 564" fill="none" xmlns="http://www.w3.org/2000/svg">
<g clip-path="url(#clip0_131_950)">
<path d="M332.936 465.16C361.504 465.16 384.662 453.556 384.662 439.24C384.662 424.925 361.504 413.32 332.936 413.32C304.369 413.32 281.21 424.925 281.21 439.24C281.21 453.556 304.369 465.16 332.936 465.16Z" fill="#E0E0E0"/>
<path d="M124.587 538.854C169.747 538.854 206.356 520.515 206.356 497.894C206.356 475.272 169.747 456.934 124.587 456.934C79.4276 456.934 42.8184 475.272 42.8184 497.894C42.8184 520.515 79.4276 538.854 124.587 538.854Z" fill="#E0E0E0"/>
<path d="M162.102 464.693C161.97 460.693 164.832 421.6 164.832 421.6L145.908 435.413C149.791 458.72 150.626 464.227 150.692 468.04C150.612 468.358 150.576 468.686 150.586 469.013C150.586 473.547 155.688 475.987 159.651 479.013C163.018 481.663 166.605 484.018 170.372 486.053C173.247 487.507 179.105 487.64 179.82 485.773C174.997 482.067 167.986 476.52 164.143 472.293C162.314 470.267 162.248 468.667 162.102 464.693Z" fill="#FFA8A7"/>
<path d="M188.05 490.667C188.264 491.289 188.303 491.959 188.16 492.602C188.017 493.245 187.699 493.835 187.242 494.307C183.766 496.828 179.44 497.863 175.209 497.187C169.192 496.4 165.932 494.68 163.534 492.653C161.135 490.627 157.756 487.773 155.026 487.173C152.855 486.758 150.791 485.905 148.956 484.667C148.148 483.88 148.254 480.387 148.254 480.387L188.05 490.667Z" fill="#263238"/>
<path d="M150.652 466.933C150.43 466.94 150.216 467.025 150.049 467.173C149.882 467.322 149.772 467.525 149.738 467.746C149.552 468.706 149.354 471.506 148.956 473.08C148.341 475.861 148.144 478.72 148.373 481.56C148.704 483.36 152.813 484.6 155.45 485.56C158.551 486.918 161.429 488.743 163.984 490.973C167.672 493.748 172.073 495.4 176.666 495.733C181.305 495.733 186.526 494.186 187.732 492.026C189.203 489.36 188.05 487.8 181.172 484.586C179.847 483.986 175.301 481.253 173.738 480.266C169.523 477.6 165.349 473.88 163.401 469.16C163.244 468.583 162.898 468.075 162.42 467.72C162.003 467.539 161.54 467.492 161.095 467.586C159.946 467.755 158.83 468.096 157.782 468.6C156.868 469.04 155.556 469.56 155.569 470.746C155.597 471.158 155.686 471.562 155.834 471.946C155.913 472.2 155.98 472.52 155.834 472.666C155.688 472.813 155.37 472.666 155.185 472.48C154.51 471.786 153.894 471.036 153.343 470.24C153.017 469.832 152.648 469.461 152.243 469.133C151.837 468.902 151.448 468.643 151.076 468.36C150.573 468 150.679 467.493 150.652 466.933Z" fill="#455A64"/>
<path d="M163.984 491.04C162.778 490.053 161.506 489.08 160.234 488.227C160.234 488.227 168.317 493.173 171.577 490.893C172.182 490.507 172.625 489.91 172.821 489.217C173.016 488.523 172.951 487.782 172.638 487.133C172.638 486.573 177.779 484.16 179.82 483.92C180.39 484.24 180.867 484.493 181.145 484.627C188.023 487.84 189.176 489.387 187.705 492.067C186.499 494.227 182.722 495.92 176.733 495.92C172.836 496 166.767 493.333 163.984 491.04Z" fill="#37474F"/>
<path d="M172.068 485.52C176.348 487.24 174.52 488.04 173.327 488.187C172.134 488.333 164.938 484.187 160.539 480.64C156.139 477.093 153.078 473 151.381 471.667C150.745 471.173 150.056 470.56 149.447 469.987C149.566 469.04 149.659 468.173 149.738 467.72C149.772 467.498 149.882 467.296 150.049 467.147C150.216 466.999 150.43 466.913 150.652 466.907C150.652 467.467 150.573 467.987 150.997 468.4C151.368 468.684 151.758 468.942 152.163 469.173C152.569 469.501 152.937 469.872 153.263 470.28C153.815 471.077 154.431 471.826 155.105 472.52C159.874 477.913 165.634 482.327 172.068 485.52Z" fill="#263238"/>
<path d="M173.022 487.586C172.924 487.582 172.83 487.545 172.757 487.479C172.714 487.446 172.678 487.403 172.651 487.355C172.624 487.308 172.607 487.255 172.601 487.2C172.595 487.145 172.6 487.09 172.615 487.037C172.631 486.985 172.656 486.935 172.691 486.893C173.699 485.84 174.919 485.016 176.27 484.478C177.621 483.94 179.071 483.699 180.523 483.773C180.636 483.786 180.74 483.844 180.812 483.934C180.884 484.023 180.918 484.138 180.907 484.253C180.894 484.364 180.838 484.465 180.751 484.535C180.664 484.605 180.554 484.637 180.443 484.626C179.133 484.571 177.826 484.792 176.605 485.274C175.384 485.756 174.277 486.489 173.353 487.426C173.313 487.475 173.262 487.515 173.205 487.543C173.148 487.57 173.085 487.585 173.022 487.586Z" fill="#F5F5F5"/>
<path d="M169.298 485.333C169.197 485.337 169.098 485.304 169.02 485.24C168.945 485.158 168.903 485.051 168.903 484.94C168.903 484.828 168.945 484.721 169.02 484.64C170.03 483.59 171.252 482.77 172.602 482.235C173.953 481.699 175.402 481.46 176.852 481.533C176.964 481.545 177.067 481.602 177.138 481.691C177.209 481.78 177.242 481.893 177.23 482.006C177.217 482.119 177.161 482.223 177.073 482.294C176.984 482.366 176.872 482.399 176.759 482.386C175.449 482.328 174.14 482.548 172.919 483.03C171.698 483.512 170.591 484.247 169.669 485.186C169.624 485.24 169.567 485.281 169.502 485.306C169.437 485.332 169.367 485.341 169.298 485.333Z" fill="#F5F5F5"/>
<path d="M165.561 483.08C165.465 483.081 165.371 483.048 165.296 482.986C165.218 482.907 165.174 482.799 165.174 482.686C165.174 482.574 165.218 482.466 165.296 482.386C166.307 481.338 167.528 480.518 168.879 479.983C170.229 479.447 171.678 479.207 173.128 479.28C173.184 479.285 173.238 479.301 173.288 479.327C173.337 479.353 173.381 479.389 173.417 479.433C173.453 479.476 173.479 479.526 173.496 479.58C173.512 479.634 173.518 479.69 173.512 479.746C173.507 479.803 173.491 479.857 173.465 479.907C173.439 479.957 173.404 480.001 173.361 480.037C173.317 480.073 173.268 480.1 173.214 480.116C173.161 480.133 173.104 480.139 173.049 480.133C171.738 480.075 170.43 480.294 169.209 480.777C167.987 481.259 166.88 481.994 165.959 482.933C165.909 482.988 165.847 483.031 165.778 483.056C165.709 483.082 165.634 483.09 165.561 483.08Z" fill="#F5F5F5"/>
<path d="M162.102 480.587C162.006 480.588 161.912 480.555 161.837 480.494C161.797 480.455 161.764 480.408 161.742 480.357C161.72 480.305 161.709 480.25 161.709 480.194C161.709 480.137 161.72 480.082 161.742 480.03C161.764 479.979 161.797 479.932 161.837 479.894C162.846 478.843 164.068 478.022 165.419 477.486C166.77 476.95 168.219 476.712 169.669 476.787C169.779 476.8 169.88 476.857 169.95 476.944C170.019 477.031 170.051 477.142 170.04 477.254C170.027 477.365 169.971 477.466 169.884 477.536C169.797 477.605 169.687 477.638 169.576 477.627C168.266 477.575 166.96 477.797 165.74 478.279C164.519 478.761 163.412 479.492 162.487 480.427C162.442 480.485 162.383 480.53 162.315 480.558C162.248 480.586 162.175 480.596 162.102 480.587Z" fill="#F5F5F5"/>
<path d="M158.723 478.093C158.628 478.089 158.535 478.056 158.458 478C158.379 477.92 158.335 477.812 158.335 477.7C158.335 477.587 158.379 477.48 158.458 477.4C159.551 476.255 160.889 475.377 162.37 474.832C163.851 474.286 165.437 474.088 167.006 474.253C167.062 474.256 167.116 474.271 167.166 474.297C167.216 474.322 167.26 474.358 167.295 474.403C167.33 474.447 167.356 474.498 167.37 474.552C167.384 474.607 167.386 474.664 167.377 474.72C167.363 474.831 167.307 474.932 167.221 475.002C167.134 475.071 167.023 475.104 166.913 475.093C165.487 474.951 164.047 475.132 162.699 475.621C161.351 476.11 160.129 476.895 159.121 477.92C159.074 477.98 159.013 478.027 158.944 478.058C158.874 478.088 158.798 478.1 158.723 478.093Z" fill="#F5F5F5"/>
<path d="M126.454 439.4L107.358 439.053C107.636 451.88 109.664 466.107 110.008 478.133C110.008 480.4 110.008 495.733 110.803 500.4C112.128 507.4 120.345 506.453 120.782 502.267C121.219 498.08 120.252 480.173 120.278 478.267C120.199 470.56 123.79 457.533 125.685 443.68C125.765 443.053 126.361 440.067 126.454 439.4Z" fill="#FFA8A7"/>
<path d="M123.883 505.173C124.238 508.382 123.782 511.629 122.558 514.613C121.952 515.798 120.974 516.749 119.776 517.318C118.578 517.887 117.227 518.043 115.932 517.76C113.109 517.347 109.385 515.827 108.246 512.427C107.167 509.295 106.787 505.963 107.133 502.667L123.883 505.173Z" fill="#263238"/>
<path d="M109.955 476.667C108.829 476.867 109.041 482.4 108.935 487.96C108.816 493.933 107.318 496.546 107.172 501.44C107 507.04 107.543 509.44 109.823 512.613C112.102 515.786 119.219 518.347 122.094 513.227C124.44 509.053 124.122 504.72 123.313 499.227C122.505 493.733 121.869 489.573 121.657 485.227C121.445 480.88 121.352 477.027 120.332 476.667C120.332 477.28 120.332 478.067 120.332 478.667C120.332 479.267 120.424 481.333 119.788 481.467C119.69 480.952 119.633 480.43 119.616 479.906C119.646 479.422 119.489 478.945 119.179 478.573C118.795 478.289 118.33 478.139 117.854 478.146C116.718 478.018 115.577 477.956 114.435 477.96C113.865 477.96 113.282 477.96 112.725 478.053C112.235 478.091 111.756 478.212 111.307 478.413C111.175 478.47 111.056 478.554 110.958 478.659C110.86 478.765 110.785 478.89 110.737 479.026C110.697 479.238 110.697 479.455 110.737 479.667C110.784 480.047 110.784 480.432 110.737 480.813C110.737 480.986 110.618 481.2 110.446 481.173C110.273 481.147 110.247 480.987 110.234 480.853C110.154 480.187 110.234 479.693 110.154 478.92C110.154 478.56 110.154 478.067 110.154 477.707C110.154 477.347 109.969 477.027 109.955 476.667Z" fill="#455A64"/>
<path d="M107.265 499.84C107.265 500.654 107.093 506 108.59 506.8C110.088 507.6 110.671 503.44 110.671 503.44C110.671 503.44 114.183 501.96 119.696 503.747C119.51 504.627 120.597 507.374 121.988 506.627C123.38 505.88 123.313 499.787 123.313 499.707C124.069 505.04 124.307 509.174 121.988 513.227C119.112 518.347 111.97 515.76 109.717 512.614C107.464 509.467 106.92 507.04 107.066 501.44C107.132 500.88 107.225 500.36 107.265 499.84Z" fill="#37474F"/>
<path d="M111.108 503.747C111.281 505.747 109.266 505.28 108.895 502.413C108.524 499.547 109.399 492.76 108.895 487.907C109.001 482.347 108.789 476.813 109.916 476.613C109.909 476.68 109.909 476.747 109.916 476.813L110.048 479.627C110.022 480.026 110.022 480.427 110.048 480.827C110.419 484.907 110.644 492.827 110.658 496.587C110.681 498.98 110.831 501.37 111.108 503.747Z" fill="#263238"/>
<path d="M119.059 503.747C119.319 501.387 119.447 499.014 119.444 496.64C119.444 492.907 119.682 485.08 120.053 480.973C120.197 480.213 120.255 479.439 120.226 478.667C120.226 478.107 120.226 477.333 120.226 476.8C120.226 476.8 120.226 476.72 120.226 476.667C120.968 476.947 121.233 479.147 121.392 481.92C121.392 483.533 121.392 485.533 121.246 487.96C120.742 492.813 121.617 499.693 121.246 502.507C120.875 505.32 118.927 505.747 119.059 503.747Z" fill="#263238"/>
<path d="M119.841 503.893H119.695C116.832 502.899 113.72 502.899 110.856 503.893C110.804 503.913 110.748 503.923 110.693 503.922C110.637 503.92 110.582 503.907 110.53 503.885C110.479 503.862 110.433 503.829 110.395 503.788C110.356 503.747 110.326 503.699 110.306 503.647C110.286 503.594 110.277 503.538 110.278 503.482C110.28 503.426 110.292 503.37 110.315 503.319C110.338 503.268 110.37 503.221 110.411 503.182C110.451 503.144 110.499 503.113 110.551 503.093C113.607 501.996 116.945 501.996 120 503.093C120.052 503.112 120.1 503.142 120.14 503.18C120.181 503.218 120.213 503.264 120.235 503.315C120.258 503.366 120.27 503.422 120.27 503.477C120.271 503.533 120.26 503.588 120.239 503.64C120.206 503.718 120.151 503.784 120.08 503.83C120.008 503.875 119.925 503.897 119.841 503.893Z" fill="#F5F5F5"/>
<path d="M120.385 499.467C120.337 499.478 120.287 499.478 120.239 499.467C117.02 498.461 113.573 498.461 110.353 499.467C110.3 499.485 110.244 499.493 110.188 499.49C110.131 499.487 110.076 499.472 110.026 499.448C109.975 499.423 109.93 499.388 109.893 499.346C109.856 499.303 109.828 499.253 109.81 499.2C109.791 499.147 109.783 499.092 109.787 499.036C109.79 498.98 109.804 498.926 109.829 498.876C109.854 498.827 109.889 498.782 109.931 498.746C109.973 498.71 110.022 498.683 110.075 498.666C113.476 497.577 117.13 497.577 120.531 498.666C120.624 498.701 120.702 498.768 120.751 498.855C120.8 498.941 120.818 499.043 120.801 499.141C120.783 499.239 120.732 499.329 120.656 499.393C120.58 499.457 120.484 499.493 120.385 499.493V499.467Z" fill="#F5F5F5"/>
<path d="M110.181 495.28C110.1 495.278 110.021 495.253 109.953 495.208C109.885 495.163 109.831 495.1 109.796 495.026C109.752 494.924 109.749 494.807 109.788 494.703C109.828 494.598 109.907 494.513 110.008 494.466C113.356 493.142 117.074 493.118 120.438 494.4C120.49 494.419 120.538 494.448 120.578 494.487C120.619 494.525 120.651 494.571 120.673 494.622C120.695 494.673 120.707 494.728 120.708 494.784C120.708 494.84 120.698 494.895 120.676 494.946C120.635 495.05 120.555 495.133 120.453 495.178C120.352 495.223 120.237 495.226 120.133 495.186C120.133 495.186 114.938 493.133 110.366 495.186C110.312 495.231 110.249 495.263 110.181 495.28Z" fill="#F5F5F5"/>
<path d="M110.088 491.36C110.008 491.361 109.929 491.338 109.861 491.296C109.793 491.254 109.739 491.193 109.704 491.12C109.658 491.019 109.653 490.904 109.69 490.8C109.727 490.695 109.803 490.609 109.902 490.56C111.564 489.798 113.365 489.394 115.191 489.373C117.016 489.353 118.826 489.716 120.504 490.44C120.554 490.463 120.599 490.496 120.637 490.537C120.674 490.577 120.703 490.625 120.722 490.678C120.74 490.73 120.748 490.785 120.745 490.841C120.742 490.896 120.727 490.95 120.703 491C120.68 491.051 120.647 491.096 120.607 491.134C120.566 491.171 120.519 491.2 120.467 491.219C120.415 491.238 120.36 491.246 120.305 491.242C120.249 491.239 120.196 491.225 120.146 491.2C118.572 490.544 116.882 490.217 115.178 490.237C113.474 490.258 111.792 490.626 110.234 491.32C110.188 491.341 110.138 491.355 110.088 491.36Z" fill="#F5F5F5"/>
<path d="M109.995 486.973C109.898 486.975 109.803 486.943 109.727 486.883C109.651 486.822 109.597 486.738 109.575 486.642C109.554 486.547 109.565 486.447 109.608 486.36C109.65 486.272 109.722 486.201 109.81 486.16C114.859 483.653 120.305 486.053 120.531 486.16C120.583 486.18 120.631 486.211 120.671 486.251C120.711 486.291 120.742 486.339 120.762 486.392C120.782 486.445 120.791 486.502 120.787 486.558C120.784 486.615 120.769 486.67 120.743 486.72C120.696 486.822 120.612 486.902 120.508 486.942C120.404 486.982 120.288 486.979 120.186 486.933C120.186 486.933 114.885 484.6 110.194 486.933C110.133 486.965 110.064 486.979 109.995 486.973Z" fill="#F5F5F5"/>
<path d="M113.639 314.667C106.907 333.427 108.087 345.2 109.239 364.866C110.3 382.893 111.983 398.773 111.983 398.773C111.718 401.973 107.291 408.213 106.682 422.347C106.486 432.298 106.929 442.252 108.007 452.146C108.007 452.146 116.82 455.386 124.267 452.146C124.267 452.146 131.887 418.293 133.968 401.747C135.77 387.307 138.924 368.853 138.924 368.853L145.55 401.68C144.255 406.092 143.59 410.666 143.576 415.267C143.576 422.987 147.141 444.453 147.141 444.453C147.141 444.453 157.013 447.667 163.268 442.08C163.268 442.08 165.747 411.187 166.621 399.413C167.787 383.707 166.091 340.653 162.341 318.613L113.639 314.667Z" fill="#455A64"/>
<path d="M139.004 368.8L141.76 344.106C141.76 344.106 154.098 342.453 159.69 337.16C158.086 339.684 155.948 341.821 153.428 343.419C150.908 345.016 148.069 346.034 145.113 346.4L141.137 369.386L145.643 401.626L139.004 368.8Z" fill="#37474F"/>
<path d="M169.51 296.36C163.507 290.146 152.667 276.093 152.667 276.093L146.544 254.76C147.913 254.831 149.284 254.831 150.653 254.76C157.279 255.2 159.227 255.773 163.348 260.306C166.621 263.92 179.105 281.066 183.438 286.84L194.954 272.08C197.724 267.88 197.274 263.173 198.705 259.746C200.136 256.32 202.455 254.813 204.31 251.746C206.166 248.68 206.603 246.626 208.127 248.213C209.651 249.8 207.888 254.066 207.663 255.04C207.438 256.013 205.106 258.906 208.988 257.4C212.871 255.893 218.861 248.76 220.398 247.306C221.936 245.853 222.757 248.106 222.413 249.893C222.068 251.68 223.738 255.706 223.128 258.653C222.749 261.617 221.284 264.332 219.02 266.266C216.224 269.093 209.386 272.573 206.709 276.293C204.032 280.013 198.32 291.573 194.782 298.533C190.343 307.386 186.566 310.306 181.53 307.32C176.494 304.333 171.723 298.666 169.51 296.36Z" fill="#FFA8A7"/>
<path d="M148.492 254.533C151.881 254.192 155.301 254.649 158.484 255.866C162.076 257.493 164.514 260.986 168.026 265.72C171.538 270.453 177.806 278.733 177.806 278.733C177.806 278.733 176.11 285.92 164.925 292.373L146.664 273.453L148.492 254.533Z" fill="#37474F"/>
<path d="M183.438 286.826C181.254 288.9 179.79 291.625 179.264 294.6C179.264 294.6 177.938 290.32 182.457 285.506L183.438 286.826Z" fill="#F28F8F"/>
<path d="M161.718 292.413C169.868 285.666 167.178 276.88 164.209 270.96C158.259 259.133 152.071 254.48 149.486 254.52L133.279 254.68C125.54 255.746 119.55 255.213 117.681 255.653C112.911 256.786 112.805 260.733 112.619 265.84C112.42 271.44 109.571 270.493 111.016 279.746C112.719 283.186 114.215 286.726 115.495 290.346C116.369 293.546 118.834 298.64 117.522 303.813C117.019 305.813 115.667 307.813 113.639 313.293C111.34 319.453 109.632 325.82 108.537 332.306C108.537 332.306 113.268 331.2 118.649 325.44C118.649 325.44 126.004 335.346 143.695 334.346C162.049 333.306 163.666 323.68 163.666 323.68L160.857 306.346C161.281 299.346 161.466 296.813 161.718 292.413Z" fill="#705A8D"/>
<path opacity="0.1" d="M151.13 290.667C151.13 290.667 144.504 296 136.725 293.44C134.558 292.787 132.593 291.586 131.018 289.952C129.443 288.318 128.31 286.306 127.726 284.107C127.726 284.107 127.064 292.974 136.844 295.827C139.46 296.625 142.262 296.555 144.835 295.625C147.409 294.696 149.616 292.957 151.13 290.667Z" fill="black"/>
<path d="M104.734 246.906C102.335 245.146 89.4146 262.546 95.4575 266.906C101.5 271.266 107.941 258.906 106.642 253.066C105.344 247.226 104.734 246.906 104.734 246.906Z" fill="#37474F"/>
<path d="M93.0059 238.266C96.2394 233.76 98.4393 230.36 101.394 226.493C103.064 224.293 104.138 222.733 105.741 220.48C106.854 218.933 107.504 217.627 108.749 217.133C110.14 216.517 111.383 215.608 112.394 214.467C113.013 213.745 113.584 212.983 114.103 212.187C115.971 209.584 118.203 207.267 120.729 205.306C123.38 203.24 126.282 201.64 128.985 199.667C130.589 198.493 132.312 196.56 130.311 194.813C129.689 194.308 128.95 193.969 128.164 193.826C123.34 192.853 119.166 194.6 114.474 195.893C112.434 196.453 110.441 197.17 108.511 198.04C107.553 198.431 106.659 198.966 105.86 199.627C104.751 200.793 103.854 202.147 103.21 203.627C101.156 207.427 96.8225 210.813 93.7878 213.786C90.2229 217.28 87.0424 220.453 82.974 224.333C79.3165 227.8 75.7251 231 72.3723 234.786C69.6027 237.906 70.6761 240.306 71.0471 241.12C73.4325 245.84 76.0299 247.506 79.1574 250.453C80.1911 251.413 81.238 252.36 82.2849 253.306C86.3401 256.986 90.3952 260.426 94.6094 263.973C99.1151 267.706 100.97 269.52 104.986 273.146C107.52 275.488 109.631 278.253 111.228 281.32C118.185 282.48 125.023 271.773 119.06 259.253C118.079 257.228 116.595 255.492 114.753 254.213C107.411 248.947 93.0059 238.266 93.0059 238.266Z" fill="#FFA8A7"/>
<path d="M93.0058 238.266C90.8354 241.039 87.9192 243.126 84.604 244.279C84.604 244.279 89.0435 245.346 95.0069 239.759L93.0058 238.266Z" fill="#F28F8F"/>
<path d="M118.238 255.546C116.608 254.413 112.645 252 104.734 246.906C104.734 246.906 105.953 249.48 104.032 255.946C102.11 262.413 98.0549 266.506 95.5105 266.973C95.5105 266.973 99.9367 270.493 104.018 274.466C108.1 278.44 111.453 281.253 113.812 285.866C113.812 285.866 119.643 284.36 120.968 274.413C121.895 267.44 121.339 259.253 118.238 255.546Z" fill="#455A64"/>
<path d="M162.5 223.52C163.665 221.043 164.178 218.306 163.99 215.572C163.802 212.838 162.92 210.199 161.427 207.907C156.404 200.72 147.936 197.24 138.58 197.347H135.678C123.049 197.56 111.572 208.467 111.347 220.747C111.347 229.387 111.347 237.373 116.078 243.267C120.438 248.747 127.236 250.547 132.974 251.427C143.947 253.107 156.272 251.827 161.254 244.307C161.254 244.307 154.628 245.64 155.463 238.733C155.582 237.64 154.549 236.44 152.733 235.2C154.005 232.984 155.502 230.906 157.199 229C159.068 227.12 161.228 226.067 162.5 223.52Z" fill="#263238"/>
<path d="M159.227 229.826C159.16 242.693 155.065 245.933 153.011 246.893C150.957 247.853 146.929 247.346 143.019 246.773L143.152 254.493C143.152 254.493 147.724 259.146 147.459 262.693C147.194 266.24 140.462 266.693 135.36 263.373C132.549 261.5 130 259.258 127.779 256.706C127.356 256.213 127.117 255.585 127.103 254.933L126.785 236.786C126.785 236.786 124.692 239.093 120.875 236.56C120.05 236.053 119.34 235.379 118.788 234.581C118.236 233.782 117.855 232.877 117.67 231.923C117.484 230.969 117.498 229.987 117.709 229.038C117.921 228.089 118.327 227.196 118.9 226.413C119.44 225.886 120.087 225.484 120.798 225.235C121.508 224.987 122.264 224.899 123.012 224.976C123.76 225.054 124.482 225.295 125.127 225.684C125.772 226.073 126.325 226.599 126.746 227.226C127.912 229.413 127.806 230.96 129.396 230.706C130.986 230.453 131.053 228.72 131.159 227.48C131.265 226.24 131.159 225.84 131.318 224.213C135.094 223.4 139.004 218.106 139.441 214.24C142 215.506 144.82 216.145 147.671 216.106C151.898 215.813 154.085 214.96 156.165 211.893C156.661 212.595 157.058 213.362 157.345 214.173C157.933 215.815 158.377 217.506 158.67 219.226C159.142 222.739 159.328 226.284 159.227 229.826Z" fill="#FFA8A7"/>
<path d="M143.019 246.773C138.898 246.293 130.403 244 129.025 240.667C129.582 242.359 130.641 243.838 132.06 244.906C134.631 247.04 143.059 249.346 143.059 249.346L143.019 246.773Z" fill="#F28F8F"/>
<path d="M147.167 239.84C147.175 240.175 147.084 240.506 146.905 240.789C146.726 241.072 146.467 241.295 146.162 241.43C145.857 241.565 145.519 241.606 145.19 241.547C144.862 241.489 144.559 241.333 144.318 241.101C144.078 240.868 143.912 240.569 143.84 240.241C143.769 239.914 143.796 239.572 143.918 239.26C144.04 238.948 144.252 238.679 144.526 238.488C144.8 238.297 145.124 238.192 145.458 238.187C145.902 238.18 146.331 238.349 146.651 238.659C146.971 238.969 147.157 239.393 147.167 239.84Z" fill="#B16668"/>
<path d="M145.007 227.173C145.029 227.41 145.004 227.648 144.934 227.875C144.863 228.102 144.749 228.312 144.598 228.495C144.446 228.677 144.26 228.827 144.051 228.937C143.841 229.046 143.612 229.113 143.377 229.133C143.015 229.172 142.649 229.101 142.327 228.929C142.005 228.758 141.741 228.493 141.569 228.17C141.398 227.846 141.326 227.478 141.364 227.114C141.401 226.749 141.546 226.404 141.78 226.123C142.014 225.841 142.326 225.637 142.676 225.535C143.027 225.434 143.399 225.44 143.746 225.553C144.093 225.666 144.398 225.88 144.623 226.169C144.847 226.458 144.981 226.807 145.007 227.173Z" fill="#263238"/>
<path d="M156.96 226.413C156.993 226.848 156.855 227.278 156.574 227.61C156.294 227.942 155.894 228.149 155.463 228.186C155.246 228.213 155.025 228.193 154.816 228.126C154.607 228.06 154.415 227.948 154.253 227.8C154.091 227.652 153.962 227.471 153.876 227.268C153.79 227.066 153.748 226.847 153.753 226.626C153.732 226.411 153.753 226.193 153.816 225.985C153.879 225.778 153.983 225.585 154.121 225.418C154.26 225.252 154.43 225.115 154.621 225.016C154.813 224.916 155.023 224.856 155.238 224.84C155.673 224.822 156.097 224.977 156.42 225.271C156.742 225.565 156.936 225.976 156.96 226.413Z" fill="#263238"/>
<path d="M148.704 224.746L149.977 235.493L155.45 233.199L148.704 224.746Z" fill="#F28F8F"/>
<path d="M138.62 222.533L141.8 219.493C142.196 219.936 142.408 220.516 142.39 221.112C142.373 221.708 142.128 222.274 141.707 222.693C141.498 222.893 141.249 223.049 140.978 223.149C140.707 223.25 140.418 223.294 140.129 223.279C139.841 223.264 139.558 223.191 139.298 223.062C139.039 222.934 138.808 222.754 138.62 222.533Z" fill="#263238"/>
<path d="M154.535 218.506L158.06 221.173C157.898 221.414 157.689 221.619 157.445 221.775C157.201 221.931 156.928 222.036 156.642 222.082C156.357 222.128 156.065 222.115 155.785 222.044C155.504 221.972 155.242 221.844 155.012 221.666C154.551 221.298 154.245 220.767 154.157 220.181C154.068 219.594 154.203 218.996 154.535 218.506Z" fill="#263238"/>
<path d="M103.727 120.84C106.268 120.352 108.865 120.235 111.44 120.493C113.9 120.71 116.301 121.369 118.529 122.44C120.668 123.467 122.558 124.95 124.069 126.786C125.662 128.752 126.721 131.099 127.143 133.6C127.541 135.562 127.541 137.584 127.143 139.546C126.787 141.254 126.18 142.899 125.341 144.426C124.527 145.913 123.582 147.323 122.518 148.64C121.458 149.973 120.451 151.2 119.51 152.386C118.61 153.503 117.812 154.699 117.125 155.96C116.493 157.079 116.186 158.354 116.237 159.64C116.245 160.238 116.094 160.827 115.8 161.346C115.661 161.592 115.47 161.804 115.241 161.968C115.012 162.131 114.751 162.242 114.474 162.293L108.233 163.48C107.936 163.539 107.631 163.538 107.335 163.476C107.039 163.414 106.758 163.293 106.51 163.12C106.251 162.971 106.033 162.76 105.873 162.507C105.714 162.254 105.619 161.965 105.595 161.666C105.291 159.694 105.39 157.679 105.887 155.746C106.358 154.024 107.049 152.37 107.941 150.826C108.804 149.356 109.793 147.964 110.896 146.666C111.996 145.333 112.99 144.133 113.905 142.96C114.745 141.906 115.474 140.766 116.078 139.56C116.598 138.513 116.761 137.322 116.542 136.173C116.366 135.16 115.947 134.205 115.321 133.392C114.695 132.579 113.881 131.931 112.95 131.506C110.641 130.451 108.048 130.202 105.582 130.8C100.935 131.688 97.9534 134.684 96.637 139.786C96.5212 140.324 96.315 140.838 96.0274 141.306C95.6599 141.734 95.1422 142.001 94.5829 142.053L87.9569 143.32C87.4992 143.402 87.0276 143.311 86.6317 143.066C86.4235 142.928 86.2465 142.747 86.1118 142.536C85.9772 142.325 85.8879 142.088 85.8498 141.84C85.5636 139.736 85.791 137.595 86.5124 135.6C87.2626 133.295 88.4111 131.142 89.9049 129.24C91.5799 127.156 93.5752 125.356 95.8154 123.906C98.2296 122.377 100.917 121.335 103.727 120.84ZM115.826 167.173C116.415 167.07 117.021 167.202 117.516 167.541C118.01 167.879 118.355 168.397 118.476 168.986L119.802 176.266C119.862 176.558 119.862 176.859 119.8 177.151C119.738 177.442 119.617 177.718 119.444 177.96C119.281 178.208 119.071 178.42 118.825 178.585C118.579 178.75 118.303 178.864 118.013 178.92L110.949 180.253C110.657 180.314 110.356 180.314 110.064 180.252C109.772 180.19 109.496 180.068 109.253 179.893C109.006 179.729 108.795 179.517 108.631 179.27C108.467 179.023 108.354 178.745 108.299 178.453L106.974 171.173C106.918 170.88 106.923 170.579 106.986 170.288C107.05 169.997 107.172 169.722 107.345 169.48C107.503 169.228 107.713 169.012 107.959 168.847C108.206 168.682 108.484 168.57 108.776 168.52L115.826 167.173Z" fill="#705A8D"/>
<path d="M171.074 150.879C172.637 151.751 174.066 152.847 175.315 154.133C176.529 155.337 177.513 156.757 178.217 158.319C178.892 159.814 179.24 161.437 179.238 163.079C179.236 164.829 178.779 166.549 177.912 168.066C177.263 169.282 176.386 170.36 175.328 171.239C174.381 171.979 173.332 172.577 172.214 173.013C171.127 173.44 170.005 173.77 168.861 173.999L165.628 174.639C164.658 174.827 163.708 175.108 162.792 175.479C161.967 175.787 161.246 176.323 160.711 177.026C160.45 177.349 160.107 177.593 159.717 177.733C159.534 177.802 159.338 177.829 159.144 177.813C158.949 177.797 158.76 177.738 158.591 177.639L154.761 175.479C154.388 175.274 154.112 174.929 153.992 174.519C153.927 174.325 153.908 174.118 153.935 173.914C153.963 173.71 154.037 173.516 154.151 173.346C154.857 172.167 155.795 171.146 156.908 170.346C157.916 169.637 159.012 169.064 160.168 168.639C161.276 168.243 162.415 167.939 163.574 167.733C164.726 167.533 165.8 167.333 166.807 167.119C167.716 166.928 168.604 166.647 169.457 166.279C170.194 165.952 170.807 165.396 171.207 164.693C171.555 164.074 171.749 163.38 171.772 162.669C171.795 161.959 171.646 161.253 171.339 160.613C170.582 159.025 169.318 157.738 167.748 156.959C166.396 156.173 164.835 155.826 163.28 155.964C161.724 156.102 160.249 156.72 159.055 157.733C158.759 157.974 158.422 158.16 158.061 158.279C157.681 158.343 157.292 158.257 156.974 158.039L152.892 155.746C152.603 155.583 152.386 155.316 152.283 154.999C152.231 154.834 152.215 154.659 152.236 154.486C152.256 154.314 152.313 154.148 152.402 153.999C153.176 152.76 154.235 151.726 155.49 150.986C156.918 150.119 158.489 149.514 160.128 149.199C161.922 148.845 163.762 148.787 165.575 149.026C167.509 149.282 169.377 149.912 171.074 150.879ZM157.107 180.813C157.286 180.913 157.445 181.048 157.572 181.211C157.7 181.374 157.794 181.56 157.849 181.759C157.907 181.956 157.926 182.162 157.903 182.366C157.88 182.57 157.817 182.768 157.716 182.946L155.238 187.413C155.037 187.776 154.701 188.045 154.304 188.16C153.906 188.275 153.48 188.227 153.118 188.026L148.784 185.586C148.602 185.491 148.442 185.357 148.316 185.193C148.19 185.03 148.101 184.841 148.055 184.639C147.992 184.444 147.97 184.238 147.991 184.033C148.011 183.829 148.074 183.631 148.175 183.453L150.653 178.986C150.753 178.807 150.888 178.65 151.05 178.524C151.211 178.398 151.396 178.306 151.594 178.253C151.789 178.19 151.994 178.17 152.197 178.193C152.401 178.216 152.597 178.282 152.773 178.386L157.107 180.813Z" fill="#BA68C8"/>
<g opacity="0.2">
<path d="M171.074 150.879C172.637 151.751 174.066 152.847 175.315 154.133C176.529 155.337 177.513 156.757 178.217 158.319C178.892 159.814 179.24 161.437 179.238 163.079C179.236 164.829 178.779 166.549 177.912 168.066C177.263 169.282 176.386 170.36 175.328 171.239C174.381 171.979 173.332 172.577 172.214 173.013C171.127 173.44 170.005 173.77 168.861 173.999L165.628 174.639C164.658 174.827 163.708 175.108 162.792 175.479C161.967 175.787 161.246 176.323 160.711 177.026C160.45 177.349 160.107 177.593 159.717 177.733C159.534 177.802 159.338 177.829 159.144 177.813C158.949 177.797 158.76 177.738 158.591 177.639L154.761 175.479C154.388 175.274 154.112 174.929 153.992 174.519C153.927 174.325 153.908 174.118 153.935 173.914C153.963 173.71 154.037 173.516 154.151 173.346C154.857 172.167 155.795 171.146 156.908 170.346C157.916 169.637 159.012 169.064 160.168 168.639C161.276 168.243 162.415 167.939 163.574 167.733C164.726 167.533 165.8 167.333 166.807 167.119C167.716 166.928 168.604 166.647 169.457 166.279C170.194 165.952 170.807 165.396 171.207 164.693C171.555 164.074 171.749 163.38 171.772 162.669C171.795 161.959 171.646 161.253 171.339 160.613C170.582 159.025 169.318 157.738 167.748 156.959C166.396 156.173 164.835 155.826 163.28 155.964C161.724 156.102 160.249 156.72 159.055 157.733C158.759 157.974 158.422 158.16 158.061 158.279C157.681 158.343 157.292 158.257 156.974 158.039L152.892 155.746C152.603 155.583 152.386 155.316 152.283 154.999C152.231 154.834 152.215 154.659 152.236 154.486C152.256 154.314 152.313 154.148 152.402 153.999C153.176 152.76 154.235 151.726 155.49 150.986C156.918 150.119 158.489 149.514 160.128 149.199C161.922 148.845 163.762 148.787 165.575 149.026C167.509 149.282 169.377 149.912 171.074 150.879ZM157.107 180.813C157.286 180.913 157.445 181.048 157.572 181.211C157.7 181.374 157.794 181.56 157.849 181.759C157.907 181.956 157.926 182.162 157.903 182.366C157.88 182.57 157.817 182.768 157.716 182.946L155.238 187.413C155.037 187.776 154.701 188.045 154.304 188.16C153.906 188.275 153.48 188.227 153.118 188.026L148.784 185.586C148.602 185.491 148.442 185.357 148.316 185.193C148.19 185.03 148.101 184.841 148.055 184.639C147.992 184.444 147.97 184.238 147.991 184.033C148.011 183.829 148.074 183.631 148.175 183.453L150.653 178.986C150.753 178.807 150.888 178.65 151.05 178.524C151.211 178.398 151.396 178.306 151.594 178.253C151.789 178.19 151.994 178.17 152.197 178.193C152.401 178.216 152.597 178.282 152.773 178.386L157.107 180.813Z" fill="black"/>
</g>
<path d="M77.7262 199.84C77.9027 199.672 78.1111 199.542 78.3388 199.457C78.5665 199.372 78.8089 199.334 79.0514 199.346C79.3001 199.35 79.5456 199.403 79.7733 199.504C80.0009 199.605 80.2061 199.751 80.3767 199.933L84.4583 204.386C84.6262 204.568 84.7568 204.781 84.8424 205.014C84.928 205.247 84.967 205.494 84.9572 205.742C84.9473 205.99 84.8888 206.233 84.785 206.458C84.6812 206.683 84.5341 206.885 84.3523 207.053L80.0321 211.053C79.8516 211.222 79.6396 211.353 79.4083 211.439C79.1771 211.526 78.9312 211.565 78.6848 211.555C78.4384 211.545 78.1964 211.486 77.9728 211.382C77.7491 211.277 77.5482 211.129 77.3817 210.946L73.3 206.493C73.1305 206.312 72.9985 206.099 72.9118 205.866C72.8252 205.633 72.7857 205.386 72.7956 205.137C72.8054 204.889 72.8645 204.645 72.9694 204.42C73.0742 204.195 73.2227 203.993 73.4061 203.826L77.7262 199.84ZM49.3667 172.973C50.9164 171.516 52.6658 170.29 54.5615 169.333C56.3617 168.418 58.309 167.831 60.313 167.6C62.2367 167.386 64.1835 167.586 66.0246 168.186C67.9807 168.858 69.7297 170.03 71.1002 171.586C72.2469 172.759 73.1482 174.15 73.7506 175.68C74.2366 177.021 74.5224 178.427 74.5987 179.853C74.6744 181.241 74.63 182.633 74.4662 184.013C74.2939 185.346 74.1349 186.68 73.9891 187.92C73.8453 189.087 73.8054 190.265 73.8699 191.44C73.9139 192.495 74.2539 193.517 74.8505 194.386C75.1074 194.785 75.2538 195.245 75.2746 195.72C75.2861 195.953 75.2444 196.187 75.1525 196.401C75.0606 196.616 74.921 196.807 74.7445 196.96L70.9279 200.52C70.5659 200.85 70.0911 201.027 69.6027 201.013C69.3604 201.022 69.1195 200.972 68.9004 200.868C68.6813 200.763 68.4903 200.607 68.3437 200.413C67.2834 199.173 66.4813 197.731 65.9849 196.173C65.5698 194.774 65.3382 193.326 65.2958 191.866C65.2544 190.458 65.3342 189.048 65.5343 187.653C65.7331 186.32 65.8921 184.986 66.0246 183.786C66.1433 182.683 66.1433 181.57 66.0246 180.466C65.9382 179.516 65.5422 178.621 64.8982 177.92C64.3379 177.295 63.6349 176.817 62.8499 176.526C62.065 176.236 61.2215 176.142 60.3925 176.253C58.3477 176.519 56.4472 177.456 54.9856 178.92C52.1408 181.586 51.359 184.969 52.64 189.066C52.7971 189.493 52.8779 189.944 52.8785 190.4C52.8457 190.624 52.7691 190.84 52.6531 191.034C52.5371 191.229 52.384 191.398 52.2027 191.533L48.1343 195.32C47.85 195.596 47.4694 195.749 47.0741 195.746C46.8717 195.743 46.6723 195.696 46.4895 195.608C46.3066 195.521 46.1445 195.395 46.0139 195.24C44.8874 193.928 44.0999 192.357 43.7213 190.666C43.2717 188.731 43.1684 186.731 43.4165 184.76C43.6886 182.598 44.3062 180.496 45.2453 178.533C46.2455 176.427 47.6456 174.538 49.3667 172.973Z" fill="#BA68C8"/>
<g opacity="0.6">
<path d="M77.7262 199.84C77.9027 199.672 78.1111 199.542 78.3388 199.457C78.5665 199.372 78.8089 199.334 79.0514 199.346C79.3001 199.35 79.5456 199.403 79.7733 199.504C80.0009 199.605 80.2061 199.751 80.3767 199.933L84.4583 204.386C84.6262 204.568 84.7568 204.781 84.8424 205.014C84.928 205.247 84.967 205.494 84.9572 205.742C84.9473 205.99 84.8888 206.233 84.785 206.458C84.6812 206.683 84.5341 206.885 84.3523 207.053L80.0321 211.053C79.8516 211.222 79.6396 211.353 79.4083 211.439C79.1771 211.526 78.9312 211.565 78.6848 211.555C78.4384 211.545 78.1964 211.486 77.9728 211.382C77.7491 211.277 77.5482 211.129 77.3817 210.946L73.3 206.493C73.1305 206.312 72.9985 206.099 72.9118 205.866C72.8252 205.633 72.7857 205.386 72.7956 205.137C72.8054 204.889 72.8645 204.645 72.9694 204.42C73.0742 204.195 73.2227 203.993 73.4061 203.826L77.7262 199.84ZM49.3667 172.973C50.9164 171.516 52.6658 170.29 54.5615 169.333C56.3617 168.418 58.309 167.831 60.313 167.6C62.2367 167.386 64.1835 167.586 66.0246 168.186C67.9807 168.858 69.7297 170.03 71.1002 171.586C72.2469 172.759 73.1482 174.15 73.7506 175.68C74.2366 177.021 74.5224 178.427 74.5987 179.853C74.6744 181.241 74.63 182.633 74.4662 184.013C74.2939 185.346 74.1349 186.68 73.9891 187.92C73.8453 189.087 73.8054 190.265 73.8699 191.44C73.9139 192.495 74.2539 193.517 74.8505 194.386C75.1074 194.785 75.2538 195.245 75.2746 195.72C75.2861 195.953 75.2444 196.187 75.1525 196.401C75.0606 196.616 74.921 196.807 74.7445 196.96L70.9279 200.52C70.5659 200.85 70.0911 201.027 69.6027 201.013C69.3604 201.022 69.1195 200.972 68.9004 200.868C68.6813 200.763 68.4903 200.607 68.3437 200.413C67.2834 199.173 66.4813 197.731 65.9849 196.173C65.5698 194.774 65.3382 193.326 65.2958 191.866C65.2544 190.458 65.3342 189.048 65.5343 187.653C65.7331 186.32 65.8921 184.986 66.0246 183.786C66.1433 182.683 66.1433 181.57 66.0246 180.466C65.9382 179.516 65.5422 178.621 64.8982 177.92C64.3379 177.295 63.6349 176.817 62.8499 176.526C62.065 176.236 61.2215 176.142 60.3925 176.253C58.3477 176.519 56.4472 177.456 54.9856 178.92C52.1408 181.586 51.359 184.969 52.64 189.066C52.7971 189.493 52.8779 189.944 52.8785 190.4C52.8457 190.624 52.7691 190.84 52.6531 191.034C52.5371 191.229 52.384 191.398 52.2027 191.533L48.1343 195.32C47.85 195.596 47.4694 195.749 47.0741 195.746C46.8717 195.743 46.6723 195.696 46.4895 195.608C46.3066 195.521 46.1445 195.395 46.0139 195.24C44.8874 193.928 44.0999 192.357 43.7213 190.666C43.2717 188.731 43.1684 186.731 43.4165 184.76C43.6886 182.598 44.3062 180.496 45.2453 178.533C46.2455 176.427 47.6456 174.538 49.3667 172.973Z" fill="white"/>
</g>
<path d="M360.553 289.488C355.674 287.207 335.128 277.497 328.143 274.195C326.756 273.551 325.883 273.132 325.814 273.09C322.341 271.508 318.283 271.01 314.395 271.691C311.057 272.244 307.86 273.262 304.944 274.699C304.464 274.923 303.985 275.188 303.523 275.44C295.63 279.512 288.85 285.92 283.2 294.735C277.446 303.321 274.36 312.93 274.211 322.718C274.211 331.99 277.236 338.496 283.285 342.236C283.898 342.609 284.538 342.95 285.203 343.258C290.87 345.888 319.291 359.348 319.925 359.642H320.079C319.38 359.329 318.71 358.973 318.076 358.579C312.015 354.847 308.99 348.346 309.001 339.074C309.15 329.286 312.237 319.677 317.99 311.091C323.96 301.763 331.202 295.08 339.717 291.041C347.821 287.217 354.818 286.718 360.708 289.544L360.553 289.488Z" fill="#705A8D"/>
<path opacity="0.4" d="M360.708 289.572C354.818 286.773 347.821 287.268 339.717 291.055C331.807 294.786 324.987 300.849 319.257 309.244L284.467 292.776C289.843 284.927 296.195 279.148 303.506 275.384C303.968 275.146 304.448 274.867 304.927 274.643C307.841 273.204 311.039 272.19 314.378 271.648C318.266 270.96 322.328 271.458 325.798 273.048L328.126 274.153C335.112 277.441 355.657 287.151 360.537 289.432L360.708 289.572Z" fill="black"/>
<path opacity="0.3" d="M320.079 359.6H319.925C319.291 359.306 290.819 345.846 285.203 343.215C284.538 342.908 283.898 342.567 283.285 342.194C277.236 338.463 274.211 331.961 274.211 322.69C274.356 312.901 277.443 303.291 283.2 294.706C283.611 294.049 284.039 293.405 284.484 292.79L319.257 309.202C318.829 309.817 318.401 310.461 317.99 311.105C312.237 319.691 309.15 329.3 309.001 339.088C309.001 348.36 312.026 354.861 318.076 358.592C318.712 358.968 319.382 359.304 320.079 359.6Z" fill="black"/>
<path d="M345.384 49.3917C362.266 41.4164 376.636 38.0258 388.495 39.2198C393.322 39.691 397.982 40.9571 402.192 42.9415C402.075 42.8907 401.96 42.8347 401.85 42.7736C397.775 40.8988 373.223 29.3277 367.608 26.6273C363.324 24.5812 358.566 23.2852 353.637 22.8216C341.766 21.637 327.39 25.0229 310.508 32.9795C284.256 45.3574 263.139 63.5465 247.16 87.5468C231.18 111.547 223.275 136.046 223.447 161.045L258.22 177.457C257.98 152.44 265.884 127.936 281.933 103.945C297.981 79.954 319.132 61.7696 345.384 49.3917Z" fill="#705A8D"/>
<path opacity="0.2" d="M401.919 42.7875C397.769 40.8988 393.21 39.6871 388.496 39.2197C376.648 38.0257 362.277 41.4163 345.384 49.3916C319.132 61.7601 298.015 79.9492 282.036 103.959C281.368 104.952 280.717 105.96 280.084 106.953L245.225 90.5129C245.858 89.5195 246.509 88.5121 247.177 87.5187C263.225 63.5371 284.341 45.348 310.525 32.9514C327.43 24.9855 341.806 21.5995 353.654 22.7935C358.584 23.2619 363.342 24.5626 367.625 26.6132C373.292 29.3416 397.844 40.9266 401.919 42.7875Z" fill="black"/>
<path opacity="0.3" d="M279.998 106.925C265.262 129.956 258.008 153.457 258.237 177.429L223.463 161.017C223.247 137.035 230.5 113.534 245.225 90.5132L279.998 106.925Z" fill="black"/>
<path d="M369.012 95.8998C362.7 93.1575 354.27 94.2302 343.723 99.1179C343.367 104.246 342.075 109.301 339.888 114.117C337.252 119.919 329.581 131.886 316.877 150.019C303.717 168.768 294.197 186.673 288.319 203.733C282.489 220.577 279.528 237.997 279.519 255.502L279.69 264.219L303.42 275.412L314.48 280.631L314.292 271.9V271.788C314.33 254.34 317.291 236.979 323.092 220.187C328.971 203.127 338.496 185.227 351.668 166.488C364.36 148.354 372.025 136.382 374.662 130.571C377.295 124.826 378.64 118.741 378.634 112.606C378.634 104.258 375.426 98.6888 369.012 95.8998Z" fill="#705A8D"/>
<path opacity="0.3" d="M371.254 136.853C367.328 143.532 360.799 153.391 351.668 166.431C338.484 185.18 328.959 203.085 323.092 220.145C317.285 236.95 314.324 254.326 314.292 271.788V272.012L314.48 280.743L303.42 275.538L279.69 264.345L279.519 255.614C279.529 238.109 282.49 220.689 288.319 203.845C294.197 186.785 303.717 168.88 316.877 150.131C326.009 137.072 332.549 127.218 336.498 120.567L371.254 136.853Z" fill="black"/>
<path opacity="0.4" d="M378.633 112.606C378.637 118.721 377.297 124.787 374.678 130.515C373.942 132.152 372.795 134.265 371.254 136.853L336.498 120.455C338.016 117.862 339.158 115.749 339.922 114.117C342.108 109.301 343.401 104.246 343.757 99.1179C354.304 94.2302 362.733 93.1575 369.046 95.8998C375.358 98.6422 378.554 104.211 378.633 112.606Z" fill="black"/>
<path d="M305.303 155.21L258.237 177.429C257.997 152.412 265.901 127.908 281.95 103.917C297.998 79.9258 319.114 61.7367 345.298 49.3494C362.18 41.3742 376.55 37.9836 388.41 39.1775C400.269 40.3715 409.76 45.6836 416.882 55.114C424.016 64.5443 427.583 76.3066 427.583 90.4008C427.512 98.5836 426.364 106.736 424.159 114.718C421.491 124.266 417.889 133.624 413.39 142.702C410.513 148.634 403.625 159.585 392.724 175.554C382.303 190.777 375.774 201.135 373.137 206.629C370.211 213.151 368.038 219.882 366.649 226.735C364.576 236.978 363.431 247.332 363.224 257.713L314.549 280.687L314.36 271.956C314.37 254.451 317.332 237.031 323.161 220.187C329.039 203.127 338.564 185.227 351.736 166.487C364.428 148.354 372.093 136.382 374.73 130.571C377.339 124.822 378.662 118.737 378.633 112.606C378.633 104.211 375.432 98.6419 369.028 95.8996C362.625 93.1572 354.03 94.3045 343.244 99.3415C332.218 104.546 323.172 112.354 316.107 122.763C309.197 132.655 305.479 143.821 305.303 155.21Z" fill="#705A8D"/>
<path d="M339.631 291.139C348.363 287.007 355.817 286.75 361.992 290.369C368.167 293.988 371.254 300.429 371.254 309.692C371.067 319.533 367.922 329.187 362.094 337.801C355.999 347.268 348.631 354.04 339.991 358.117C331.35 362.193 324.011 362.361 317.973 358.62C311.923 354.889 308.899 348.383 308.899 339.102C309.048 329.314 312.134 319.705 317.887 311.119C323.88 301.81 331.128 295.15 339.631 291.139Z" fill="#705A8D"/>
</g>
<defs>
<clipPath id="clip0_131_950">
<rect width="427" height="564" fill="white"/>
</clipPath>
</defs>
</svg>
