<svg width="126" height="136" viewBox="0 0 126 136" fill="none" xmlns="http://www.w3.org/2000/svg">
<g clip-path="url(#clip0_38_1025)">
<path d="M106.312 42.5C109.02 42.5 111.562 43.0534 113.941 44.1602C116.32 45.2669 118.392 46.7943 120.155 48.7422C121.919 50.6901 123.334 52.9479 124.4 55.5156C125.467 58.0833 126 60.8281 126 63.75C126 66.2734 125.61 68.6862 124.831 70.9883C124.052 73.2904 122.965 75.349 121.57 77.1641C120.176 78.9792 118.515 80.5508 116.587 81.8789C114.659 83.207 112.547 84.1146 110.25 84.6016V91.375C110.25 95.3151 109.799 99.1445 108.896 102.863C107.994 106.582 106.723 110.124 105.082 113.488C103.441 116.853 101.432 119.885 99.0527 122.586C96.6738 125.286 94.0283 127.655 91.1162 129.691C88.2041 131.728 85.0254 133.277 81.5801 134.34C78.1348 135.402 74.5664 135.956 70.875 136C67.1426 136 63.5742 135.447 60.1699 134.34C56.7656 133.233 53.6074 131.684 50.6953 129.691C47.7832 127.699 45.1377 125.331 42.7588 122.586C40.3799 119.841 38.3701 116.809 36.7295 113.488C35.0889 110.168 33.7969 106.648 32.8535 102.93C31.9102 99.2109 31.459 95.3594 31.5 91.375V76.168C26.4551 75.681 21.9844 74.375 18.0879 72.25C14.1914 70.125 10.8896 67.3359 8.18262 63.8828C5.47559 60.4297 3.44531 56.4232 2.0918 51.8633C0.738281 47.3034 0.0410156 42.3672 0 37.0547V0H19.6875C20.7539 0 21.6768 0.420573 22.4561 1.26172C23.2354 2.10286 23.625 3.09896 23.625 4.25C23.625 5.40104 23.2354 6.39714 22.4561 7.23828C21.6768 8.07943 20.7539 8.5 19.6875 8.5H7.875V37.0547C7.875 41.7474 8.46973 45.9974 9.65918 49.8047C10.8486 53.612 12.6328 56.8659 15.0117 59.5664C17.3906 62.2669 20.2617 64.3477 23.625 65.8086C26.9883 67.2695 30.9258 68 35.4375 68C39.5801 68 43.3535 67.3138 46.7578 65.9414C50.1621 64.569 53.0537 62.599 55.4326 60.0312C57.8115 57.4635 59.6777 54.3646 61.0312 50.7344C62.3848 47.1042 63.041 43.0091 63 38.4492V8.5H51.1875C50.1211 8.5 49.1982 8.07943 48.4189 7.23828C47.6396 6.39714 47.25 5.40104 47.25 4.25C47.25 3.09896 47.6396 2.10286 48.4189 1.26172C49.1982 0.420573 50.1211 0 51.1875 0H70.875V37.0547C70.875 42.3672 70.1777 47.3034 68.7832 51.8633C67.3887 56.4232 65.3584 60.4297 62.6924 63.8828C60.0264 67.3359 56.7451 70.125 52.8486 72.25C48.9521 74.375 44.4609 75.681 39.375 76.168V91.375C39.375 96.112 40.1543 100.65 41.7129 104.988C43.2715 109.327 45.4658 113.178 48.2959 116.543C51.126 119.908 54.4482 122.564 58.2627 124.512C62.0771 126.46 66.2812 127.456 70.875 127.5C75.4277 127.5 79.6113 126.504 83.4258 124.512C87.2402 122.52 90.5625 119.863 93.3926 116.543C96.2227 113.223 98.417 109.393 99.9756 105.055C101.534 100.716 102.334 96.1562 102.375 91.375V84.6016C100.078 84.0703 97.9658 83.1628 96.0381 81.8789C94.1104 80.5951 92.4492 79.0456 91.0547 77.2305C89.6602 75.4154 88.5732 73.3346 87.7939 70.9883C87.0146 68.6419 86.625 66.2292 86.625 63.75C86.625 60.8281 87.1377 58.0833 88.1631 55.5156C89.1885 52.9479 90.583 50.7122 92.3467 48.8086C94.1104 46.9049 96.2021 45.3776 98.6221 44.2266C101.042 43.0755 103.605 42.5 106.312 42.5ZM106.312 76.5C107.953 76.5 109.491 76.168 110.927 75.5039C112.362 74.8398 113.613 73.9323 114.68 72.7812C115.746 71.6302 116.587 70.2799 117.202 68.7305C117.817 67.181 118.125 65.5208 118.125 63.75C118.125 61.9792 117.817 60.319 117.202 58.7695C116.587 57.2201 115.746 55.8698 114.68 54.7188C113.613 53.5677 112.362 52.6602 110.927 51.9961C109.491 51.332 107.953 51 106.312 51C104.672 51 103.134 51.332 101.698 51.9961C100.263 52.6602 99.0117 53.5677 97.9453 54.7188C96.8789 55.8698 96.0381 57.2201 95.4229 58.7695C94.8076 60.319 94.5 61.9792 94.5 63.75C94.5 65.5208 94.8076 67.181 95.4229 68.7305C96.0381 70.2799 96.8789 71.6302 97.9453 72.7812C99.0117 73.9323 100.263 74.8398 101.698 75.5039C103.134 76.168 104.672 76.5 106.312 76.5Z" fill="#D3B51B"/>
</g>
<defs>
<clipPath id="clip0_38_1025">
<rect width="126" height="136" fill="white"/>
</clipPath>
</defs>
</svg>
