<svg width="142" height="142" viewBox="0 0 142 142" fill="none" xmlns="http://www.w3.org/2000/svg">
<path d="M71 29.7692L23.7908 76.0508C21.874 77.9654 20.3535 80.239 19.316 82.7417C18.2785 85.2444 17.7446 87.927 17.7446 90.6362C17.7446 93.3453 18.2785 96.0279 19.316 98.5306C20.3535 101.033 21.874 103.307 23.7908 105.222L36.7785 118.209C38.6931 120.126 40.9667 121.647 43.4694 122.684C45.9721 123.721 48.6547 124.255 51.3638 124.255C54.073 124.255 56.7556 123.721 59.2583 122.684C61.761 121.647 64.0346 120.126 65.9492 118.209L112.231 71M107.077 4L138 34.9231M91.6154 50.3846L122.538 19.4615M30.2846 111.715L4 138M55.5385 14.3077L127.692 86.4615" stroke="#C488A5" stroke-width="8" stroke-linecap="round" stroke-linejoin="round"/>
</svg>
